<svg width="441" height="272" viewBox="0 0 441 272" fill="none" xmlns="http://www.w3.org/2000/svg">
<g clip-path="url(#clip0_129_4)">
<path d="M228.801 74.1398C211.148 71.5962 194.384 64.791 179.966 54.3153C158.396 38.723 113.293 12.1882 70.2034 25.4002C10.8116 43.6596 10.5436 96.3771 26.0158 125.025C41.488 153.673 151.192 237.568 293.409 224.219C420.678 212.272 445.478 75.5353 377.601 50.7938C318.732 29.3586 298.645 84.0129 228.801 74.1398Z" fill="#DFD2F1"/>
<path d="M56.9929 15.6119C57.9784 16.5059 58.6759 17.6715 58.9972 18.9611C59.3185 20.2508 59.2492 21.6065 58.7979 22.8568C58.3467 24.1071 57.5338 25.1958 56.4622 25.9851C55.3906 26.7744 54.1084 27.2288 52.7779 27.2909C51.4473 27.353 50.1282 27.0199 48.9874 26.3338C47.8466 25.6478 46.9355 24.6395 46.3692 23.4367C45.803 22.2339 45.6071 20.8905 45.8064 19.5766C46.0056 18.2626 46.5911 17.0372 47.4886 16.0553C48.0829 15.4027 48.8004 14.8734 49.6 14.4978C50.3996 14.1222 51.2657 13.9076 52.1485 13.8665C53.0314 13.8253 53.9137 13.9582 54.745 14.2577C55.5763 14.5572 56.3401 15.0174 56.9929 15.6119Z" fill="#DFD2F1"/>
<path d="M41.3376 28.113C41.9315 28.6522 42.3517 29.355 42.5451 30.1325C42.7385 30.9099 42.6965 31.7272 42.4243 32.4808C42.1521 33.2344 41.662 33.8906 41.016 34.3663C40.37 34.842 39.597 35.1159 38.795 35.1533C37.9929 35.1907 37.1977 34.99 36.51 34.5765C35.8223 34.163 35.273 33.5553 34.9315 32.8303C34.59 32.1052 34.4718 31.2955 34.5916 30.5034C34.7115 29.7113 35.0642 28.9725 35.605 28.3804C35.9634 27.9867 36.3962 27.6675 36.8785 27.4409C37.3608 27.2143 37.8832 27.0849 38.4157 27.0601C38.9482 27.0352 39.4804 27.1155 39.9818 27.2961C40.4832 27.4768 40.9439 27.7544 41.3376 28.113Z" fill="#DFD2F1"/>
<path d="M263.23 61.919C263.955 62.2635 264.561 62.8146 264.971 63.5026C265.382 64.1906 265.579 64.9846 265.538 65.7843C265.496 66.584 265.218 67.3535 264.738 67.9955C264.258 68.6375 263.598 69.1231 262.842 69.3911C262.086 69.659 261.267 69.6972 260.488 69.5009C259.71 69.3045 259.008 68.8824 258.47 68.2879C257.932 67.6933 257.583 66.9531 257.467 66.1608C257.351 65.3684 257.473 64.5595 257.818 63.8362C258.047 63.3556 258.368 62.9248 258.764 62.5683C259.16 62.2118 259.623 61.9366 260.126 61.7586C260.628 61.5805 261.161 61.503 261.694 61.5306C262.226 61.5581 262.748 61.6901 263.23 61.919Z" fill="#DFD2F1"/>
<path d="M385.02 202.543C385.329 203.798 385.257 205.116 384.814 206.331C384.37 207.545 383.575 208.601 382.529 209.363C381.482 210.126 380.233 210.561 378.938 210.613C377.644 210.666 376.363 210.334 375.258 209.659C374.153 208.984 373.274 207.996 372.733 206.822C372.192 205.647 372.013 204.339 372.218 203.063C372.424 201.787 373.005 200.6 373.888 199.654C374.771 198.708 375.915 198.045 377.176 197.749C378.853 197.356 380.618 197.639 382.086 198.537C383.555 199.434 384.61 200.874 385.02 202.543Z" fill="#DFD2F1"/>
<path d="M433.15 130.764C433.15 131.715 432.867 132.646 432.337 133.437C431.806 134.229 431.053 134.846 430.172 135.21C429.29 135.574 428.32 135.669 427.384 135.484C426.449 135.298 425.589 134.84 424.914 134.167C424.24 133.494 423.78 132.636 423.594 131.702C423.408 130.769 423.504 129.801 423.869 128.922C424.234 128.042 424.852 127.291 425.645 126.762C426.439 126.233 427.371 125.951 428.326 125.951C429.604 125.953 430.83 126.46 431.735 127.362C432.639 128.265 433.148 129.488 433.15 130.764Z" fill="#DFD2F1"/>
<path d="M429.482 9.26001H364.103V109.85H429.482V9.26001Z" fill="#764EB5"/>
<path d="M426.044 12.925H367.542V106.198H426.044V12.925Z" fill="#C4AEE5"/>
<g opacity="0.5">
<path d="M406.591 12.925L367.542 54.5108V43.8161L396.551 12.925H406.591Z" fill="white"/>
</g>
<g opacity="0.5">
<path d="M426.044 14.8096V29.241L367.542 91.5382V77.1068L426.044 14.8096Z" fill="white"/>
</g>
<g opacity="0.5">
<path d="M426.044 80.5696V88.2646L409.206 106.191H401.983L426.044 80.5696Z" fill="white"/>
</g>
<g opacity="0.5">
<path d="M426.044 48.8047V56.2584L379.15 106.191H372.15L426.044 48.8047Z" fill="white"/>
</g>
<path d="M426.044 54.9348H367.542V59.3236H426.044V54.9348Z" fill="#764EB5"/>
<path d="M429.482 109.85H364.103V113.847H429.482V109.85Z" fill="#C4AEE5"/>
<path d="M367.398 9.26001H302.018V109.85H367.398V9.26001Z" fill="#764EB5"/>
<path d="M363.959 12.925H305.457V106.198H363.959V12.925Z" fill="#C4AEE5"/>
<g opacity="0.5">
<path d="M344.513 12.925L305.457 54.5108V43.8161L334.466 12.925H344.513Z" fill="white"/>
</g>
<g opacity="0.5">
<path d="M363.959 14.8096V29.241L305.457 91.5382V77.1068L363.959 14.8096Z" fill="white"/>
</g>
<g opacity="0.5">
<path d="M363.959 80.5696V88.2646L347.127 106.191H339.898L363.959 80.5696Z" fill="white"/>
</g>
<g opacity="0.5">
<path d="M363.959 48.8047V56.2584L317.072 106.191H310.071L363.959 48.8047Z" fill="white"/>
</g>
<path d="M363.959 54.9348H305.457V59.3236H363.959V54.9348Z" fill="#764EB5"/>
<path d="M367.398 109.85H302.018V113.847H367.398V109.85Z" fill="#C4AEE5"/>
<path d="M132.406 68.1402H32.1341L29.9377 62.3232H134.916L132.406 68.1402Z" fill="#C4AEE5"/>
<path d="M134.916 55.4109H29.9377V62.3234H134.916V55.4109Z" fill="#764EB5"/>
<path d="M40.6317 62.3232L43.4425 68.1923H50.0575L51.9401 62.3232H40.6317Z" fill="#764EB5"/>
<path d="M124.216 62.3232L121.411 68.1923H114.796L112.914 62.3232H124.216Z" fill="#764EB5"/>
<path d="M105.22 37.0926C105.123 37.0926 105.03 37.0541 104.961 36.9856C104.893 36.9171 104.854 36.8242 104.854 36.7274V12.9771C104.847 12.9255 104.851 12.873 104.866 12.8232C104.881 12.7733 104.907 12.7272 104.941 12.688C104.976 12.6488 105.018 12.6174 105.065 12.5959C105.113 12.5744 105.165 12.5632 105.217 12.5632C105.269 12.5632 105.321 12.5744 105.368 12.5959C105.416 12.6174 105.458 12.6488 105.492 12.688C105.527 12.7272 105.552 12.7733 105.567 12.8232C105.582 12.873 105.587 12.9255 105.58 12.9771V36.7274C105.58 36.8231 105.542 36.915 105.475 36.9833C105.407 37.0516 105.316 37.0909 105.22 37.0926Z" fill="#00431F"/>
<path d="M115.385 36.1992L114.999 37.6208L114.927 37.8947L114.574 39.199L114.502 39.4729L111.051 52.2479L110.972 52.5218L110.626 53.8261L110.554 54.1L110.096 55.789C106.858 56.2227 103.576 56.2227 100.337 55.789L99.8796 54.1L99.8077 53.8261L99.4613 52.5218L99.3829 52.2479L95.9315 39.4729L95.8596 39.199L95.5132 37.8947L95.4347 37.6208L95.0491 36.1992H115.385Z" fill="#912B3B"/>
<path d="M114.999 37.6208L114.92 37.8947H95.5066L95.4347 37.6208H114.999Z" fill="white"/>
<path d="M114.574 39.1794L114.502 39.4533H95.9315L95.853 39.1794H114.574Z" fill="white"/>
<path d="M111.044 52.2285L110.972 52.5024H99.4547L99.3828 52.2285H111.044Z" fill="white"/>
<path d="M110.626 53.7871L110.554 54.061H99.8796L99.8077 53.7871H110.626Z" fill="white"/>
<path d="M106.521 18.1615C106.317 18.2108 106.102 18.1981 105.905 18.1249C105.709 18.0516 105.538 17.9213 105.416 17.7506C105.33 17.6366 105.27 17.5053 105.24 17.3659C105.233 17.2899 105.233 17.2136 105.24 17.1376C105.244 16.8992 105.329 16.6692 105.481 16.4855C106.874 14.803 113.927 6.66456 117.247 10.0686C121.209 14.164 110.377 17.2289 106.521 18.1615Z" fill="#006837"/>
<path d="M112.757 13.4206L105.416 17.7507C105.33 17.6366 105.27 17.5054 105.24 17.3659L112.554 13.0554C112.602 13.0377 112.654 13.0372 112.702 13.0541C112.749 13.0709 112.79 13.1041 112.816 13.1477C112.841 13.1913 112.851 13.2425 112.842 13.2925C112.834 13.3424 112.808 13.3877 112.77 13.4206H112.757Z" fill="#00431F"/>
<path d="M105.22 21.1679C105.23 21.2415 105.23 21.3161 105.22 21.3897C105.188 21.5307 105.128 21.6638 105.044 21.7809C104.922 21.9518 104.751 22.0819 104.554 22.1541C104.357 22.2263 104.142 22.2371 103.939 22.1853C100.089 21.2527 89.2576 18.1877 93.2515 14.0794C96.5198 10.6753 103.605 18.8138 105.017 20.4963C105.16 20.6904 105.232 20.9275 105.22 21.1679Z" fill="#006837"/>
<path d="M105.194 21.3896C105.162 21.5307 105.102 21.6638 105.017 21.7809L97.6768 17.4443C97.6531 17.4302 97.6325 17.4116 97.6161 17.3895C97.5996 17.3675 97.5878 17.3424 97.5811 17.3157C97.5744 17.2891 97.5731 17.2613 97.5771 17.2342C97.5812 17.207 97.5907 17.1809 97.6049 17.1573C97.6185 17.1332 97.6367 17.112 97.6586 17.095C97.6804 17.0779 97.7055 17.0654 97.7323 17.0581C97.759 17.0509 97.787 17.049 97.8145 17.0526C97.842 17.0561 97.8685 17.0652 97.8925 17.0791L105.194 21.3896Z" fill="#00431F"/>
<path d="M106.018 12.9119C105.99 13.1599 105.877 13.3906 105.697 13.564C105.641 13.6153 105.579 13.6612 105.514 13.701C105.393 13.7763 105.257 13.8252 105.116 13.8445C104.906 13.8744 104.693 13.8399 104.503 13.7455C104.314 13.6511 104.158 13.5013 104.057 13.3162C102.096 9.8926 96.8663 -0.0457368 102.573 0.0129542C107.325 0.0129542 106.279 10.7469 106.018 12.9119Z" fill="#006837"/>
<path d="M105.521 13.7076C105.399 13.7829 105.264 13.8318 105.122 13.851L103.2 5.56256C103.194 5.53558 103.193 5.50761 103.197 5.48023C103.202 5.45285 103.211 5.4266 103.226 5.40298C103.24 5.37937 103.26 5.35884 103.282 5.34259C103.305 5.32633 103.33 5.31466 103.357 5.30823C103.384 5.30181 103.412 5.30076 103.44 5.30515C103.467 5.30954 103.493 5.31928 103.517 5.33382C103.541 5.34835 103.561 5.36739 103.578 5.38985C103.594 5.41232 103.606 5.43777 103.612 5.46474L105.521 13.7076Z" fill="#00431F"/>
<path d="M106.521 26.8023C106.317 26.8517 106.102 26.8389 105.905 26.7657C105.709 26.6925 105.538 26.5621 105.416 26.3914C105.33 26.2774 105.27 26.1461 105.24 26.0067C105.233 25.9308 105.233 25.8544 105.24 25.7785C105.245 25.5402 105.33 25.3105 105.481 25.1263C106.874 23.4439 113.927 15.3445 117.247 18.7095C121.209 22.8374 110.377 25.8698 106.521 26.8023Z" fill="#006837"/>
<path d="M112.757 22.0612L105.416 26.3913C105.33 26.2772 105.27 26.1459 105.24 26.0065L112.554 21.696C112.578 21.6818 112.604 21.6724 112.631 21.6683C112.658 21.6642 112.686 21.6656 112.713 21.6722C112.74 21.6789 112.765 21.6908 112.787 21.7072C112.809 21.7235 112.828 21.7441 112.842 21.7677C112.856 21.7923 112.866 21.8197 112.87 21.8481C112.873 21.8765 112.871 21.9054 112.863 21.9329C112.855 21.9604 112.842 21.986 112.823 22.0081C112.805 22.0302 112.782 22.0482 112.757 22.0612Z" fill="#00431F"/>
<path d="M105.22 29.8086C105.23 29.8821 105.23 29.9567 105.22 30.0303C105.188 30.1713 105.128 30.3045 105.044 30.4216C104.922 30.5924 104.751 30.7225 104.554 30.7947C104.357 30.8669 104.142 30.8778 103.939 30.8259C100.089 29.8933 89.2576 26.8284 93.2515 22.72C96.5198 19.3159 103.605 27.4544 105.017 29.1369C105.16 29.331 105.232 29.5681 105.22 29.8086Z" fill="#006837"/>
<path d="M105.194 30.0106C105.162 30.1516 105.102 30.2847 105.017 30.4018L97.6768 26.0978C97.6383 26.065 97.6125 26.0196 97.6042 25.9697C97.5958 25.9198 97.6053 25.8685 97.6311 25.8249C97.6568 25.7813 97.6971 25.7482 97.745 25.7313C97.7928 25.7144 97.845 25.7149 97.8925 25.7327L105.194 30.0106Z" fill="#00431F"/>
<path d="M106.521 34.9408C106.317 34.9929 106.101 34.9815 105.904 34.9081C105.706 34.8346 105.536 34.7027 105.416 34.5299C105.33 34.4158 105.27 34.2846 105.24 34.1452C105.233 34.0692 105.233 33.9929 105.24 33.9169C105.242 33.6782 105.328 33.4477 105.481 33.2648C106.874 31.5823 113.927 23.4439 117.247 26.8479C121.209 30.9433 110.377 34.0082 106.521 34.9408Z" fill="#006837"/>
<path d="M112.757 30.1997L105.416 34.5297C105.33 34.4157 105.27 34.2844 105.24 34.145L112.554 29.8345C112.578 29.8205 112.605 29.8115 112.632 29.8079C112.66 29.8043 112.688 29.8062 112.714 29.8135C112.741 29.8208 112.766 29.8333 112.788 29.8503C112.81 29.8674 112.828 29.8886 112.842 29.9127C112.856 29.9368 112.866 29.9637 112.869 29.9916C112.873 30.0195 112.871 30.0479 112.863 30.0749C112.855 30.102 112.841 30.127 112.823 30.1485C112.805 30.17 112.782 30.1874 112.757 30.1997Z" fill="#00431F"/>
<path d="M61.2612 50.6048H61.9149V49.6592H37.8667C37.1021 49.6592 36.3689 49.9622 35.8283 50.5015C35.2877 51.0408 34.984 51.7723 34.984 52.535C34.984 53.2978 35.2877 54.0292 35.8283 54.5686C36.3689 55.1079 37.1021 55.4109 37.8667 55.4109H61.9018V54.5957H61.2482L61.2612 50.6048Z" fill="#D26040"/>
<path d="M61.4312 50.6047V54.5957H39.3767C39.1158 54.5958 38.8576 54.5439 38.6171 54.4431C38.3765 54.3424 38.1586 54.1948 37.976 54.009C37.7934 53.8231 37.6497 53.6028 37.5535 53.3609C37.4573 53.119 37.4105 52.8604 37.4157 52.6002C37.4128 52.0726 37.6169 51.5647 37.9844 51.1851C38.3491 50.8173 38.845 50.6086 39.3636 50.6047H61.4312Z" fill="white"/>
<path d="M61.4312 51.6155V52.222H39.9453C39.8661 52.2203 39.7906 52.1882 39.7346 52.1323C39.6785 52.0764 39.6463 52.001 39.6447 51.922C39.6463 51.8429 39.6785 51.7676 39.7346 51.7117C39.7906 51.6558 39.8661 51.6237 39.9453 51.622L61.4312 51.6155Z" fill="#DDDAC7"/>
<path d="M61.4312 53.1152V53.7282H39.9453C39.865 53.7265 39.7885 53.6935 39.7323 53.6362C39.6761 53.5789 39.6446 53.5019 39.6447 53.4217C39.6446 53.3416 39.6761 53.2646 39.7323 53.2073C39.7885 53.15 39.865 53.1169 39.9453 53.1152H61.4312Z" fill="#DDDAC7"/>
<path d="M61.2613 45.1138H61.9149V44.1682H37.8667C37.125 44.2034 36.4255 44.5221 35.9131 45.0582C35.4007 45.5943 35.1149 46.3066 35.1149 47.0473C35.1149 47.7881 35.4007 48.5004 35.9131 49.0364C36.4255 49.5725 37.125 49.8912 37.8667 49.9264H61.9018V49.1048H61.2482L61.2613 45.1138Z" fill="#4378AE"/>
<path d="M61.4312 45.1138V49.1048H39.3767C39.1158 49.1048 38.8576 49.0529 38.6171 48.9522C38.3765 48.8514 38.1586 48.7038 37.976 48.518C37.7934 48.3322 37.6497 48.1118 37.5535 47.8699C37.4573 47.6281 37.4105 47.3694 37.4157 47.1093C37.4128 46.5816 37.6169 46.0737 37.9844 45.6942C38.3491 45.3264 38.845 45.1177 39.3636 45.1138H61.4312Z" fill="white"/>
<path d="M61.4312 46.1245V46.731H39.9453C39.8661 46.7293 39.7906 46.6972 39.7346 46.6413C39.6785 46.5854 39.6463 46.51 39.6447 46.431C39.6463 46.352 39.6785 46.2766 39.7346 46.2207C39.7906 46.1648 39.8661 46.1327 39.9453 46.131L61.4312 46.1245Z" fill="#DDDAC7"/>
<path d="M61.4312 47.6179V48.27H39.9453C39.865 48.2683 39.7885 48.2353 39.7323 48.178C39.6761 48.1207 39.6446 48.0437 39.6447 47.9635C39.6446 47.8834 39.6761 47.8064 39.7323 47.7491C39.7885 47.6918 39.865 47.6588 39.9453 47.657L61.4312 47.6179Z" fill="#DDDAC7"/>
<path d="M89.055 50.6048H89.7087V49.6592H65.6539C64.8894 49.6592 64.1561 49.9622 63.6155 50.5015C63.0749 51.0408 62.7712 51.7723 62.7712 52.535C62.7712 53.2978 63.0749 54.0292 63.6155 54.5686C64.1561 55.1079 64.8894 55.4109 65.6539 55.4109H89.676V54.5957H89.0223L89.055 50.6048Z" fill="#006837"/>
<path d="M89.2184 50.6047V54.5957H67.1638C66.9029 54.5958 66.6447 54.5439 66.4042 54.4431C66.1637 54.3424 65.9457 54.1948 65.7631 54.009C65.5805 53.8231 65.4369 53.6028 65.3406 53.3609C65.2444 53.119 65.1976 52.8604 65.2028 52.6002C65.2 52.0726 65.404 51.5647 65.7715 51.1851C66.1362 50.8173 66.6321 50.6086 67.1507 50.6047H89.2184Z" fill="white"/>
<path d="M89.2185 51.6155V52.222H67.7326C67.6533 52.2203 67.5778 52.1882 67.5218 52.1323C67.4658 52.0764 67.4336 52.001 67.4319 51.922C67.4336 51.8429 67.4658 51.7676 67.5218 51.7117C67.5778 51.6558 67.6533 51.6237 67.7326 51.622L89.2185 51.6155Z" fill="#DDDAC7"/>
<path d="M89.2185 53.1152V53.7282H67.7326C67.6522 53.7265 67.5758 53.6935 67.5195 53.6362C67.4633 53.5789 67.4319 53.5019 67.4319 53.4217C67.4319 53.3416 67.4633 53.2646 67.5195 53.2073C67.5758 53.15 67.6522 53.1169 67.7326 53.1152H89.2185Z" fill="#DDDAC7"/>
<path d="M89.055 44.8465H89.7087V43.9009H65.6539C64.9123 43.9361 64.2127 44.2548 63.7003 44.7909C63.1879 45.327 62.9021 46.0393 62.9021 46.78C62.9021 47.5207 63.1879 48.233 63.7003 48.7691C64.2127 49.3052 64.9123 49.6239 65.6539 49.6591H89.676V48.8374H89.0223L89.055 44.8465Z" fill="#D26040"/>
<path d="M89.2184 44.8464V48.8374H67.1638C66.9029 48.8375 66.6447 48.7856 66.4042 48.6849C66.1637 48.5841 65.9457 48.4365 65.7631 48.2507C65.5805 48.0648 65.4369 47.8445 65.3406 47.6026C65.2444 47.3607 65.1976 47.1021 65.2028 46.8419C65.2 46.3143 65.404 45.8064 65.7715 45.4268C66.1362 45.059 66.6321 44.8503 67.1507 44.8464H89.2184Z" fill="white"/>
<path d="M89.2185 45.8572V46.4637H67.7326C67.6533 46.462 67.5778 46.4298 67.5218 46.3739C67.4658 46.318 67.4336 46.2427 67.4319 46.1637C67.4336 46.0846 67.4658 46.0093 67.5218 45.9534C67.5778 45.8975 67.6533 45.8654 67.7326 45.8637L89.2185 45.8572Z" fill="#DDDAC7"/>
<path d="M89.2185 47.3572V47.9702H67.7326C67.6522 47.9685 67.5758 47.9354 67.5195 47.8781C67.4633 47.8208 67.4319 47.7438 67.4319 47.6637C67.4319 47.5835 67.4633 47.5065 67.5195 47.4492C67.5758 47.3919 67.6522 47.3589 67.7326 47.3572H89.2185Z" fill="#DDDAC7"/>
<path d="M273.224 58.1562C283.015 58.1562 290.952 50.2382 290.952 40.4707C290.952 30.7032 283.015 22.7852 273.224 22.7852C263.434 22.7852 255.497 30.7032 255.497 40.4707C255.497 50.2382 263.434 58.1562 273.224 58.1562Z" fill="#E8D3B3"/>
<path d="M273.224 55.8542C283.015 55.8542 290.952 47.9362 290.952 38.1687C290.952 28.4012 283.015 20.4832 273.224 20.4832C263.434 20.4832 255.497 28.4012 255.497 38.1687C255.497 47.9362 263.434 55.8542 273.224 55.8542Z" fill="#764EB5"/>
<path d="M287.642 38.3234C287.729 30.3824 281.346 23.8753 273.386 23.7893C265.426 23.7034 258.904 30.0712 258.818 38.0122C258.731 45.9532 265.114 52.4603 273.074 52.5462C281.034 52.6322 287.556 46.2644 287.642 38.3234Z" fill="white"/>
<path d="M258.811 38.1686C258.811 38.5533 258.811 38.9316 258.857 39.3033C258.857 35.4983 260.372 31.8492 263.069 29.1586C265.766 26.4681 269.424 24.9566 273.237 24.9566C277.051 24.9566 280.709 26.4681 283.406 29.1586C286.103 31.8492 287.618 35.4983 287.618 39.3033C287.618 38.9316 287.664 38.5533 287.664 38.1686C287.664 34.355 286.145 30.6975 283.442 28.0009C280.739 25.3043 277.073 23.7893 273.251 23.7893C269.428 23.7893 265.762 25.3043 263.059 28.0009C260.356 30.6975 258.837 34.355 258.837 38.1686H258.811Z" fill="#FFDECB"/>
<path d="M272.231 38.8534C272.251 38.9064 272.282 38.9543 272.323 38.9938C272.364 39.0332 272.413 39.0632 272.466 39.0817L283.814 42.4662C283.86 42.4987 283.914 42.5198 283.97 42.5278C284.026 42.5358 284.083 42.5304 284.137 42.5122C284.19 42.4939 284.239 42.4633 284.278 42.4227C284.318 42.3822 284.347 42.3329 284.364 42.2789C284.381 42.2249 284.384 42.1677 284.375 42.112C284.365 42.0563 284.343 42.0036 284.309 41.9583C284.275 41.913 284.231 41.8763 284.18 41.8512C284.129 41.8262 284.073 41.8134 284.016 41.8141L272.95 38.4882L273.506 29.965C273.509 29.9182 273.503 29.8712 273.488 29.8267C273.473 29.7822 273.45 29.7411 273.419 29.7059C273.388 29.6707 273.35 29.642 273.307 29.6215C273.265 29.6011 273.219 29.5893 273.172 29.5868C273.077 29.5813 272.984 29.613 272.912 29.6751C272.84 29.7372 272.795 29.8248 272.787 29.9194L272.211 38.7295C272.21 38.7717 272.217 38.8137 272.231 38.8534Z" fill="#291D2C"/>
<path d="M243.064 16.3552H155.317C154.566 16.3552 153.957 16.9625 153.957 17.7116V62.708C153.957 63.4572 154.566 64.0645 155.317 64.0645H243.064C243.815 64.0645 244.424 63.4572 244.424 62.708V17.7116C244.424 16.9625 243.815 16.3552 243.064 16.3552Z" fill="#E8D3B3"/>
<path d="M243.064 13.9229H155.317C154.566 13.9229 153.957 14.5301 153.957 15.2793V60.2757C153.957 61.0248 154.566 61.6321 155.317 61.6321H243.064C243.815 61.6321 244.424 61.0248 244.424 60.2757V15.2793C244.424 14.5301 243.815 13.9229 243.064 13.9229Z" fill="#321745"/>
<path d="M241.319 17.0203H157.056V58.5409H241.319V17.0203Z" fill="#E8D3B3"/>
<path d="M239.992 57.2172V18.3442L158.376 18.3442V57.2172L239.992 57.2172Z" fill="white"/>
<path d="M236.096 21.5723H162.291V53.9892H236.096V21.5723Z" fill="#FF6635"/>
<path d="M216.075 41.5922C216.075 44.0428 215.346 46.4383 213.982 48.4759C212.617 50.5135 210.677 52.1016 208.408 53.0394C206.139 53.9772 203.641 54.2225 201.232 53.7444C198.823 53.2664 196.61 52.0863 194.873 50.3535C193.136 48.6207 191.953 46.4129 191.474 44.0094C190.995 41.606 191.241 39.1147 192.181 36.8506C193.121 34.5866 194.713 32.6515 196.755 31.29C198.798 29.9286 201.199 29.2019 203.655 29.2019C206.949 29.2019 210.108 30.5073 212.437 32.8309C214.766 35.1546 216.075 38.3061 216.075 41.5922Z" fill="white"/>
<path d="M204.328 43.7051C204.328 43.7051 217.859 34.2624 236.096 34.0994V53.9891H213.748L204.328 43.7051Z" fill="#00431F"/>
<path d="M162.291 41.8596C162.291 41.8596 176.672 34.7254 191.445 37.7773C207.198 41.0379 219.252 53.9891 219.252 53.9891H162.291V41.8596Z" fill="#006837"/>
<path d="M142.851 230.414C204.634 230.414 254.719 228.189 254.719 225.445C254.719 222.701 204.634 220.476 142.851 220.476C81.0686 220.476 30.9836 222.701 30.9836 225.445C30.9836 228.189 81.0686 230.414 142.851 230.414Z" fill="#C4AEE5"/>
<path d="M271.531 94.0489L258.053 168.013C257.822 169.539 257.062 170.936 255.904 171.959C254.747 172.983 253.265 173.569 251.719 173.614H49.0835C47.5372 173.569 46.0559 172.983 44.8983 171.959C43.7406 170.936 42.9801 169.539 42.7495 168.013L29.2971 94.0489C28.5193 89.7645 31.5719 85.78 35.6311 85.78H265.191C269.257 85.78 272.309 89.7645 271.531 94.0489Z" fill="#764EB5"/>
<path d="M267.041 92.6143H35.6834C35.5101 92.6143 35.3438 92.5456 35.2212 92.4233C35.0987 92.301 35.0298 92.1351 35.0298 91.9622C35.0298 91.7892 35.0987 91.6234 35.2212 91.5011C35.3438 91.3788 35.5101 91.3101 35.6834 91.3101H267.041C267.214 91.3101 267.38 91.3788 267.503 91.5011C267.626 91.6234 267.694 91.7892 267.694 91.9622C267.694 92.1351 267.626 92.301 267.503 92.4233C267.38 92.5456 267.214 92.6143 267.041 92.6143Z" fill="#C4AEE5"/>
<path d="M249.771 161.876H41.1284C39.7457 161.876 38.6249 162.994 38.6249 164.374V177.677C38.6249 179.057 39.7457 180.175 41.1284 180.175H249.771C251.154 180.175 252.275 179.057 252.275 177.677V164.374C252.275 162.994 251.154 161.876 249.771 161.876Z" fill="#977DB3"/>
<path d="M187.006 162.652C187.006 162.652 214.682 157.637 219.284 143.089C223.886 128.54 234.972 125.149 234.972 125.149L225.167 162.678L187.006 162.652Z" fill="#764EB5"/>
<path d="M104.926 162.652C104.926 162.652 77.2434 157.637 72.6481 143.089C68.0529 128.54 56.9602 125.149 56.9602 125.149L66.7651 162.678L104.926 162.652Z" fill="#764EB5"/>
<path d="M202.76 124.392C202.76 124.392 184.248 121.327 179.881 120.108C175.515 118.888 175.476 122.808 176.881 129.531C178.286 136.254 179.6 141.093 178.718 145.495C177.835 149.897 170.41 162.189 174.142 164.406C177.875 166.624 190.412 162.45 199.504 165.567C208.597 168.684 222.919 170.073 224.592 167.237C226.265 164.4 219.147 147.849 221.258 142.821C223.37 137.793 228.181 126.238 226.605 123.258C225.03 120.277 209.623 125.56 202.76 124.392Z" fill="#5F536F"/>
<path d="M201.622 145.032C201.622 145.485 201.488 145.927 201.235 146.304C200.983 146.68 200.625 146.973 200.206 147.147C199.787 147.32 199.325 147.365 198.88 147.277C198.435 147.189 198.026 146.971 197.705 146.65C197.385 146.33 197.166 145.922 197.078 145.478C196.989 145.034 197.034 144.574 197.208 144.156C197.382 143.738 197.676 143.38 198.053 143.129C198.43 142.877 198.874 142.743 199.328 142.743C199.936 142.743 200.52 142.984 200.95 143.413C201.38 143.843 201.622 144.425 201.622 145.032Z" fill="#977DB3"/>
<path d="M103.547 121.308C103.547 121.308 84.8911 119.286 80.4331 118.308C75.9752 117.33 76.1909 121.249 77.9688 127.881C79.7468 134.513 81.3352 139.28 80.6946 143.721C80.054 148.162 73.3344 160.826 77.2106 162.835C81.0868 164.843 93.343 159.939 102.605 162.574C111.868 165.209 126.235 165.769 127.739 162.841C129.242 159.913 121.202 143.786 123.045 138.654C124.889 133.522 129.026 121.699 127.288 118.823C125.549 115.947 110.436 122.064 103.547 121.308Z" fill="#5F536F"/>
<path d="M103.54 141.954C103.567 142.406 103.458 142.856 103.228 143.246C102.998 143.637 102.657 143.951 102.248 144.148C101.84 144.345 101.382 144.417 100.932 144.354C100.482 144.291 100.061 144.097 99.7225 143.795C99.3837 143.494 99.1421 143.099 99.0284 142.66C98.9147 142.222 98.934 141.76 99.0838 141.332C99.2336 140.904 99.5072 140.531 99.8699 140.258C100.233 139.986 100.668 139.827 101.122 139.802C101.728 139.77 102.322 139.978 102.775 140.381C103.228 140.784 103.503 141.349 103.54 141.954Z" fill="#977DB3"/>
<path d="M248.764 180.175H42.135C40.1964 180.175 38.6249 181.743 38.6249 183.677V194.971C38.6249 196.905 40.1964 198.473 42.135 198.473H248.764C250.703 198.473 252.275 196.905 252.275 194.971V183.677C252.275 181.743 250.703 180.175 248.764 180.175Z" fill="#764EB5"/>
<path d="M247.209 195.076H43.7038C43.5305 195.076 43.3642 195.007 43.2416 194.885C43.119 194.762 43.0502 194.597 43.0502 194.424C43.0502 194.251 43.119 194.085 43.2416 193.962C43.3642 193.84 43.5305 193.771 43.7038 193.771H247.209C247.382 193.771 247.548 193.84 247.671 193.962C247.793 194.085 247.862 194.251 247.862 194.424C247.862 194.597 247.793 194.762 247.671 194.885C247.548 195.007 247.382 195.076 247.209 195.076Z" fill="#C4AEE5"/>
<path d="M82.4269 198.467C82.4269 198.467 80.2567 205.431 74.511 205.431H51.9074C46.1551 205.431 43.985 198.499 43.985 198.499L82.4269 198.467Z" fill="#764EB5"/>
<path d="M60.2939 225.445L70.4648 205.399H53.7964L47.9462 225.445H60.2939Z" fill="#977DB3"/>
<path d="M207.368 198.467C207.368 198.467 209.538 205.431 215.284 205.431H237.887C243.633 205.431 245.81 198.499 245.81 198.499L207.368 198.467Z" fill="#764EB5"/>
<path d="M241.842 225.445L235.998 205.399H219.323L229.494 225.445H241.842Z" fill="#977DB3"/>
<path d="M145.453 159.561C145.28 159.561 145.113 159.492 144.991 159.37C144.868 159.248 144.799 159.082 144.799 158.909V91.9622C144.799 91.7892 144.868 91.6234 144.991 91.5011C145.113 91.3788 145.28 91.3101 145.453 91.3101C145.626 91.3101 145.793 91.3788 145.915 91.5011C146.038 91.6234 146.107 91.7892 146.107 91.9622V158.935C146.1 159.103 146.028 159.263 145.906 159.379C145.784 159.496 145.622 159.561 145.453 159.561Z" fill="#C4AEE5"/>
<path d="M20.0086 117.317H51.9531C52.8057 117.317 53.6341 117.599 54.3084 118.12C54.9827 118.64 55.4648 119.369 55.679 120.192L72.5108 184.511C72.6597 185.079 72.6761 185.674 72.5586 186.25C72.4411 186.825 72.1928 187.366 71.833 187.831C71.4732 188.296 71.0113 188.672 70.4829 188.931C69.9545 189.19 69.3736 189.324 68.7849 189.324H38.0628C37.2252 189.321 36.4115 189.045 35.7451 188.539C35.0786 188.033 34.5957 187.324 34.3696 186.52L16.3024 122.195C16.1419 121.624 16.1162 121.024 16.227 120.441C16.3378 119.859 16.5823 119.31 16.9413 118.837C17.3003 118.365 17.764 117.982 18.2961 117.718C18.8283 117.454 19.4144 117.317 20.0086 117.317Z" fill="#764EB5"/>
<path d="M64.3727 184.4H40.599C40.0972 184.4 39.6094 184.235 39.2096 183.933C38.8097 183.631 38.5196 183.206 38.3831 182.725L22.2115 125.149C22.1154 124.808 22.0999 124.449 22.1662 124.102C22.2326 123.754 22.3788 123.426 22.5936 123.144C22.8084 122.862 23.0858 122.634 23.404 122.477C23.7222 122.32 24.0725 122.239 24.4274 122.24H49.2993C49.8079 122.24 50.3021 122.408 50.7044 122.719C51.1067 123.029 51.3942 123.464 51.5217 123.955L66.5952 181.531C66.6842 181.87 66.6941 182.225 66.6241 182.568C66.5541 182.911 66.406 183.234 66.1913 183.511C65.9766 183.788 65.701 184.013 65.3857 184.167C65.0704 184.321 64.7239 184.401 64.3727 184.4ZM39.6512 182.372C39.7095 182.579 39.8336 182.76 40.0046 182.89C40.1756 183.019 40.3843 183.089 40.599 183.09H64.3727C64.5233 183.09 64.6719 183.055 64.807 182.989C64.9421 182.923 65.06 182.826 65.1517 182.707C65.2434 182.588 65.3063 182.449 65.3355 182.302C65.3648 182.154 65.3597 182.002 65.3205 181.857L50.2536 124.281C50.1965 124.072 50.0722 123.888 49.8998 123.756C49.7274 123.624 49.5165 123.552 49.2993 123.551H24.4601C24.3081 123.55 24.1579 123.585 24.0216 123.652C23.8852 123.719 23.7664 123.817 23.6745 123.938C23.5826 124.059 23.52 124.199 23.4919 124.348C23.4637 124.497 23.4707 124.651 23.5123 124.797L39.6839 182.372H39.6512Z" fill="#C4AEE5"/>
<path d="M47.5474 152.251C48.0508 155.048 46.8938 157.605 44.8936 157.957C42.8933 158.309 40.9258 156.32 40.4225 153.522C39.9192 150.725 41.0762 148.169 43.0764 147.816C45.0766 147.464 47.0441 149.447 47.5474 152.251Z" fill="#C4AEE5"/>
<path d="M271.937 117.317H240.018C239.166 117.317 238.337 117.599 237.663 118.12C236.989 118.64 236.507 119.369 236.292 120.192L219.461 184.511C219.312 185.079 219.295 185.674 219.413 186.25C219.53 186.825 219.779 187.366 220.138 187.831C220.498 188.296 220.96 188.672 221.489 188.931C222.017 189.19 222.598 189.324 223.187 189.324H253.909C254.749 189.323 255.567 189.048 256.236 188.541C256.905 188.033 257.389 187.321 257.615 186.513L275.682 122.194C275.844 121.62 275.869 121.017 275.756 120.431C275.643 119.846 275.395 119.295 275.031 118.822C274.668 118.348 274.199 117.966 273.662 117.705C273.125 117.444 272.534 117.311 271.937 117.317Z" fill="#764EB5"/>
<path d="M251.346 184.4H227.599C227.248 184.401 226.901 184.321 226.586 184.167C226.271 184.013 225.995 183.788 225.78 183.511C225.566 183.234 225.417 182.911 225.347 182.568C225.277 182.225 225.287 181.87 225.376 181.531L240.443 123.955C240.573 123.464 240.862 123.03 241.265 122.719C241.668 122.409 242.163 122.241 242.672 122.24H267.544C267.899 122.239 268.249 122.32 268.568 122.477C268.886 122.634 269.163 122.862 269.378 123.144C269.593 123.426 269.739 123.754 269.805 124.102C269.872 124.449 269.856 124.808 269.76 125.149L253.588 182.725C253.451 183.211 253.157 183.638 252.752 183.941C252.346 184.244 251.853 184.405 251.346 184.4ZM242.633 123.551C242.416 123.551 242.204 123.622 242.031 123.754C241.859 123.887 241.735 124.072 241.679 124.281L226.612 181.857C226.573 182.002 226.568 182.154 226.597 182.302C226.626 182.449 226.689 182.588 226.781 182.707C226.872 182.826 226.99 182.923 227.125 182.989C227.26 183.055 227.409 183.09 227.56 183.09H251.333C251.548 183.089 251.757 183.019 251.928 182.89C252.099 182.76 252.223 182.579 252.281 182.372L268.453 124.797C268.495 124.65 268.502 124.496 268.474 124.347C268.445 124.197 268.382 124.056 268.289 123.936C268.197 123.816 268.078 123.719 267.942 123.652C267.806 123.585 267.656 123.551 267.505 123.551H242.633Z" fill="#C4AEE5"/>
<path d="M251.514 153.518C252.016 150.717 250.827 148.162 248.859 147.811C246.89 147.459 244.887 149.445 244.385 152.246C243.883 155.047 245.072 157.602 247.04 157.953C249.009 158.304 251.012 156.319 251.514 153.518Z" fill="#C4AEE5"/>
<path d="M99.8013 260.301C99.8013 262.655 78.7991 264.559 52.8944 264.559C26.9898 264.559 6.0072 262.655 6.0072 260.301C6.0072 257.947 27.0094 256.049 52.9206 256.049C78.8318 256.049 99.8013 257.953 99.8013 260.301Z" fill="#C4AEE5"/>
<path d="M101.246 206.964C100.734 198.77 98.2183 190.826 93.9183 183.827C93.3213 182.861 92.6959 181.916 92.0422 180.99C89.8361 177.892 87.2907 175.048 84.4532 172.512C83.7996 171.932 83.1459 171.365 82.453 170.817C80.0545 168.889 77.486 167.183 74.779 165.717L74.0861 165.352C73.6482 165.124 73.2102 164.902 72.7788 164.7C70.2966 163.501 67.7189 162.511 65.0721 161.739C64.4185 161.544 63.7648 161.361 63.0654 161.191C60.4891 160.552 57.8663 160.116 55.2214 159.887C54.5678 159.829 53.9141 159.783 53.2081 159.75C52.3584 159.711 51.5086 159.685 50.6523 159.685C48.7633 159.687 46.8758 159.792 44.9981 159.998C44.3445 160.076 43.6189 160.161 42.9326 160.265C39.756 160.755 36.6328 161.544 33.6048 162.62C32.8073 162.907 32.0164 163.213 31.232 163.533C19.2681 168.505 9.65852 177.847 4.36647 189.65C4.02656 190.413 3.7128 191.183 3.39904 191.965C2.26255 194.898 1.40466 197.93 0.836687 201.023C0.712492 201.675 0.60137 202.379 0.503321 203.064C0.170165 205.426 0.00198588 207.807 0 210.192C0 210.466 0 210.74 0 211.007C0 211.659 0.0392191 212.357 0.0784388 213.029C0.217692 215.581 0.552031 218.118 1.07854 220.619C1.22235 221.311 1.37923 221.995 1.55572 222.68C2.22302 225.267 3.09738 227.797 4.17037 230.245C4.47977 230.962 4.8066 231.673 5.15086 232.377C5.37964 232.84 5.61496 233.303 5.85682 233.76C7.03404 235.982 8.37558 238.114 9.87031 240.137C10.4128 240.881 10.9815 241.605 11.5633 242.315C14.0099 245.272 16.7814 247.945 19.8256 250.284C20.7473 251.008 21.6951 251.732 22.7148 252.384C29.7458 257.042 37.8379 259.86 46.2466 260.581C47.7108 260.712 49.1925 260.777 50.6915 260.777C64.1312 260.775 77.0198 255.448 86.5224 245.966C96.025 236.485 101.363 223.626 101.363 210.218C101.35 209.109 101.311 208.04 101.246 206.964Z" fill="#9763A1"/>
<path d="M33.6309 162.574C32.8335 162.861 32.0425 163.167 31.2581 163.487C28.9246 170.941 25.166 176.973 19.989 181.531C15.4784 185.403 10.1316 188.181 4.36647 189.65C4.02657 190.413 3.71281 191.183 3.39905 191.965C10.0132 190.508 16.165 187.446 21.3094 183.051C27.127 177.938 31.2385 171.084 33.6309 162.574Z" fill="#54357C"/>
<path d="M29.5782 191.965C38.0758 184.57 43.2136 173.843 45.0243 159.952C44.3706 160.031 43.645 160.115 42.9587 160.22C41.1546 173.347 36.2325 183.474 28.2644 190.433C19.819 197.808 9.42579 200.214 2.18321 200.899C1.73218 200.945 1.28115 200.977 0.836663 201.01C0.712467 201.662 0.601345 202.366 0.503296 203.051C1.09813 203.012 1.6995 202.966 2.31394 202.908C9.86374 202.171 20.7145 199.706 29.5782 191.965Z" fill="#54357C"/>
<path d="M8.38001 212.709C16.5312 211.907 28.271 209.214 37.8602 200.886C48.3188 191.789 54.2018 178.01 55.2476 159.842C54.594 159.783 53.9403 159.737 53.2343 159.705C52.1885 177.312 46.5997 190.622 36.5463 199.36C27.3951 207.323 16.0932 209.924 8.24274 210.701C5.50609 210.969 2.75566 211.071 0.0065918 211.007C0.0065918 211.659 0.0458109 212.357 0.0850306 213.029H1.52309C3.55598 213.042 5.87648 212.957 8.38001 212.709Z" fill="#54357C"/>
<path d="M14.4394 222.497C19.7914 221.991 25.0605 220.827 30.1273 219.035C35.989 216.968 41.4182 213.839 46.142 209.807C58.2282 199.373 64.5818 183.207 65.0982 161.713C64.4446 161.517 63.7909 161.335 63.0915 161.165C62.6993 182.314 56.5549 198.147 44.8609 208.275C34.9579 216.83 22.7932 219.641 14.3348 220.489C9.93985 220.929 5.51402 220.973 1.11121 220.619C1.25501 221.31 1.41189 221.995 1.58838 222.68C3.03298 222.784 4.85669 222.869 6.91573 222.869C9.12511 222.869 11.6744 222.771 14.4394 222.497Z" fill="#54357C"/>
<path d="M20.5054 232.286C26.2322 231.737 31.8698 230.489 37.2915 228.569C43.5587 226.36 49.3675 223.025 54.4305 218.728C67.5037 207.473 74.3607 189.97 74.7659 166.676C74.3541 165.848 74.1123 165.372 74.1123 165.372C73.6743 165.143 73.2364 164.922 72.8049 164.719C72.7657 188.392 66.1637 206.051 53.1951 217.228C42.5665 226.358 29.5129 229.384 20.44 230.31C15.0481 230.867 9.61231 230.856 4.22266 230.277C4.53206 230.995 4.85889 231.705 5.20315 232.41C6.88306 232.573 9.3343 232.736 12.3281 232.736C15.0597 232.722 17.7888 232.572 20.5054 232.286Z" fill="#54357C"/>
<path d="M44.4556 238.109C51.1281 235.767 57.317 232.231 62.719 227.675C73.2429 218.676 79.9822 205.927 82.8649 189.637C82.976 189.017 83.0806 188.385 83.1786 187.759C83.9444 182.711 84.3681 177.617 84.4467 172.512C83.7931 171.932 83.1394 171.364 82.4465 170.817C82.4204 174.903 82.2025 178.816 81.7928 182.555C81.7209 183.207 81.6425 183.859 81.5641 184.511C79.2828 202.614 72.5304 216.563 61.392 226.097C50.0314 235.814 36.0953 239.048 26.408 240.046C22.2544 240.472 18.075 240.594 13.9034 240.411H13.6485C12.0863 240.333 10.792 240.228 9.82458 240.131C10.3671 240.874 10.9358 241.598 11.5176 242.309C13.1452 242.426 15.2042 242.524 17.5966 242.524H18.3287C20.78 242.524 23.558 242.38 26.5453 242.074C32.6549 241.484 38.6695 240.153 44.4556 238.109Z" fill="#54357C"/>
<path d="M71.0139 236.577C84.78 224.839 92.4605 207.134 93.892 183.827C93.295 182.862 92.6697 181.916 92.016 180.99C91.3624 196.641 88.0025 209.742 81.93 220.254C78.7309 225.846 74.5892 230.844 69.6869 235.031C65.0525 238.945 59.8374 242.117 54.2278 244.435C47.278 247.29 39.9469 249.116 32.4674 249.854C28.2532 250.29 24.0139 250.434 19.7798 250.284C20.7472 251.008 21.695 251.732 22.7147 252.384H23.0023C26.227 252.386 29.4495 252.221 32.6569 251.889C39.1231 251.25 45.4881 249.833 51.6131 247.669C58.7001 245.175 65.2738 241.416 71.0139 236.577Z" fill="#54357C"/>
<path d="M100.416 200.488C97.461 219.243 89.957 233.818 78.0146 243.959C65.5819 254.51 50.4562 258.253 39.5792 259.557C41.7721 260.046 43.9951 260.388 46.2335 260.581C50.5026 259.791 54.7016 258.661 58.7904 257.203C66.2793 254.575 73.2305 250.618 79.3088 245.524C90.2969 236.205 97.6114 223.3 101.246 206.99C101.111 204.807 100.834 202.635 100.416 200.488Z" fill="#54357C"/>
<path d="M359.717 238.357C404.608 238.357 441 235.773 441 232.586C441 229.398 404.608 226.814 359.717 226.814C314.826 226.814 278.434 229.398 278.434 232.586C278.434 235.773 314.826 238.357 359.717 238.357Z" fill="#C4AEE5"/>
<path d="M396.825 100.701C396.825 100.701 373.607 49.5874 396.499 45.6094C413.991 42.5771 412.056 77.7786 396.825 100.701Z" fill="#006837"/>
<path d="M396.446 133.6C396.346 133.597 396.25 133.555 396.18 133.484C396.109 133.412 396.069 133.316 396.067 133.216C396.25 115.745 397.538 66.6991 397.551 66.2296C397.552 66.1794 397.563 66.1298 397.583 66.0838C397.603 66.0378 397.633 65.9963 397.669 65.9617C397.706 65.9271 397.749 65.9001 397.796 65.8823C397.843 65.8644 397.893 65.8562 397.943 65.8579C398.044 65.8613 398.14 65.9042 398.21 65.9774C398.28 66.0506 398.318 66.1482 398.316 66.2492C398.316 66.7383 397.009 115.758 396.832 133.222C396.83 133.323 396.789 133.419 396.717 133.49C396.645 133.561 396.548 133.6 396.446 133.6Z" fill="#00431F"/>
<path d="M391.531 114.304C391.531 114.304 356.586 81.2217 369.182 68.1857C383.079 53.813 393.688 90.7752 391.531 114.304Z" fill="#006837"/>
<path d="M395.27 130.613C395.174 130.614 395.081 130.577 395.011 130.512C394.94 130.447 394.897 130.357 394.891 130.261C393.786 116.254 379.798 85.5649 379.654 85.2649C379.613 85.1721 379.61 85.0673 379.646 84.9724C379.681 84.8776 379.752 84.8001 379.843 84.7562C379.935 84.7162 380.039 84.7135 380.133 84.7488C380.227 84.7841 380.304 84.8546 380.347 84.9453C380.49 85.2584 394.538 116.065 395.649 130.209C395.653 130.259 395.648 130.309 395.633 130.357C395.618 130.404 395.594 130.448 395.561 130.486C395.529 130.525 395.49 130.556 395.445 130.579C395.401 130.602 395.352 130.616 395.302 130.62L395.27 130.613Z" fill="#00431F"/>
<path d="M402.316 113.437C402.316 113.437 438.836 82.076 426.887 68.4401C413.71 53.4218 401.31 89.8297 402.316 113.437Z" fill="#006837"/>
<path d="M397.812 129.537H397.76C397.661 129.524 397.57 129.472 397.509 129.393C397.448 129.313 397.42 129.213 397.433 129.114C399.231 115.041 414.762 84.9453 414.919 84.6453C414.975 84.5801 415.051 84.5358 415.136 84.5198C415.221 84.5038 415.308 84.517 415.384 84.5572C415.46 84.5974 415.52 84.6623 415.555 84.7411C415.589 84.82 415.595 84.9081 415.572 84.9909C415.416 85.2909 399.95 115.269 398.165 129.205C398.155 129.293 398.114 129.374 398.049 129.435C397.985 129.496 397.901 129.532 397.812 129.537Z" fill="#00431F"/>
<path d="M416.841 121.021L416.305 122.449L415.958 123.355L414.984 125.964L414.638 126.87L413.631 129.531L413.291 130.437L408.977 141.869H385.406L381.092 130.437L380.752 129.531L379.745 126.87L379.405 125.964L378.425 123.355L378.085 122.449L377.542 121.021C377.457 120.794 377.427 120.551 377.457 120.31C377.487 120.07 377.574 119.84 377.713 119.642C377.851 119.443 378.036 119.28 378.251 119.168C378.466 119.056 378.705 118.998 378.948 118.999H415.435C415.678 118.998 415.917 119.056 416.132 119.168C416.348 119.28 416.532 119.443 416.671 119.642C416.809 119.84 416.897 120.07 416.926 120.31C416.956 120.551 416.926 120.794 416.841 121.021Z" fill="#491B0B"/>
<path d="M416.298 122.449L415.958 123.355H378.418L378.078 122.449H416.298Z" fill="white"/>
<path d="M414.978 125.951L414.638 126.857H379.745L379.399 125.951H414.978Z" fill="white"/>
<path d="M413.631 129.518L413.291 130.424H381.092L380.745 129.518H413.631Z" fill="white"/>
<path d="M335.538 119.756H340.061C340.061 119.756 340.284 119.306 340.669 118.451C340.857 118.06 341.075 117.591 341.323 117.043C341.977 115.68 342.813 113.854 343.787 111.695V111.643C349.886 98.1182 360.822 71.8638 356.351 66.6468C351.265 60.7125 345.238 69.5944 340.794 86.4127C340.493 87.5691 340.199 88.7603 339.911 89.9863C338.174 97.63 336.903 105.372 336.107 113.169C335.97 114.473 335.845 115.745 335.728 117.049C335.688 117.962 335.61 118.856 335.538 119.756Z" fill="#006837"/>
<path d="M335.767 117.076L337.133 119.756H340.061C340.061 119.756 340.284 119.306 340.676 118.452L340.833 86.4062C338.312 96.475 336.617 106.732 335.767 117.076Z" fill="#00431F"/>
<path d="M336.963 119.756H337.702L351.945 73.2006C351.959 73.1561 351.964 73.1092 351.96 73.0627C351.956 73.0162 351.942 72.971 351.92 72.9298C351.899 72.8885 351.869 72.852 351.832 72.8224C351.796 72.7927 351.755 72.7706 351.71 72.7572C351.621 72.7325 351.525 72.7431 351.444 72.7869C351.362 72.8306 351.3 72.9041 351.272 72.9919L336.963 119.756Z" fill="#00431F"/>
<path d="M323.981 110.306C324.315 111.056 324.635 111.774 324.949 112.458C325.785 114.297 326.517 115.869 327.08 117.075C327.877 118.777 328.354 119.756 328.354 119.756H332.878C332.806 118.856 332.734 117.962 332.655 117.075C332.542 115.828 332.42 114.595 332.289 113.378C331.514 105.739 330.288 98.1525 328.616 90.6579C328.38 89.6211 328.139 88.6103 327.89 87.6321C323.458 70.0248 317.229 60.5951 312.032 66.6664C307.705 71.7464 317.804 96.4488 323.981 110.306Z" fill="#006837"/>
<path d="M332.655 117.075L331.289 119.756H328.354L327.746 118.451L327.609 86.4387C330.119 96.498 331.807 106.744 332.655 117.075Z" fill="#00431F"/>
<path d="M331.453 119.756H330.714L316.497 73.2006C316.469 73.1551 316.452 73.1039 316.447 73.0509C316.442 72.9978 316.449 72.9444 316.468 72.8945C316.487 72.8446 316.516 72.7996 316.555 72.7628C316.594 72.7261 316.64 72.6985 316.691 72.6823C316.742 72.666 316.796 72.6615 316.849 72.6691C316.901 72.6766 316.952 72.696 316.996 72.7258C317.04 72.7556 317.077 72.7951 317.104 72.8412C317.131 72.8872 317.147 72.9388 317.151 72.9919L331.453 119.756Z" fill="#00431F"/>
<path d="M328.616 90.658C329.269 99.5595 330.126 107.887 330.753 113.332C331.211 117.31 331.538 119.749 331.538 119.749H335.545C336.011 117.51 336.447 115.297 336.852 113.111C338.323 105.005 339.375 97.1792 339.95 90.0059C342.29 62.4472 338.643 43.7053 331.891 48.7005C327.067 52.2872 327.341 72.6529 328.616 90.658Z" fill="#006837"/>
<path d="M324.949 112.458C325.785 114.297 326.518 115.869 327.08 117.075C327.877 118.777 328.354 119.756 328.354 119.756H340.061C340.061 119.756 340.284 119.306 340.669 118.451C340.857 118.06 341.075 117.591 341.323 117.043C341.977 115.68 342.813 113.854 343.787 111.695C341.509 112.349 339.181 112.814 336.826 113.084L336.133 113.163C334.851 113.288 333.564 113.349 332.276 113.345C331.773 113.345 331.263 113.345 330.74 113.306C328.785 113.224 326.845 112.94 324.949 112.458Z" fill="#00431F"/>
<path d="M333.884 57.3084L334.361 119.756H335.067L334.59 57.3084C334.589 57.2156 334.551 57.127 334.485 57.0613C334.419 56.9956 334.33 56.958 334.237 56.9563C334.144 56.9563 334.054 56.9934 333.988 57.0594C333.921 57.1255 333.884 57.215 333.884 57.3084Z" fill="#00431F"/>
<path d="M313.778 119.273L314.359 120.825L314.732 121.803L315.791 124.614L316.164 125.599L317.255 128.488L317.628 129.466L322.301 141.856H347.873L352.546 129.466L352.919 128.488L354.011 125.599L354.377 124.614L355.442 121.803L355.808 120.825L356.396 119.273C356.49 119.027 356.521 118.763 356.489 118.502C356.457 118.241 356.362 117.992 356.213 117.776C356.063 117.56 355.863 117.383 355.63 117.261C355.396 117.139 355.137 117.075 354.873 117.075H315.301C315.037 117.075 314.778 117.139 314.545 117.261C314.311 117.383 314.111 117.56 313.961 117.776C313.812 117.992 313.717 118.241 313.685 118.502C313.653 118.763 313.685 119.027 313.778 119.273Z" fill="#8A2A34"/>
<path d="M314.359 120.825L314.732 121.803H355.416L355.788 120.825H314.359Z" fill="white"/>
<path d="M315.791 124.614L316.163 125.599H353.984L354.357 124.614H315.791Z" fill="white"/>
<path d="M317.255 128.488L317.621 129.466H352.527L352.893 128.488H317.255Z" fill="white"/>
<path d="M302.822 156.405H422.22C422.408 156.405 422.594 156.368 422.767 156.296C422.94 156.224 423.098 156.119 423.23 155.986C423.363 155.853 423.467 155.696 423.539 155.523C423.61 155.35 423.646 155.164 423.645 154.977V149.76H301.41V154.977C301.41 155.352 301.558 155.712 301.823 155.98C302.087 156.247 302.446 156.4 302.822 156.405Z" fill="#764EB5"/>
<path d="M299.057 144.536V147.106C299.057 148.586 299.855 149.786 300.842 149.786H425.292C426.279 149.786 427.083 148.586 427.083 147.106V144.536C427.083 143.056 426.279 141.856 425.292 141.856H300.842C299.855 141.856 299.057 143.056 299.057 144.536Z" fill="#C4AEE5"/>
<path d="M427.077 145.821H299.051V147.001H427.077V145.821Z" fill="#A7A0B0"/>
<path d="M316.399 153.125L296.207 232.788H301.286L324.178 156.144L316.399 153.125Z" fill="#764EB5"/>
<path d="M409.735 153.125L429.92 232.788H424.848L401.859 155.825L409.735 153.125Z" fill="#764EB5"/>
<path d="M418.579 192.63C418.459 192.63 418.338 192.617 418.22 192.591L312.575 169.949C312.13 169.854 311.742 169.587 311.495 169.206C311.248 168.825 311.162 168.362 311.258 167.918C311.353 167.474 311.621 167.087 312.003 166.84C312.385 166.594 312.849 166.509 313.294 166.604L418.945 189.246C419.365 189.328 419.739 189.565 419.992 189.908C420.246 190.252 420.362 190.678 420.317 191.102C420.272 191.526 420.069 191.918 419.749 192.201C419.428 192.484 419.014 192.637 418.586 192.63H418.579Z" fill="#C4AEE5"/>
<path d="M306.47 194.013C306.042 194.02 305.627 193.867 305.307 193.584C304.987 193.301 304.784 192.909 304.739 192.484C304.694 192.06 304.81 191.634 305.063 191.291C305.317 190.947 305.691 190.711 306.11 190.628L413.474 167.608C413.919 167.513 414.383 167.598 414.765 167.845C415.147 168.091 415.415 168.479 415.51 168.922C415.606 169.366 415.521 169.829 415.274 170.21C415.027 170.591 414.638 170.859 414.193 170.954L306.836 193.974C306.715 193.999 306.593 194.012 306.47 194.013Z" fill="#C4AEE5"/>
<path d="M428.6 262.903C428.6 265.081 417.775 266.848 404.415 266.848C391.054 266.848 380.229 265.081 380.229 262.903C380.229 260.725 391.054 258.99 404.415 258.99C417.775 258.99 428.6 260.731 428.6 262.903Z" fill="#CAB9EA"/>
<path d="M381.778 223.332C382.916 233.72 388.583 241.142 397.943 240.287C397.943 240.287 405.218 233.916 400.78 223.332C399.322 219.863 397.375 216.159 395.649 212.37C392.106 204.623 389.485 196.556 393.923 189.546C393.923 189.546 385.426 194.887 382.366 211.066C381.564 215.103 381.366 219.237 381.778 223.332Z" fill="#00431F"/>
<path d="M409.526 238.422C409.696 238.69 409.873 238.931 410.043 239.153C410.526 239.81 411.113 240.385 411.781 240.855C411.781 240.855 427.561 237.529 424.966 224.258C424.718 222.968 424.578 221.659 424.547 220.346C424.227 208.34 432.607 196.458 437.921 190.42C437.921 190.42 421.671 194.059 411.775 214.379C411.324 215.305 410.918 216.198 410.546 217.059C405.532 228.804 407.493 235.292 409.526 238.422Z" fill="#00431F"/>
<path d="M396.061 209.155C396.109 210.871 396.257 212.582 396.505 214.281C398.466 228.627 394.714 233.29 398.166 238.611C399.728 241.024 400.375 241.631 403.022 241.513C403.388 241.513 403.748 241.468 404.101 241.429C405.826 241.226 407.521 240.826 409.154 240.235C409.154 240.235 417.789 237.262 415.435 216.276C415.167 213.883 414.736 211.796 414.742 209.918C414.775 199.445 414.403 197.528 418.527 184.283C419.835 180.149 423.417 171.893 423.417 171.893C423.417 171.893 413.527 174.456 407.382 180.84C397.264 191.339 395.806 198.852 396.061 209.155Z" fill="#006837"/>
<path d="M403.022 241.513C403.388 241.513 403.748 241.468 404.101 241.429C405.513 239.511 407.265 236.212 408.676 230.551C410.239 224.408 409.435 219.38 408.591 214.059C407.899 209.709 407.179 205.21 407.748 199.81C408.977 188.124 413.33 183.911 413.376 183.872C413.449 183.798 413.489 183.699 413.489 183.595C413.489 183.492 413.449 183.392 413.376 183.318C413.34 183.281 413.296 183.253 413.249 183.233C413.201 183.213 413.15 183.203 413.098 183.203C413.047 183.203 412.996 183.213 412.948 183.233C412.9 183.253 412.857 183.281 412.821 183.318C412.631 183.494 408.245 187.733 406.938 199.745C406.356 205.249 407.081 209.801 407.781 214.202C408.618 219.419 409.402 224.389 407.879 230.382C406.376 236.512 404.421 239.811 403.022 241.513Z" fill="#00431F"/>
<path d="M426.639 239.544L426.025 241.181L425.632 242.218L424.515 245.211L424.123 246.248L422.972 249.293L422.58 250.33L418.959 259.923C418.573 260.945 417.884 261.827 416.984 262.449C416.083 263.071 415.014 263.405 413.919 263.405H394.407C393.312 263.405 392.243 263.071 391.342 262.449C390.442 261.827 389.753 260.945 389.367 259.923L385.746 250.33L385.354 249.293L384.203 246.248L383.824 245.211L382.706 242.244L382.314 241.207L381.7 239.57C381.601 239.311 381.567 239.033 381.601 238.758C381.634 238.483 381.734 238.221 381.891 237.993C382.049 237.765 382.26 237.579 382.505 237.451C382.751 237.322 383.024 237.255 383.301 237.255H425.051C425.324 237.258 425.592 237.327 425.833 237.455C426.074 237.583 426.281 237.767 426.436 237.991C426.592 238.215 426.691 238.473 426.727 238.743C426.762 239.013 426.732 239.288 426.639 239.544Z" fill="#491B0B"/>
<path d="M426.018 241.181L425.632 242.218H382.687L382.301 241.181H426.018Z" fill="white"/>
<path d="M424.508 245.185L424.116 246.222H384.203L383.811 245.185H424.508Z" fill="white"/>
<path d="M422.965 249.267L422.58 250.304H385.739L385.354 249.267H422.965Z" fill="white"/>
<path d="M232.037 272C309.834 272 372.901 266.748 372.901 260.268C372.901 253.789 309.834 248.537 232.037 248.537C154.24 248.537 91.1729 253.789 91.1729 260.268C91.1729 266.748 154.24 272 232.037 272Z" fill="#FCACE7"/>
<path d="M232.854 268.413C305.482 268.413 364.358 264.311 364.358 259.251C364.358 254.191 305.482 250.089 232.854 250.089C160.227 250.089 101.35 254.191 101.35 259.251C101.35 264.311 160.227 268.413 232.854 268.413Z" fill="#FD71C1"/>
<path d="M232.037 263.072C291.881 263.072 340.395 260.722 340.395 257.823C340.395 254.924 291.881 252.573 232.037 252.573C172.193 252.573 123.679 254.924 123.679 257.823C123.679 260.722 172.193 263.072 232.037 263.072Z" fill="#EC33A2"/>
<path d="M204.132 135.889C204.08 137.297 203.907 138.697 203.616 140.076C203.131 142.319 202.453 144.516 201.59 146.643C200.812 148.599 199.962 150.444 199.079 152.205C198.197 153.966 197.269 155.655 196.321 157.305C194.419 160.604 192.399 163.748 190.34 166.813C189.307 168.347 188.25 169.869 187.17 171.378C186.627 172.127 186.085 172.877 185.529 173.621L184.686 174.742L184.254 175.31L184.032 175.603L183.777 175.923L167.71 162.496L167.782 162.417L167.874 162.313L168.07 162.098L168.462 161.648L169.266 160.728C169.802 160.076 170.338 159.476 170.867 158.837C171.926 157.572 172.972 156.287 173.992 154.99C176.031 152.381 177.992 149.773 179.783 147.119C180.672 145.814 181.529 144.471 182.313 143.16C183.097 141.849 183.816 140.552 184.418 139.306C184.692 138.752 184.934 138.204 185.15 137.682C184.248 137.748 183.28 137.852 182.3 137.989C180.79 138.198 179.234 138.478 177.652 138.811C174.502 139.463 171.279 140.323 168.063 141.269C166.455 141.739 164.847 142.241 163.246 142.762C162.442 143.023 161.644 143.284 160.853 143.558L159.664 143.969L158.533 144.367L152.918 130.939L154.225 130.359L155.487 129.805L158.003 128.735C159.69 128.038 161.376 127.359 163.089 126.707C166.507 125.403 169.985 124.17 173.613 123.094C175.43 122.56 177.286 122.058 179.228 121.627C181.268 121.159 183.335 120.817 185.418 120.603C186.612 120.485 187.813 120.434 189.013 120.453C190.506 120.476 191.992 120.66 193.445 121.001C194.399 121.232 195.329 121.553 196.223 121.96C196.766 122.207 197.293 122.49 197.798 122.808C198.372 123.169 198.918 123.572 199.432 124.014C199.7 124.255 199.968 124.503 200.223 124.777C200.354 124.907 200.485 125.051 200.609 125.194L200.799 125.409L200.89 125.52L200.962 125.618C201.359 126.112 201.722 126.633 202.047 127.177C202.654 128.2 203.128 129.295 203.459 130.437C203.745 131.399 203.937 132.386 204.034 133.385C204.125 134.216 204.158 135.053 204.132 135.889Z" fill="#D07B5C"/>
<path d="M189.915 139.678C189.769 139.677 189.629 139.621 189.523 139.521C188.033 138.132 185.601 138.217 185.601 138.217C185.451 138.223 185.304 138.169 185.193 138.068C185.082 137.966 185.015 137.826 185.006 137.676C185.002 137.601 185.012 137.526 185.037 137.455C185.062 137.384 185.101 137.319 185.152 137.263C185.202 137.207 185.263 137.162 185.331 137.13C185.399 137.098 185.473 137.079 185.549 137.076C185.666 137.076 188.471 136.946 190.32 138.68C190.427 138.787 190.487 138.931 190.487 139.081C190.487 139.232 190.427 139.376 190.32 139.482C190.271 139.542 190.209 139.59 190.139 139.623C190.069 139.657 189.993 139.676 189.915 139.678Z" fill="#310F0B"/>
<path d="M188.039 141.38C187.917 141.379 187.799 141.341 187.7 141.269C187.602 141.198 187.528 141.098 187.49 140.982C187.084 139.963 186.449 139.051 185.634 138.315C185.572 138.266 185.521 138.204 185.484 138.134C185.447 138.064 185.425 137.987 185.419 137.908C185.413 137.829 185.424 137.75 185.451 137.675C185.477 137.6 185.519 137.532 185.573 137.474C185.627 137.417 185.693 137.371 185.766 137.339C185.839 137.308 185.918 137.292 185.997 137.293C186.076 137.294 186.155 137.31 186.227 137.343C186.3 137.375 186.365 137.422 186.418 137.48C187.377 138.346 188.119 139.425 188.582 140.63C188.605 140.701 188.614 140.776 188.608 140.851C188.603 140.925 188.582 140.998 188.548 141.065C188.514 141.131 188.467 141.191 188.41 141.239C188.353 141.288 188.287 141.325 188.216 141.347C188.159 141.368 188.099 141.379 188.039 141.38Z" fill="#310F0B"/>
<path d="M339.532 205.458L334.29 214.529L324.942 211.359L319.569 209.533L325.223 199.099L330.609 201.493L339.532 205.458Z" fill="#D07B5C"/>
<path d="M366.829 191.319L347.016 225.647C346.254 225.579 345.514 225.357 344.84 224.995C341.807 223.534 337.695 219.941 335.035 217.822L334.146 217.117C333.688 216.778 333.303 216.504 333.008 216.328C330.616 214.959 332.244 213.068 332.244 213.068C337.662 211.555 334.812 204.681 337.819 203.351L338.166 203.208C338.414 203.103 338.819 202.96 339.362 202.751C340.192 202.445 341.414 202.021 343.134 201.447C347.16 200.143 351.461 196.432 355.39 193.439C355.874 193.067 356.344 192.728 356.789 192.428C357.233 192.128 357.442 191.972 357.789 191.776C361.43 189.526 363.672 189.454 365.064 189.917C365.808 190.147 366.438 190.647 366.829 191.319Z" fill="white"/>
<path d="M357.808 191.795C357.965 193.132 358.129 195.956 357.063 197.378C356.655 197.827 356.194 198.226 355.69 198.564C353.297 200.214 350.818 201.738 348.265 203.129C346.14 204.323 344.127 205.366 342.598 206.064C340.094 207.212 339.388 207.251 339.002 207.114C337.806 206.69 337.872 204.831 338.185 203.201C338.434 203.097 338.839 202.953 339.382 202.745C338.97 204.486 338.931 205.94 339.342 206.109C339.839 206.168 342.513 205.157 347.918 202.119C352.043 199.797 355.684 197.43 356.207 196.725C356.9 195.799 356.919 193.837 356.808 192.434C357.155 192.219 357.488 191.998 357.808 191.795Z" fill="#BACAD2"/>
<path d="M366.829 191.32L347.016 225.647C346.254 225.579 345.514 225.357 344.84 224.995L365.103 189.937C365.829 190.17 366.444 190.662 366.829 191.32Z" fill="#BACAD2"/>
<path d="M349.036 222.139L348.448 223.156C348.074 222.07 347.489 221.069 346.726 220.21C345.963 219.35 345.038 218.649 344.003 218.148C342.613 217.477 341.098 217.1 339.555 217.04C338.012 216.981 336.473 217.24 335.035 217.802C334.721 217.554 334.427 217.319 334.159 217.117C335.782 216.401 337.543 216.047 339.318 216.079C341.092 216.112 342.839 216.531 344.434 217.306C346.497 218.318 348.129 220.032 349.036 222.139Z" fill="#BACAD2"/>
<path d="M344.846 203.221C344.773 203.348 344.659 203.446 344.523 203.501C344.386 203.555 344.235 203.562 344.095 203.521C343.928 203.472 343.788 203.36 343.704 203.208C343.621 203.056 343.602 202.878 343.65 202.712L344.349 200.26C344.398 200.093 344.511 199.952 344.664 199.869C344.816 199.785 344.996 199.765 345.163 199.813C345.331 199.862 345.472 199.974 345.556 200.127C345.64 200.279 345.66 200.458 345.611 200.625L344.905 203.071C344.892 203.123 344.873 203.173 344.846 203.221Z" fill="#BACAD2"/>
<path d="M341.826 204.323C341.748 204.464 341.62 204.571 341.467 204.623C341.314 204.676 341.147 204.67 340.998 204.606C340.85 204.543 340.73 204.427 340.662 204.281C340.594 204.134 340.582 203.968 340.63 203.814L341.336 201.362C341.385 201.198 341.496 201.059 341.647 200.976C341.797 200.893 341.975 200.872 342.14 200.919C342.223 200.942 342.301 200.981 342.368 201.035C342.436 201.088 342.492 201.154 342.534 201.229C342.576 201.304 342.603 201.387 342.613 201.473C342.622 201.558 342.615 201.645 342.591 201.727L341.885 204.173C341.872 204.225 341.853 204.276 341.826 204.323Z" fill="#BACAD2"/>
<path d="M347.33 201.792C347.257 201.918 347.144 202.016 347.009 202.07C346.874 202.124 346.725 202.132 346.585 202.092C346.502 202.069 346.424 202.03 346.357 201.976C346.289 201.923 346.233 201.857 346.191 201.782C346.149 201.707 346.122 201.624 346.112 201.538C346.103 201.453 346.11 201.366 346.134 201.284L346.84 198.838C346.86 198.752 346.897 198.671 346.95 198.599C347.002 198.528 347.068 198.468 347.145 198.423C347.221 198.378 347.306 198.349 347.394 198.338C347.482 198.327 347.572 198.333 347.657 198.358C347.742 198.382 347.822 198.424 347.89 198.48C347.959 198.536 348.016 198.605 348.057 198.683C348.098 198.762 348.122 198.848 348.129 198.936C348.135 199.025 348.124 199.113 348.095 199.197L347.395 201.649C347.378 201.699 347.356 201.746 347.33 201.792Z" fill="#BACAD2"/>
<path d="M349.768 200.338C349.695 200.464 349.582 200.562 349.447 200.616C349.312 200.67 349.163 200.678 349.023 200.638C348.94 200.615 348.863 200.576 348.795 200.522C348.727 200.469 348.671 200.403 348.629 200.328C348.587 200.252 348.56 200.17 348.551 200.084C348.541 199.999 348.548 199.912 348.572 199.83L349.278 197.384C349.298 197.298 349.335 197.217 349.388 197.145C349.44 197.074 349.507 197.014 349.583 196.969C349.659 196.924 349.744 196.895 349.832 196.884C349.92 196.872 350.01 196.879 350.095 196.904C350.18 196.928 350.26 196.969 350.328 197.025C350.397 197.081 350.454 197.151 350.495 197.229C350.536 197.308 350.56 197.394 350.567 197.482C350.573 197.57 350.562 197.659 350.533 197.743L349.834 200.214C349.815 200.257 349.793 200.299 349.768 200.338Z" fill="#BACAD2"/>
<path d="M352.233 198.643C352.159 198.77 352.045 198.868 351.909 198.923C351.773 198.977 351.622 198.984 351.481 198.943C351.314 198.894 351.174 198.782 351.091 198.63C351.007 198.479 350.988 198.3 351.036 198.134L351.736 195.682C351.759 195.599 351.799 195.522 351.853 195.455C351.906 195.388 351.972 195.331 352.048 195.29C352.123 195.248 352.206 195.221 352.291 195.211C352.377 195.201 352.464 195.209 352.546 195.232C352.629 195.256 352.707 195.295 352.774 195.349C352.842 195.402 352.898 195.468 352.94 195.543C352.982 195.618 353.008 195.701 353.018 195.786C353.028 195.872 353.021 195.958 352.997 196.041L352.291 198.493C352.279 198.545 352.259 198.596 352.233 198.643Z" fill="#BACAD2"/>
<path d="M354.638 196.647C354.556 196.78 354.429 196.878 354.281 196.925C354.132 196.973 353.971 196.965 353.828 196.904C353.684 196.844 353.567 196.734 353.497 196.595C353.428 196.456 353.411 196.296 353.448 196.145L354.148 193.693C354.196 193.526 354.308 193.385 354.46 193.301C354.612 193.216 354.791 193.196 354.958 193.243C355.126 193.291 355.267 193.403 355.352 193.554C355.436 193.706 355.457 193.885 355.409 194.052L354.703 196.504C354.688 196.555 354.666 196.603 354.638 196.647Z" fill="#BACAD2"/>
<path d="M326.459 199.791L320.746 209.814C320.746 209.814 317.353 209.096 312.902 207.981L311.849 207.72C306.62 206.416 300.286 204.642 296.024 202.882C287.677 199.432 268.904 189.461 268.904 189.461C268.904 189.461 266.479 201.258 253.379 221.415C224.33 266.079 200.295 229.273 200.295 229.273C203.348 228.94 211.865 213.89 216.637 207.942C230.867 192.8 243.189 180.697 253.647 172.825C255.958 171.065 258.394 169.474 260.936 168.065C263.923 166.435 269.538 167.53 276.284 170.1C290.507 175.512 309.47 187.935 319.53 194.88L320.38 195.474C324.138 198.089 326.459 199.791 326.459 199.791Z" fill="#212019"/>
<path d="M314.078 205.973C314.018 206.076 313.925 206.156 313.813 206.198C313.701 206.241 313.578 206.244 313.464 206.207C303.496 202.947 292.017 197.234 282.794 192.65C275.146 188.848 267.923 185.261 266.544 185.731C265.42 186.115 264.132 189.611 262.504 194.045C259.236 202.855 254.353 216.165 243.581 227.812C237.698 234.151 231.096 237.509 223.912 237.783C211.493 238.259 201.635 229.234 201.531 229.142C201.477 229.097 201.433 229.042 201.402 228.979C201.37 228.917 201.352 228.848 201.348 228.778C201.343 228.709 201.354 228.639 201.378 228.573C201.401 228.507 201.439 228.447 201.487 228.395C201.535 228.344 201.593 228.304 201.657 228.276C201.721 228.248 201.791 228.233 201.861 228.233C201.931 228.233 202.001 228.247 202.065 228.274C202.13 228.302 202.188 228.342 202.237 228.393C202.328 228.477 211.924 237.222 223.879 236.753C230.782 236.485 237.155 233.244 242.836 227.114C253.471 215.617 258.327 202.419 261.55 193.687C263.472 188.47 264.635 185.3 266.224 184.759C267.93 184.172 273.244 186.748 283.271 191.73C292.462 196.295 303.901 201.982 313.804 205.229C313.868 205.251 313.928 205.284 313.979 205.329C314.03 205.373 314.072 205.427 314.103 205.488C314.133 205.548 314.151 205.614 314.156 205.682C314.161 205.749 314.152 205.817 314.131 205.881C314.104 205.914 314.091 205.94 314.078 205.973Z" fill="#636057"/>
<path d="M320.353 195.467L312.869 207.981L311.817 207.72L319.504 194.874L320.353 195.467Z" fill="#636057"/>
<path d="M339.042 226.547L333.551 235.468L324.295 232.038L318.974 230.069L324.923 219.791L330.23 222.335L339.042 226.547Z" fill="#D07B5C"/>
<path d="M366.724 213.172L345.958 246.926C345.197 246.843 344.463 246.603 343.8 246.222C340.813 244.683 336.806 240.972 334.198 238.761C333.897 238.501 333.61 238.266 333.348 238.057C332.994 237.76 332.62 237.485 332.231 237.235C329.884 235.794 331.577 233.975 331.577 233.975C337.035 232.612 334.381 225.66 337.421 224.415L337.774 224.278L338.976 223.854C339.82 223.573 341.049 223.202 342.787 222.667C346.853 221.474 351.252 217.887 355.266 215.005C355.762 214.652 356.233 214.352 356.691 214.039C357.044 213.811 357.384 213.603 357.71 213.387C361.41 211.235 363.691 211.229 365.031 211.731C365.756 211.984 366.36 212.498 366.724 213.172Z" fill="white"/>
<path d="M357.678 213.4C357.795 214.744 357.874 217.567 356.776 218.963C356.353 219.401 355.879 219.786 355.364 220.111C352.942 221.696 350.442 223.159 347.873 224.493C345.716 225.621 343.676 226.606 342.127 227.265C339.591 228.347 338.859 228.36 338.499 228.21C337.316 227.76 337.434 225.902 337.793 224.297L338.996 223.873C338.538 225.608 338.46 227.056 338.865 227.238C339.362 227.31 342.062 226.371 347.552 223.489C351.742 221.285 355.449 219.015 355.991 218.33C356.704 217.424 356.782 215.461 356.71 214.059C357.024 213.805 357.37 213.596 357.678 213.4Z" fill="#BACAD2"/>
<path d="M366.724 213.172L345.957 246.932C345.198 246.844 344.464 246.602 343.8 246.222L365.018 211.744C365.746 211.991 366.354 212.5 366.724 213.172Z" fill="#BACAD2"/>
<path d="M348.075 243.489L347.454 244.487C347.114 243.39 346.558 242.371 345.82 241.49C345.082 240.609 344.175 239.883 343.153 239.355C341.782 238.645 340.279 238.225 338.738 238.123C337.197 238.021 335.651 238.238 334.198 238.761C333.897 238.5 333.61 238.266 333.348 238.057C334.99 237.383 336.759 237.076 338.532 237.157C340.305 237.238 342.038 237.706 343.611 238.527C345.644 239.597 347.227 241.357 348.075 243.489Z" fill="#BACAD2"/>
<path d="M344.415 224.46C344.339 224.584 344.223 224.678 344.087 224.729C343.951 224.78 343.802 224.784 343.663 224.741C343.58 224.716 343.504 224.674 343.437 224.619C343.37 224.564 343.316 224.496 343.275 224.42C343.235 224.343 343.211 224.26 343.203 224.174C343.196 224.088 343.205 224.001 343.232 223.919L344.01 221.487C344.031 221.4 344.07 221.319 344.125 221.248C344.179 221.177 344.248 221.118 344.326 221.074C344.404 221.031 344.49 221.004 344.579 220.995C344.669 220.986 344.758 220.996 344.844 221.023C344.929 221.05 345.008 221.095 345.075 221.154C345.142 221.213 345.197 221.285 345.235 221.366C345.273 221.446 345.294 221.534 345.297 221.623C345.3 221.713 345.285 221.801 345.252 221.885L344.48 224.343C344.463 224.384 344.441 224.424 344.415 224.46Z" fill="#BACAD2"/>
<path d="M341.369 225.478C341.292 225.602 341.176 225.698 341.038 225.749C340.901 225.8 340.75 225.803 340.611 225.758C340.528 225.732 340.452 225.69 340.386 225.635C340.321 225.579 340.266 225.512 340.227 225.435C340.187 225.359 340.163 225.276 340.156 225.19C340.149 225.104 340.159 225.018 340.186 224.936L340.957 222.504C341.01 222.339 341.126 222.201 341.281 222.122C341.435 222.042 341.615 222.027 341.781 222.08C341.946 222.133 342.084 222.249 342.164 222.403C342.243 222.557 342.258 222.737 342.206 222.902L341.434 225.328C341.416 225.379 341.394 225.429 341.369 225.478Z" fill="#BACAD2"/>
<path d="M346.944 223.104C346.868 223.229 346.752 223.324 346.614 223.375C346.476 223.426 346.326 223.429 346.186 223.384C346.104 223.358 346.028 223.316 345.962 223.261C345.896 223.206 345.842 223.138 345.803 223.062C345.763 222.985 345.739 222.902 345.732 222.816C345.725 222.731 345.735 222.644 345.761 222.563L346.533 220.13C346.586 219.965 346.702 219.828 346.856 219.748C347.011 219.669 347.191 219.654 347.356 219.706C347.522 219.759 347.66 219.875 347.739 220.029C347.819 220.183 347.834 220.363 347.781 220.528L347.01 222.954C346.992 223.005 346.97 223.056 346.944 223.104Z" fill="#BACAD2"/>
<path d="M349.422 221.734C349.34 221.875 349.209 221.98 349.054 222.03C348.899 222.079 348.731 222.069 348.583 222.001C348.435 221.933 348.318 221.813 348.254 221.664C348.191 221.514 348.185 221.347 348.239 221.193L349.01 218.767C349.036 218.685 349.078 218.609 349.134 218.544C349.189 218.478 349.257 218.424 349.334 218.385C349.41 218.345 349.494 218.321 349.58 218.314C349.665 218.307 349.752 218.317 349.834 218.343C349.998 218.396 350.135 218.511 350.214 218.664C350.294 218.816 350.31 218.994 350.259 219.159L349.487 221.591C349.469 221.641 349.448 221.689 349.422 221.734Z" fill="#BACAD2"/>
<path d="M351.925 220.084C351.84 220.215 351.711 220.312 351.56 220.355C351.41 220.399 351.249 220.387 351.106 220.323C350.964 220.258 350.849 220.144 350.784 220.002C350.718 219.861 350.706 219.7 350.749 219.55L351.52 217.117C351.572 216.952 351.688 216.814 351.842 216.734C351.996 216.654 352.175 216.638 352.341 216.69C352.506 216.742 352.644 216.857 352.725 217.011C352.805 217.164 352.821 217.343 352.769 217.509L351.991 219.941C351.979 219.993 351.956 220.041 351.925 220.084Z" fill="#BACAD2"/>
<path d="M354.409 218.161C354.333 218.286 354.216 218.381 354.079 218.432C353.941 218.483 353.791 218.486 353.651 218.441C353.487 218.389 353.35 218.274 353.27 218.121C353.191 217.968 353.175 217.79 353.226 217.626L353.997 215.194C354.024 215.112 354.066 215.036 354.121 214.97C354.177 214.905 354.245 214.851 354.321 214.812C354.398 214.772 354.481 214.748 354.567 214.741C354.653 214.734 354.739 214.744 354.821 214.77C354.903 214.796 354.979 214.838 355.045 214.893C355.11 214.949 355.165 215.017 355.204 215.093C355.244 215.169 355.268 215.252 355.275 215.338C355.282 215.424 355.272 215.51 355.246 215.591L354.475 218.017C354.458 218.067 354.436 218.115 354.409 218.161Z" fill="#BACAD2"/>
<path d="M325.831 220.052L320.085 230.486C320.085 230.486 316.863 229.43 312.568 227.93L311.575 227.578C306.443 225.784 300.103 223.456 295.835 221.552C287.585 217.874 268.858 208.588 268.858 208.588C268.858 208.588 266.099 220.326 252.444 240.092C222.193 283.921 199.191 246.47 199.191 246.47C202.25 246.222 211.192 231.419 216.107 225.602C230.762 210.864 243.43 199.112 254.105 191.528C256.458 189.831 258.931 188.306 261.504 186.963C264.537 185.411 270.119 186.663 276.787 189.422C291.004 195.291 309.718 208.236 319.406 215.265L320.242 215.872C323.72 218.422 325.831 220.052 325.831 220.052Z" fill="#212019"/>
<path d="M222.023 251.223H221.415C218.574 251.198 215.76 250.666 213.107 249.652L213.427 248.908C216 249.87 218.72 250.38 221.467 250.415C227.758 250.535 233.87 248.318 238.613 244.193C246.869 237.209 252.994 223.476 257.458 213.446C260.909 205.699 263.191 200.58 265.354 200.188C268.786 199.569 277.97 204.649 288.599 210.531C297.541 215.454 307.627 221.082 314.928 223.449L314.673 224.219C307.3 221.8 297.155 216.185 288.206 211.229C278.146 205.666 268.649 200.41 265.505 200.977C263.759 201.29 261.184 207.068 258.203 213.765C253.7 223.867 247.535 237.698 239.136 244.8C234.392 248.926 228.316 251.207 222.023 251.223Z" fill="#636057"/>
<path d="M313.581 226.351C313.519 226.452 313.424 226.529 313.313 226.568C313.201 226.607 313.079 226.607 312.967 226.567C303.09 223.019 291.775 217 282.689 212.161C275.153 208.144 268.034 204.336 266.635 204.792C265.505 205.144 264.119 208.601 262.367 212.983C258.87 221.702 253.595 234.875 242.502 246.209C236.462 252.384 229.756 255.553 222.559 255.632C210.139 255.762 200.531 246.463 200.433 246.372C200.384 246.324 200.345 246.267 200.319 246.205C200.292 246.143 200.278 246.076 200.278 246.008C200.277 245.94 200.29 245.873 200.315 245.81C200.341 245.747 200.378 245.69 200.426 245.641C200.474 245.593 200.53 245.554 200.593 245.528C200.655 245.501 200.723 245.487 200.791 245.487C200.859 245.486 200.926 245.499 200.989 245.524C201.052 245.55 201.11 245.587 201.158 245.635C201.25 245.726 210.59 254.764 222.559 254.601C229.462 254.523 235.926 251.458 241.764 245.472C252.712 234.281 257.948 221.226 261.406 212.585C263.478 207.407 264.727 204.284 266.328 203.788C268.054 203.253 273.296 205.973 283.173 211.229C292.233 216.054 303.509 222.06 313.313 225.575C313.441 225.621 313.546 225.715 313.604 225.837C313.663 225.959 313.671 226.099 313.627 226.228C313.616 226.27 313.601 226.312 313.581 226.351Z" fill="#636057"/>
<path d="M320.242 215.865L312.575 227.923L311.581 227.571L319.425 215.278L320.242 215.865Z" fill="#636057"/>
<path d="M221.245 210.648C216.297 220.508 218.925 260.686 209.479 257.249C186.738 249 169.71 233.238 160.932 222.145C159.834 220.763 158.552 219.348 157.16 217.906C155.108 215.794 152.807 213.642 150.467 211.49C141.675 203.403 132.367 195.369 133.922 189.709C135.321 184.635 138.838 182.125 140.825 178.883C142.054 176.876 143.659 175.123 145.551 173.719L156.578 165.541C156.578 165.541 164.651 159.783 167.462 159.333C170.273 158.883 176.293 163.285 183.967 165.15C191.641 167.015 197.04 171.162 199.55 179.151C201.714 186.096 200.406 183.95 207.584 191.724C216.349 201.245 229.56 194.13 221.245 210.648Z" fill="#977DB3"/>
<path d="M213.271 254.432H213.153C203.675 252.202 190.837 243.091 184.032 237.855C173.855 230.029 165.259 221.865 162.03 217.848C155.402 209.611 144.473 199.771 144.381 199.673C144.333 199.63 144.294 199.578 144.266 199.521C144.238 199.463 144.221 199.4 144.218 199.336C144.214 199.271 144.223 199.207 144.244 199.146C144.266 199.086 144.299 199.03 144.342 198.982C144.429 198.886 144.551 198.829 144.68 198.822C144.81 198.814 144.937 198.858 145.035 198.943C145.146 199.047 156.147 208.933 162.808 217.235C165.998 221.206 174.528 229.299 184.647 237.079C196.288 246.032 206.499 251.856 213.408 253.48C213.533 253.511 213.642 253.589 213.71 253.699C213.779 253.809 213.801 253.94 213.774 254.067C213.745 254.176 213.679 254.272 213.588 254.339C213.496 254.406 213.384 254.438 213.271 254.432Z" fill="#54357C"/>
<path d="M146.819 202.171L146.009 202.04L145.257 201.916L143.767 201.662L140.832 201.121C138.871 200.743 136.91 200.345 134.988 199.914C131.099 199.06 127.209 198.095 123.281 196.941C121.32 196.36 119.359 195.734 117.352 195.023C115.345 194.313 113.345 193.524 111.273 192.565C110.234 192.089 109.181 191.561 108.103 190.961C106.948 190.326 105.833 189.622 104.762 188.854C104.187 188.437 103.592 187.981 102.991 187.459C102.339 186.892 101.721 186.286 101.141 185.646C100.446 184.873 99.8242 184.037 99.2848 183.148C98.6204 182.057 98.1059 180.881 97.7552 179.653C97.56 178.963 97.4202 178.259 97.3369 177.547C97.2908 177.183 97.2646 176.817 97.2584 176.451C97.2584 176.281 97.2584 176.06 97.2584 175.858V175.545V175.251C97.2783 174.871 97.3197 174.492 97.3826 174.116C97.4414 173.764 97.5068 173.412 97.5853 173.093C97.7275 172.497 97.9087 171.911 98.1278 171.338C98.2258 171.064 98.3304 170.83 98.435 170.582C98.5396 170.334 98.6507 170.112 98.7618 169.897L98.9253 169.578L99.0887 169.278L99.4286 168.691C99.8379 168.012 100.288 167.359 100.775 166.734C101.575 165.689 102.449 164.701 103.39 163.78C104.253 162.926 105.109 162.157 105.965 161.433C107.665 159.991 109.358 158.726 111.051 157.52C112.744 156.313 114.43 155.218 116.123 154.148C118.023 152.949 119.932 151.799 121.849 150.699C121.946 151.051 121.911 151.427 121.751 151.755C121.019 153.229 122.607 160.233 127.307 160.318C129.556 160.35 130.576 161.622 131.478 163.18C129.353 164.595 127.268 166.043 125.255 167.523C123.823 168.58 122.424 169.656 121.091 170.751C119.757 171.847 118.476 172.949 117.385 174.012L116.731 174.664C117.306 174.925 117.927 175.179 118.587 175.427C119.999 175.962 121.549 176.458 123.163 176.914C124.778 177.371 126.431 177.775 128.151 178.153C131.556 178.903 135.086 179.529 138.609 180.064C140.396 180.329 142.185 180.572 143.976 180.794L146.656 181.101L147.963 181.238L148.617 181.296L148.93 181.329H149.087H149.212C154.545 190.1 153.081 196.843 146.819 202.171Z" fill="#D07B5C"/>
<path d="M125.287 177.501C125.287 177.501 122.725 188.685 119.274 195.669C119.274 195.669 121.575 198.336 127.928 198.212C127.928 198.212 132.02 190.798 133.367 179.144C130.975 177.608 128.092 177.021 125.287 177.501Z" fill="#977DB3"/>
<path d="M115.012 181.303C114.863 181.303 114.721 181.245 114.614 181.141C114.508 181.038 114.447 180.897 114.443 180.749C114.358 176.64 116.274 174.41 116.359 174.319C116.457 174.208 116.595 174.14 116.743 174.13C116.891 174.12 117.037 174.169 117.149 174.267C117.262 174.365 117.332 174.503 117.343 174.652C117.354 174.801 117.305 174.948 117.208 175.062C117.208 175.062 115.496 177.077 115.574 180.729C115.576 180.878 115.519 181.022 115.415 181.13C115.311 181.237 115.168 181.3 115.019 181.303H115.012Z" fill="#310F0B"/>
<path d="M117.431 179.144C117.327 179.144 117.226 179.116 117.138 179.063C117.049 179.01 116.976 178.935 116.927 178.844L115.528 176.164C115.493 176.099 115.471 176.028 115.464 175.954C115.457 175.881 115.465 175.807 115.487 175.736C115.509 175.666 115.544 175.601 115.592 175.544C115.639 175.488 115.698 175.441 115.764 175.408C115.896 175.338 116.051 175.324 116.194 175.368C116.338 175.412 116.458 175.511 116.528 175.642L117.927 178.316C117.997 178.449 118.011 178.603 117.967 178.746C117.923 178.889 117.824 179.008 117.692 179.079C117.611 179.122 117.522 179.144 117.431 179.144Z" fill="#310F0B"/>
<path d="M163.37 187.863L170.887 194.097C170.887 194.097 180.816 183.331 187.993 176.829L180.476 171.567C180.476 171.567 169.743 180.572 163.37 187.863Z" fill="#54357C"/>
<path d="M204.217 232.462C204.161 232.487 204.102 232.502 204.041 232.508C203.977 232.512 203.913 232.504 203.853 232.484C203.793 232.463 203.737 232.432 203.689 232.39C203.641 232.348 203.602 232.297 203.573 232.24C203.545 232.183 203.529 232.121 203.524 232.058C202.983 223.998 204.173 215.917 207.015 208.353C208.149 205.21 209.664 202.216 211.525 199.439C211.6 199.336 211.712 199.267 211.838 199.246C211.964 199.226 212.092 199.257 212.195 199.331C212.298 199.405 212.368 199.518 212.388 199.643C212.408 199.768 212.378 199.896 212.303 199.999C210.494 202.725 209.017 205.657 207.904 208.731C205.114 216.155 203.949 224.089 204.485 231.999C204.49 232.094 204.468 232.188 204.42 232.27C204.373 232.352 204.302 232.419 204.217 232.462Z" fill="#54357C"/>
<path d="M195.569 219.308C195.506 219.338 195.437 219.353 195.367 219.353C195.297 219.353 195.228 219.338 195.164 219.308C195.104 219.283 195.049 219.246 195.004 219.199C194.959 219.152 194.924 219.096 194.901 219.035C194.879 218.974 194.869 218.908 194.872 218.843C194.876 218.778 194.893 218.715 194.922 218.656C195.118 218.219 199.74 207.968 206.923 202.529C207.023 202.458 207.147 202.427 207.269 202.444C207.39 202.461 207.501 202.524 207.577 202.621C207.647 202.721 207.677 202.844 207.66 202.965C207.643 203.086 207.581 203.196 207.486 203.273C200.498 208.568 195.831 218.924 195.778 219.021C195.748 219.14 195.673 219.243 195.569 219.308Z" fill="#54357C"/>
<path d="M190.262 167.178C190.291 167.125 190.309 167.066 190.314 167.005C190.319 166.945 190.311 166.884 190.29 166.826C190.27 166.769 190.238 166.717 190.195 166.673C190.153 166.629 190.102 166.594 190.046 166.572C189.022 166.166 187.971 165.831 186.902 165.567C177.639 163.278 173.828 160.898 173.77 160.872C173.672 160.823 173.56 160.811 173.454 160.84C173.349 160.869 173.258 160.937 173.2 161.029C173.142 161.121 173.121 161.232 173.14 161.339C173.16 161.447 173.219 161.543 173.306 161.609C173.462 161.707 177.273 164.08 186.693 166.408C187.725 166.66 188.738 166.982 189.726 167.374C189.823 167.414 189.931 167.417 190.03 167.382C190.129 167.347 190.211 167.277 190.262 167.185V167.178Z" fill="#54357C"/>
<path d="M164.141 161.654C164.141 161.654 173.181 160.898 171.462 153.614C170.717 150.464 171.273 150.829 173.24 147.419C175.208 144.008 174.894 142.945 173.606 140.689C172.319 138.432 169.625 138.308 170.188 135.713C170.926 132.302 168.972 127.398 164.958 126.433C161.036 125.494 160.683 125.631 160.115 123.681C159.376 121.132 155.539 117.812 150.186 119.801C145.61 121.529 145.656 119.032 142.028 118.98C135.269 118.875 133.818 125.11 131.733 125.925C129.647 126.74 125.954 127.842 124.902 131.22C123.595 135.413 126.484 137.689 123.647 138.824C120.81 139.958 118.633 143.323 119.49 145.912C120.346 148.501 122.549 150.288 121.817 151.781C121.084 153.275 122.673 160.259 127.373 160.344C133.798 160.441 130.425 170.862 141.23 167.569C150.911 164.582 164.141 161.654 164.141 161.654Z" fill="#212019"/>
<path d="M162.095 144.132C162.095 144.132 163.697 140.558 165.9 143.03C168.102 145.501 168.737 151.612 164.756 151.729L162.095 144.132Z" fill="#8A2A34"/>
<path d="M160.487 160.546L163.102 168.26C163.102 168.26 160.605 176.49 145.734 171.821C147.336 168.502 145.969 163.474 144.133 160.735C145.065 160.824 145.988 160.994 146.891 161.244C147.26 161.317 147.633 161.365 148.009 161.387C151.48 161.778 156.624 161.994 160.487 160.546Z" fill="#D07B5C"/>
<path d="M160.487 160.546L161.71 164.204C158.101 164.433 151.467 164.348 146.865 161.224C147.218 161.276 147.59 161.322 147.983 161.368C151.48 161.778 156.624 161.994 160.487 160.546Z" fill="#310F0B"/>
<path d="M166.514 156.001C161.847 164.798 144.682 160.865 144.133 160.735C143.812 160.161 143.518 159.587 143.231 159.013C140.971 154.53 139.398 149.733 138.563 144.784C137.756 142.503 137.701 140.023 138.406 137.708C139.112 135.393 140.541 133.364 142.485 131.918C146.643 128.885 151.401 129.72 154.134 129.766C158.252 129.837 162.043 134.031 164.082 140.969C166.599 149.479 167.671 153.816 166.514 156.001Z" fill="#D07B5C"/>
<path d="M161.958 149.773C162.331 150.979 161.958 152.16 161.128 152.414C160.298 152.668 159.324 151.892 158.958 150.686C158.592 149.479 158.958 148.299 159.788 148.045C160.618 147.79 161.579 148.566 161.958 149.773Z" fill="white"/>
<path d="M157.657 136.659C157.513 136.754 157.395 136.884 157.315 137.036C157.234 137.189 157.194 137.359 157.197 137.532C157.201 137.704 157.247 137.873 157.333 138.022C157.42 138.172 157.542 138.297 157.69 138.387C158.84 139.202 160.435 136.398 163.501 137.272C163.494 137.272 162.468 134.161 157.657 136.659Z" fill="#212019"/>
<path d="M152.316 138.211C152.316 138.211 153.748 138.406 153.192 139.704C152.637 141.002 149.806 139.43 147.643 141.765C147.643 141.765 146.891 138.576 152.316 138.211Z" fill="#212019"/>
<g opacity="0.8">
<path d="M154.023 147.706C154.212 148.358 153.036 149.258 151.408 149.727C149.78 150.197 148.29 150.066 148.1 149.421C147.911 148.775 149.094 147.875 150.715 147.399C152.336 146.923 153.833 147.066 154.023 147.706Z" fill="#8A2A34"/>
</g>
<g opacity="0.8">
<path d="M166.436 145.345C166.206 145.441 165.97 145.521 165.73 145.586C164.095 146.062 162.612 145.925 162.429 145.28C162.246 144.634 163.416 143.734 165.043 143.258C165.258 143.194 165.476 143.142 165.697 143.102L166.436 145.345Z" fill="#8A2A34"/>
</g>
<path d="M153.532 144.008C153.794 144.895 153.598 145.73 153.101 145.866C152.604 146.003 151.996 145.41 151.741 144.53C151.486 143.649 151.676 142.815 152.173 142.671C152.669 142.528 153.277 143.128 153.532 144.008Z" fill="#212019"/>
<path d="M162.298 141.478C162.553 142.365 162.357 143.193 161.867 143.336C161.376 143.48 160.762 142.88 160.5 142.032C160.239 141.184 160.442 140.317 160.938 140.174C161.435 140.03 162.043 140.597 162.298 141.478Z" fill="#212019"/>
<path d="M159.33 145.991C159.577 145.921 159.816 145.824 160.043 145.704C160.088 145.677 160.127 145.641 160.157 145.598C160.187 145.556 160.209 145.507 160.219 145.456C160.231 145.405 160.232 145.351 160.222 145.3C160.212 145.248 160.191 145.199 160.16 145.156L157.69 141.693C157.663 141.647 157.628 141.607 157.585 141.576C157.542 141.545 157.493 141.523 157.442 141.512C157.39 141.5 157.337 141.5 157.285 141.511C157.233 141.521 157.184 141.543 157.141 141.573C157.098 141.604 157.061 141.643 157.034 141.689C157.007 141.734 156.99 141.785 156.984 141.837C156.978 141.89 156.983 141.943 156.999 141.993C157.014 142.044 157.04 142.09 157.075 142.13L159.271 145.215C158.762 145.393 158.213 145.431 157.683 145.325C157.633 145.31 157.58 145.305 157.527 145.311C157.475 145.317 157.425 145.334 157.379 145.361C157.334 145.387 157.294 145.423 157.263 145.466C157.233 145.508 157.211 145.557 157.2 145.608C157.189 145.66 157.189 145.713 157.2 145.764C157.211 145.816 157.232 145.864 157.263 145.907C157.293 145.95 157.333 145.986 157.378 146.012C157.423 146.039 157.474 146.056 157.526 146.062C158.124 146.188 158.744 146.164 159.33 145.991Z" fill="#212019"/>
<path d="M145.969 156.32C145.969 156.431 145.577 159.463 144.133 160.735C143.812 160.161 143.518 159.587 143.231 159.013C144.378 158.388 145.326 157.455 145.969 156.32Z" fill="#212019"/>
<path d="M142.57 150.653C142.57 150.653 137.655 146.929 136.138 151.41C134.896 155.094 141.257 161.935 144.695 157.97L142.57 150.653Z" fill="#D07B5C"/>
<path d="M143.793 156.685H143.832C143.925 156.646 143.999 156.573 144.038 156.48C144.077 156.387 144.078 156.283 144.041 156.19C143.572 155.043 142.81 154.039 141.83 153.278C140.851 152.517 139.688 152.026 138.459 151.853C138.407 151.844 138.354 151.845 138.303 151.856C138.252 151.868 138.204 151.891 138.162 151.922C138.121 151.953 138.086 151.993 138.06 152.038C138.034 152.083 138.018 152.134 138.012 152.186C138.007 152.238 138.012 152.29 138.028 152.34C138.044 152.39 138.07 152.436 138.105 152.475C138.139 152.514 138.182 152.546 138.229 152.568C138.276 152.59 138.328 152.602 138.38 152.603C139.474 152.761 140.507 153.202 141.377 153.882C142.248 154.561 142.925 155.456 143.342 156.477C143.378 156.561 143.444 156.629 143.527 156.667C143.61 156.706 143.705 156.712 143.793 156.685Z" fill="#212019"/>
<path d="M139.753 155.459C139.838 155.438 139.912 155.387 139.962 155.316C140.204 154.964 140.982 154.057 141.655 154.012C141.705 154.01 141.754 153.998 141.799 153.978C141.845 153.957 141.886 153.928 141.92 153.892C141.954 153.855 141.98 153.813 141.998 153.766C142.015 153.72 142.023 153.67 142.021 153.62C142.02 153.571 142.01 153.522 141.99 153.477C141.97 153.432 141.941 153.391 141.905 153.357C141.869 153.323 141.827 153.296 141.781 153.279C141.734 153.261 141.685 153.253 141.636 153.255C140.459 153.294 139.452 154.696 139.335 154.859C139.279 154.942 139.258 155.043 139.277 155.14C139.295 155.238 139.351 155.324 139.433 155.381C139.476 155.419 139.527 155.446 139.583 155.46C139.639 155.473 139.697 155.473 139.753 155.459Z" fill="#212019"/>
<path d="M139.184 152.773C139.184 152.773 137.57 153.477 138.531 154.677C139.492 155.877 140.832 154.781 140.832 154.781L143.08 157.827C143.459 158.335 143.969 158.55 144.459 158.146C143.807 156.695 142.924 155.358 141.845 154.188C141.845 154.188 140.413 152.792 139.184 152.773Z" fill="white"/>
<path d="M136.472 140.258C136.472 140.258 142.597 143.271 144.316 141.563C146.035 139.854 141.583 136.835 141.583 136.835C141.583 136.835 149.891 138.641 152.284 136.6C154.676 134.559 148.761 132.635 148.761 132.635C148.761 132.635 155.657 135.896 158.69 134.728C161.723 133.561 157.467 130.516 157.467 130.516C157.467 130.516 161.919 135.198 163.671 134.181C165.422 133.163 160.592 125.99 153.572 125.103C146.551 124.216 130.804 129.316 136.472 140.258Z" fill="#212019"/>
<path d="M141.191 140.708C141.191 140.708 145.708 150.34 143.152 151.142C140.596 151.944 136.91 148.736 136.446 140.278L141.191 140.708Z" fill="#212019"/>
<path d="M170.397 245.863H126.843C125.984 245.863 125.287 246.558 125.287 247.415V248.054C125.287 248.911 125.984 249.606 126.843 249.606H170.397C171.256 249.606 171.952 248.911 171.952 248.054V247.415C171.952 246.558 171.256 245.863 170.397 245.863Z" fill="#212019"/>
<path d="M137.295 237.516H134.543C133.865 237.516 133.314 238.065 133.314 238.742V256.075C133.314 256.752 133.865 257.301 134.543 257.301H137.295C137.974 257.301 138.524 256.752 138.524 256.075V238.742C138.524 238.065 137.974 237.516 137.295 237.516Z" fill="#977DB3"/>
<path d="M132.399 239.655H130.236C129.705 239.655 129.275 240.084 129.275 240.613V254.197C129.275 254.727 129.705 255.156 130.236 255.156H132.399C132.93 255.156 133.36 254.727 133.36 254.197V240.613C133.36 240.084 132.93 239.655 132.399 239.655Z" fill="#54357C"/>
<path d="M163.22 237.359H160.468C159.789 237.359 159.239 237.908 159.239 238.585V255.919C159.239 256.596 159.789 257.145 160.468 257.145H163.22C163.898 257.145 164.448 256.596 164.448 255.919V238.585C164.448 237.908 163.898 237.359 163.22 237.359Z" fill="#977DB3"/>
<path d="M167.527 239.505H165.364C164.833 239.505 164.403 239.934 164.403 240.464V254.047C164.403 254.577 164.833 255.006 165.364 255.006H167.527C168.058 255.006 168.488 254.577 168.488 254.047V240.464C168.488 239.934 168.058 239.505 167.527 239.505Z" fill="#54357C"/>
</g>
<defs>
<clipPath id="clip0_129_4">
<rect width="441" height="272" fill="white"/>
</clipPath>
</defs>
</svg>
