<svg width="522" height="343" viewBox="0 0 522 343" fill="none" xmlns="http://www.w3.org/2000/svg">
<g filter="url(#filter0_d_101_1888)">
<path d="M46.8228 327.006L44.4691 329.596L45.4696 330.506L46.8216 330.506L486.697 330.665L488.549 330.665L489.592 329.134C507.811 302.372 514.616 282.348 514.498 266.416C514.38 250.318 507.203 239.017 499.011 229.802C496.008 226.424 492.789 223.243 489.751 220.24C488.705 219.206 487.68 218.194 486.693 217.201C482.757 213.244 479.356 209.555 476.907 205.695C474.493 201.891 473.069 198.02 472.996 193.689C472.924 189.337 474.21 184.187 477.782 177.836C489.039 157.82 490.505 128.42 478.449 105.073C472.383 93.3263 462.879 83.0871 449.479 76.3954C436.089 69.7086 419.016 66.6652 397.95 68.9531C377.633 71.1595 363.859 70.3919 353.98 67.8554C344.223 65.3506 338.126 61.0862 333.175 55.9436C330.654 53.3249 328.407 50.4539 326.084 47.3564C325.575 46.677 325.06 45.9837 324.537 45.2803C322.71 42.8222 320.791 40.2395 318.7 37.6878C313.242 31.0243 306.441 24.3389 295.764 18.8355L294.161 21.9465L295.764 18.8355C262.477 1.67734 215.926 0.231397 178.036 12.8246C140.161 25.4128 109.654 52.586 111.007 93.5273C111.635 112.543 108.814 124.21 104.045 132.198C99.2947 140.155 92.3377 144.938 83.5272 149.665C81.2265 150.9 78.8157 152.12 76.3174 153.386C59.5976 161.852 38.961 172.302 21.1991 202.109C0.61288 236.655 6.53307 268.718 17.4827 291.897C22.9431 303.456 29.6649 312.851 35.0107 319.35C37.6873 322.604 40.0291 325.145 41.7115 326.881C42.5529 327.749 43.2303 328.417 43.7032 328.873C43.9396 329.102 44.125 329.277 44.2543 329.398L44.317 329.456C44.3526 329.489 44.3822 329.517 44.4056 329.538L44.4486 329.578L44.4617 329.59L44.4661 329.594C44.4677 329.595 44.4691 329.596 46.8228 327.006Z" fill="#EBF3FA" stroke="white" stroke-width="7"/>
<path d="M322.881 326.413H167.227C164.19 326.403 161.28 325.136 159.132 322.887C156.985 320.639 155.774 317.592 155.765 314.413C155.775 311.234 156.985 308.188 159.133 305.94C161.28 303.692 164.19 302.424 167.227 302.414H322.881C325.918 302.424 328.828 303.691 330.976 305.939C333.124 308.187 334.335 311.233 334.344 314.413C334.335 317.593 333.124 320.639 330.977 322.888C328.829 325.136 325.918 326.404 322.881 326.413Z" fill="#ED7D2B"/>
<path d="M322.881 270.414H167.227C164.191 270.402 161.283 269.134 159.137 266.886C156.991 264.638 155.782 261.593 155.772 258.415C155.781 255.236 156.992 252.189 159.139 249.941C161.287 247.692 164.197 246.425 167.234 246.415H322.888C325.925 246.424 328.836 247.692 330.983 249.94C333.131 252.189 334.342 255.236 334.351 258.415C334.342 261.596 333.13 264.643 330.98 266.892C328.831 269.14 325.919 270.406 322.881 270.414Z" fill="#D34B48"/>
<path d="M322.881 302.414H167.227C164.19 302.404 161.28 301.136 159.132 298.888C156.985 296.64 155.774 293.593 155.765 290.414C155.774 287.234 156.985 284.188 159.132 281.939C161.28 279.691 164.19 278.423 167.227 278.413H322.881C325.918 278.423 328.829 279.69 330.977 281.939C333.124 284.187 334.335 287.234 334.344 290.414C334.335 293.593 333.124 296.64 330.977 298.889C328.829 301.137 325.918 302.405 322.881 302.414Z" fill="#D34B48"/>
<path d="M330.619 270.414H159.486C157.43 270.414 155.763 272.159 155.763 274.311V274.516C155.763 276.668 157.43 278.413 159.486 278.413H330.619C332.676 278.413 334.342 276.668 334.342 274.516V274.311C334.342 272.159 332.676 270.414 330.619 270.414Z" fill="#FF5555"/>
<path d="M161.725 268.935C161.725 268.935 151.298 273.261 149.356 283.051C147.413 292.841 153.749 288.418 154.051 293.157C154.352 297.895 153.6 303.005 156.917 302.42C160.234 301.834 159.934 308.314 163.711 310.366C167.488 312.418 182.715 310.84 192.067 298.367C201.419 285.894 208.506 295.103 216.501 290.419C224.496 285.736 228.97 278.419 239.226 280.314C249.482 282.208 250.899 270.419 250.899 270.419L161.725 268.935Z" fill="#A8D29F"/>
<path d="M328.4 247.204H160.628C159.028 247.203 157.448 246.833 156 246.121C154.552 245.409 153.271 244.373 152.249 243.085C151.226 241.797 150.487 240.289 150.083 238.669C149.679 237.049 149.62 235.355 149.911 233.708C157.093 192.684 196.503 161.304 244.052 161.304C292.096 161.304 331.834 193.35 338.4 235.012C339.414 241.418 334.593 247.204 328.4 247.204Z" fill="#ED7D2B"/>
<path d="M255.108 278.415L288.894 299.888L312.624 278.415H255.108Z" fill="#FFB93E"/>
<path d="M312.358 244.737C312.358 244.737 322.785 249.063 324.727 258.853C326.67 268.643 320.334 264.22 320.023 268.957C319.713 273.693 320.476 278.805 317.159 278.222C313.842 277.638 314.142 284.116 310.365 286.168C306.588 288.22 291.359 286.642 282.009 274.167C272.659 261.693 265.568 270.905 257.575 266.221C249.582 261.538 245.106 254.221 234.85 256.115C224.594 258.01 223.177 246.221 223.177 246.221L312.358 244.737Z" fill="#A8D29F"/>
<path d="M261.195 170.157C260.861 170.691 259.535 170.403 258.233 169.513C256.932 168.623 256.143 167.467 256.481 166.93C256.819 166.394 258.141 166.684 259.443 167.574C260.744 168.464 261.523 169.62 261.195 170.157Z" fill="#FFE7D2"/>
<path d="M209.708 208.358C209.882 208.972 208.801 209.835 207.306 210.284C205.811 210.732 204.464 210.597 204.295 209.983C204.126 209.368 205.201 208.505 206.696 208.057C208.191 207.608 209.539 207.743 209.708 208.358Z" fill="#FFE7D2"/>
<path d="M244.115 165.161C244.254 165.785 243.137 166.588 241.623 166.956C240.11 167.324 238.768 167.116 238.63 166.493C238.493 165.869 239.608 165.066 241.123 164.7C242.639 164.333 243.977 164.545 244.115 165.161Z" fill="#FFE7D2"/>
<path d="M217.527 177.609C217.222 178.156 216.154 178.116 215.144 177.505C214.134 176.894 213.559 175.949 213.865 175.395C214.172 174.84 215.238 174.888 216.249 175.499C217.259 176.11 217.832 177.054 217.527 177.609Z" fill="#FFE7D2"/>
<path d="M216.426 194.568C216.217 195.168 214.858 195.203 213.404 194.643C211.949 194.083 210.928 193.146 211.139 192.544C211.349 191.942 212.707 191.909 214.161 192.469C215.616 193.029 216.637 193.966 216.426 194.568Z" fill="#FFE7D2"/>
<path d="M203.095 181.198C203.116 181.838 201.876 182.402 200.32 182.458C198.764 182.515 197.489 182.044 197.468 181.404C197.447 180.764 198.687 180.2 200.243 180.144C201.799 180.087 203.074 180.56 203.095 181.198Z" fill="#FFE7D2"/>
<path d="M235.233 177.671C235.301 178.307 234.102 178.967 232.555 179.146C231.008 179.325 229.703 178.953 229.637 178.318C229.571 177.683 230.768 177.023 232.313 176.845C233.858 176.666 235.167 177.036 235.233 177.671Z" fill="#FFE7D2"/>
<path d="M229.193 168.021C229.054 168.645 227.712 168.847 226.2 168.475C224.688 168.103 223.571 167.295 223.71 166.673C223.85 166.051 225.191 165.849 226.705 166.221C228.219 166.593 229.332 167.399 229.193 168.021Z" fill="#FFE7D2"/>
<path d="M261.469 185.922C261.385 186.556 260.462 186.946 259.406 186.795C258.35 186.644 257.559 186.007 257.643 185.374C257.726 184.742 258.648 184.349 259.706 184.501C260.763 184.652 261.55 185.289 261.469 185.922Z" fill="#FFE7D2"/>
<path d="M282.965 182.684C282.68 183.25 281.333 183.087 279.96 182.32C278.587 181.552 277.706 180.479 277.993 179.916C278.281 179.352 279.626 179.511 280.999 180.281C282.371 181.05 283.253 182.123 282.965 182.684Z" fill="#FFE7D2"/>
<path d="M243.812 186.923C244.117 187.47 243.273 188.584 241.927 189.399C240.58 190.215 239.24 190.424 238.935 189.87C238.63 189.316 239.474 188.207 240.82 187.393C242.167 186.58 243.505 186.368 243.812 186.923Z" fill="#FFE7D2"/>
<path d="M234.867 205.649C235.174 206.197 234.329 207.311 232.982 208.124C231.635 208.938 230.297 209.149 229.991 208.597C229.684 208.044 230.529 206.933 231.876 206.12C233.223 205.307 234.568 205.088 234.867 205.649Z" fill="#FFE7D2"/>
<path d="M189.804 200.908C189.942 201.53 188.825 202.334 187.311 202.7C185.797 203.067 184.455 202.861 184.318 202.239C184.18 201.617 185.295 200.813 186.811 200.444C188.327 200.076 189.665 200.291 189.804 200.908Z" fill="#FFE7D2"/>
<path d="M288.305 189.662C288.568 190.24 287.641 191.274 286.235 191.971C284.83 192.668 283.481 192.766 283.218 192.188C282.955 191.61 283.884 190.578 285.288 189.879C286.692 189.181 288.044 189.084 288.305 189.662Z" fill="#FFE7D2"/>
<path d="M282.471 206.302C282.842 205.794 284.145 206.182 285.382 207.169C286.619 208.155 287.319 209.368 286.95 209.877C286.581 210.386 285.277 209.997 284.04 209.011C282.804 208.024 282.101 206.811 282.471 206.302Z" fill="#FFE7D2"/>
<path d="M131.369 107.074C137.761 94.8288 153.843 96.4154 165.546 103.105C177.248 109.795 180.116 119.06 173.724 131.303C167.331 143.546 155.256 144.332 138.929 139.594C126.085 135.864 124.977 119.317 131.369 107.074Z" fill="#EAD2FF"/>
<path d="M161.23 109.718C155.95 108.697 152.84 115.235 152.305 116.045C151.772 115.235 148.662 108.697 143.38 109.718C137.554 110.847 135.049 116.599 137.251 122.213C139.044 126.787 150.631 134.115 152.223 134.979V135.069L152.305 135.023L152.389 135.069V134.979C153.981 134.108 165.384 126.698 167.361 122.213C169.567 117.196 167.056 110.849 161.23 109.718Z" fill="#7C25BA"/>
<path d="M142.361 132.173L150.758 118.666L153.096 121.387L163.432 107.316L153.565 126.099L151.007 124.339L142.361 132.173Z" fill="#EAD2FF"/>
<path d="M309.698 94.495C316.696 81.0902 332.161 81.5953 343.036 87.8163C353.911 94.0372 356.076 103.618 349.08 117.022C342.083 130.427 330.339 132.136 314.856 128.321C302.675 125.308 302.701 107.894 309.698 94.495Z" fill="#EAD2FF"/>
<path d="M316.36 123.298C316.187 123.272 316.022 123.209 315.874 123.113C315.726 123.017 315.599 122.889 315.501 122.739C315.403 122.589 315.336 122.418 315.303 122.239C315.271 122.06 315.275 121.876 315.314 121.699C316.41 116.86 319.386 113.911 322.037 111.283C323.832 109.503 325.522 107.818 326.567 105.715C328.954 100.855 327.423 92.7825 327.076 91.1721C327.056 91.0811 327.054 90.9867 327.071 90.895C327.088 90.8033 327.123 90.7163 327.173 90.6395C327.23 90.5537 327.308 90.4863 327.399 90.4448C327.491 90.4033 327.591 90.3895 327.69 90.4049C327.788 90.4202 327.88 90.4642 327.956 90.5319C328.032 90.5995 328.088 90.6879 328.118 90.7872C328.989 93.6433 330.895 101.535 328.367 106.683C327.173 109.111 325.271 110.997 323.431 112.82C320.78 115.45 318.041 118.164 317.182 122.691C317.146 122.883 317.04 123.053 316.887 123.166C316.734 123.28 316.545 123.327 316.36 123.298Z" fill="#7C25BA"/>
<path d="M328.771 97.3164C328.771 97.3164 334.492 87.8163 341.052 95.644C344.601 99.8806 342.414 111.473 336.933 116.749C331.583 121.901 319.933 122.403 322.405 113.388L327.137 107.187L328.771 97.3164Z" fill="#7C25BA"/>
<path d="M263.695 49.9161C270.538 36.8086 285.661 37.3028 296.295 43.387C306.929 49.4711 309.046 58.8381 302.204 71.9475C295.363 85.0569 283.875 86.7202 268.739 82.9887C256.819 80.0488 256.852 63.0292 263.695 49.9161Z" fill="#EAD2FF"/>
<path d="M278.633 77.6195C281.631 73.9336 286.255 66.5308 289.368 62.7392C289.511 62.5647 289.603 62.351 289.633 62.1234C289.664 61.8957 289.631 61.6638 289.54 61.4549C289.448 61.2461 289.301 61.0691 289.116 60.945C288.931 60.821 288.716 60.755 288.497 60.7549H282.83L288.178 48.0996C288.226 47.988 288.233 47.8616 288.197 47.745C288.162 47.6283 288.086 47.5296 287.985 47.4678C287.884 47.406 287.765 47.3855 287.65 47.4102C287.536 47.4349 287.434 47.5032 287.364 47.6017L274.446 65.7047C274.362 65.822 274.313 65.9626 274.304 66.109C274.296 66.2554 274.329 66.4011 274.399 66.5281C274.47 66.655 274.574 66.7575 274.699 66.8229C274.825 66.8882 274.966 66.9135 275.105 66.8956L281.519 66.0676L277.702 77.0395C277.658 77.1658 277.657 77.3046 277.699 77.4316C277.742 77.5586 277.826 77.6659 277.937 77.7348C278.047 77.8038 278.178 77.83 278.305 77.8089C278.432 77.7878 278.548 77.7208 278.633 77.6195Z" fill="#7C25BA"/>
<path d="M170.114 66.9886C169.474 51.4153 181.882 43.3797 193.299 42.8672C204.715 42.3547 210.815 49.555 211.454 65.1302C212.093 80.7053 203.628 88.6388 189.689 93.7764C178.718 97.8216 170.755 82.5638 170.114 66.9886Z" fill="#EAD2FF"/>
<path d="M193.926 53.7771V48.9459C193.926 48.4138 193.724 47.9035 193.365 47.5273C193.005 47.1511 192.518 46.9397 192.009 46.9397H188.699C188.203 46.9397 187.726 47.1463 187.375 47.5139C187.024 47.8816 186.826 48.3803 186.826 48.9003V53.7552C186.835 54.5479 186.659 55.3307 186.313 56.0362C185.968 56.7416 185.463 57.3483 184.844 57.804C183.687 58.632 183.417 60.7513 183.478 62.3434C183.567 64.6305 184.872 65.7831 187.056 65.8688C187.8 65.8986 188.537 65.7224 189.194 65.3582C189.558 65.1552 189.965 65.0491 190.377 65.0491C190.79 65.0491 191.196 65.1552 191.56 65.3582C192.216 65.7226 192.953 65.8988 193.696 65.8688C195.882 65.7831 197.255 63.8626 197.75 61.6395C198.116 59.9834 196.675 58.7579 195.443 57.9499C194.142 57.0946 193.926 55.3839 193.926 53.7771Z" fill="#7C25BA"/>
<path d="M188.961 78.7849V83.8915C188.96 84.1187 189.003 84.3437 189.086 84.5537C189.169 84.7637 189.29 84.9545 189.444 85.1152C189.597 85.276 189.779 85.4035 189.98 85.4905C190.18 85.5775 190.395 85.6223 190.612 85.6223H194.381C194.601 85.6223 194.819 85.5768 195.023 85.4886C195.226 85.4003 195.411 85.2709 195.567 85.1079C195.723 84.9448 195.846 84.7512 195.931 84.5381C196.015 84.325 196.058 84.0966 196.058 83.866V78.8086C196.05 78.0159 196.226 77.2331 196.571 76.5276C196.917 75.8222 197.421 75.2155 198.041 74.7598C199.198 73.9318 199.468 71.8125 199.407 70.2204C199.318 67.9333 198.013 66.7807 195.828 66.695C195.086 66.665 194.349 66.8412 193.692 67.2056C193.328 67.4086 192.922 67.5147 192.509 67.5147C192.097 67.5147 191.691 67.4086 191.326 67.2056C190.669 66.8414 189.932 66.6652 189.189 66.695C187.004 66.7807 185.63 68.7012 185.135 70.9244C184.769 72.5804 186.21 73.8059 187.441 74.6139C188.743 75.4674 188.961 77.1781 188.961 78.7849Z" fill="#7C25BA"/>
<path d="M125.933 254.663C141.508 238.358 141.508 211.924 125.933 195.619C110.358 179.315 85.106 179.315 69.5311 195.619C53.9562 211.924 53.9562 238.358 69.5311 254.663C85.106 270.967 110.358 270.967 125.933 254.663Z" fill="#C37899"/>
<path d="M57.8508 228.089L58.7515 241.655L58.87 243.517L60.3212 265.295L60.4397 266.938V266.978L60.5564 268.785L62.1906 293.465L62.269 294.588L62.3091 295.148L62.3997 296.56L63.9955 320.596L64.114 322.335V322.348L64.3875 326.413H131.402L131.652 322.472L131.756 320.732V320.72L133.298 296.463L133.376 295.232L133.416 294.506L133.481 293.534V293.52L135.038 268.785V268.773L135.155 266.978V266.911L135.26 265.309L136.632 243.571L136.751 241.709L137.613 228.089H57.8508Z" fill="#C37899"/>
<path d="M137.068 236.738C135.817 236.583 114.071 230.422 96.2608 231.279C78.4504 232.136 58.485 237.622 58.485 237.622L57.8508 228.084H137.615L137.068 236.738Z" fill="#9B3737"/>
<path d="M112.796 223.751H124.042L141.354 153.535C141.688 152.081 141.463 150.548 140.728 149.267C139.992 147.986 138.805 147.058 137.422 146.684C136.04 146.311 134.572 146.521 133.336 147.27C132.1 148.019 131.195 149.246 130.815 150.688L112.796 223.751Z" fill="#E6A1C2"/>
<path d="M62.1906 293.465L62.269 294.588L62.309 295.148L62.6627 294.902L79.3337 283.336L80.602 282.46L97.7834 270.523L99.0656 269.633L118.601 256.083H118.615L119.909 255.178L136.632 243.571L136.751 241.709L118.601 254.317L117.306 255.205H117.294L97.7834 268.758L96.5151 269.648L79.3859 281.53L78.1176 282.405L62.1906 293.465Z" fill="#E6A1C2"/>
<path d="M63.9955 320.596L64.114 322.334C69.8283 318.104 75.0984 314.176 79.9678 310.548L81.1874 309.636C87.3599 305.037 92.86 300.93 97.7817 297.22C98.1998 296.919 98.6179 296.604 99.0238 296.308C105.862 291.189 111.538 286.905 116.231 283.332C116.65 283.016 117.055 282.703 117.461 282.402C126.679 275.406 131.976 271.258 135.035 268.782V268.767L135.152 266.974V266.92C135.139 266.932 135.125 266.932 135.113 266.947C131.491 269.865 124.66 275.092 116.193 281.525C115.787 281.825 115.381 282.141 114.963 282.456C109.707 286.425 103.862 290.833 97.7817 295.378C97.3757 295.694 96.9698 295.994 96.5517 296.308C91.1126 300.388 85.5028 304.59 79.9853 308.697C79.5793 308.998 79.1734 309.299 78.7814 309.609C73.6855 313.395 68.6907 317.119 63.9955 320.596Z" fill="#E6A1C2"/>
<path d="M93.3391 326.413H95.6789L97.7834 324.73L98.9611 323.8L115.606 310.548L116.796 309.604L133.298 296.463L133.376 295.232L133.416 294.506L132.906 294.902L115.594 308.701L114.39 309.645L97.7834 322.868L96.6196 323.8L93.3391 326.413Z" fill="#E6A1C2"/>
<path d="M60.3213 265.295L60.4398 266.938V266.978L60.4659 266.965L76.9661 256.083L78.2884 255.205L97.7835 242.353L99.118 241.476L115.895 230.416L115.136 229.158L97.7974 240.588H97.7835L96.4507 241.476L76.9801 254.317L75.6717 255.178L60.3213 265.295Z" fill="#E6A1C2"/>
<path d="M58.7516 241.655L58.8701 243.517L75.6717 255.178L76.9661 256.083L96.5152 269.648L97.7835 270.523L114.965 282.46L116.235 283.336L132.906 294.902L133.376 295.232L133.416 294.506L133.481 293.534V293.52L117.463 282.405L116.195 281.53L99.0657 269.633L97.7835 268.758L78.2884 255.205L76.9801 254.317L58.7516 241.655Z" fill="#E6A1C2"/>
<path d="M60.4397 266.929V266.971L60.5582 268.778C63.6174 271.269 68.9207 275.402 78.1177 282.398C78.5114 282.699 78.9156 283 79.3372 283.328C84.0411 286.886 89.7206 291.171 96.5587 296.304C96.9646 296.605 97.3705 296.921 97.7887 297.216C102.717 300.913 108.223 305.033 114.395 309.633L115.615 310.545C120.531 314.212 125.879 318.186 131.658 322.467L131.763 320.729V320.716C127.017 317.198 121.968 313.434 116.805 309.591C116.413 309.29 116.007 308.989 115.601 308.679C110.083 304.572 104.473 300.37 99.0343 296.29C98.6162 295.989 98.1963 295.675 97.7921 295.36C91.7241 290.815 85.8791 286.407 80.6107 282.438C80.2048 282.123 79.7989 281.807 79.3912 281.506C70.9189 275.087 64.0931 269.858 60.4711 266.941L60.4397 266.929Z" fill="#E6A1C2"/>
<path d="M62.269 294.588L62.3091 295.148L62.3997 296.56L78.785 309.604L79.9749 310.548L96.6197 323.8L97.7835 324.73L99.902 326.413H102.243L98.9612 323.8L97.7835 322.868L81.1909 309.646L79.9871 308.701L62.6628 294.902L62.269 294.588Z" fill="#E6A1C2"/>
<path d="M135.26 265.309L119.909 255.178L118.601 254.317L99.118 241.476L97.7974 240.588H97.7834L80.4452 229.158L79.6874 230.416L96.4507 241.476L97.7834 242.353L117.294 255.205H117.306L118.601 256.083H118.615L135.117 266.951L135.155 266.978V266.923V266.911L135.26 265.309Z" fill="#E6A1C2"/>
<path d="M55.6713 232.419H139.793C142.08 232.419 143.934 230.479 143.934 228.085C143.934 225.691 142.08 223.751 139.793 223.751H55.6713C53.3842 223.751 51.5301 225.691 51.5301 228.085C51.5301 230.479 53.3842 232.419 55.6713 232.419Z" fill="#E6A1C2"/>
<path d="M409.904 304.964C409.904 304.964 411.103 318.46 409.64 319.217L390.901 319.177C390.901 319.177 390.901 316.911 393.911 316.408C396.922 315.905 402.208 314.061 403.103 309.952C403.998 305.843 409.904 304.964 409.904 304.964Z" fill="#FFCC99"/>
<path d="M412.324 270.144C411.628 289.805 410.251 308.405 410.251 308.405C410.251 308.405 409.363 309.399 406.549 310.229C404.523 310.827 403.103 309.952 403.103 309.952C403.103 309.952 401.795 298.945 401.389 296.343C400.96 293.58 383.254 238.25 385.547 217.851C387.157 203.53 394.606 194.189 394.606 194.189H409.223C409.223 194.189 409.243 204.767 410.483 218.992C410.831 223.021 411.283 227.342 411.858 231.795C412.962 240.382 412.835 255.556 412.324 270.144Z" fill="#FFCC99"/>
<path d="M412.324 270.144C409.079 261.587 400.073 237.721 399.023 233.595C397.737 228.553 394.652 225.596 394.652 225.596L410.479 218.99C410.828 223.019 411.279 227.34 411.854 231.793C412.962 240.382 412.835 255.556 412.324 270.144Z" fill="#F3A36C"/>
<path d="M406.483 120.429C402.547 119.401 400.012 121.297 400.012 121.297C388.997 122.654 388.85 136.517 390.021 140.983C391.192 145.45 393.368 147.855 389.118 154.405C380.322 167.959 408.476 171.065 408.476 171.065C405.647 157.507 423.708 161.82 423.342 163.358C441.539 156.65 415.432 122.767 406.483 120.429Z" fill="#163560"/>
<path d="M383.916 211.303C383.916 211.303 385.784 215.766 385.855 217.001C385.927 218.235 385.366 220.194 384.974 220.384C384.582 220.573 384.371 218.037 384.195 218.175C384.019 218.314 384.655 222.346 384.009 222.766C383.362 223.185 380.927 219.393 380.573 217.612C380.219 215.83 380.573 212.912 380.573 212.912L383.916 211.303Z" fill="#FFCC99"/>
<path d="M402.887 171.692C402.887 171.692 400.141 174.9 397.681 180.224C396.558 182.644 395.663 185.174 395.009 187.776C393.303 194.628 387.448 207.158 385.164 211.591C384.679 212.529 385.016 214.103 385.016 214.103L380.535 213.213C380.535 213.213 382.415 195.391 383.723 190.313C385.091 185.008 385.51 168.499 387.615 163.077C390.34 156.062 396.105 155.145 396.105 155.145L402.887 171.692Z" fill="#FFCC99"/>
<path d="M397.681 180.224C396.558 182.644 395.663 185.174 395.009 187.776C393.303 194.628 391.756 198.746 386.202 209.518C386.202 209.518 385.293 201.347 387.247 197.977C389.202 194.606 389.444 173.321 389.444 173.321L397.681 180.224Z" fill="#F3A36C"/>
<path d="M438.133 303.611C438.133 303.611 441.468 306.797 440.816 309.062C440.164 311.327 437.157 312.835 436.75 315.602C436.342 318.369 434.717 319.877 433.251 319.877H426.27C426.27 319.877 425.194 317.931 427.797 317.344C430.399 316.756 431.38 313.514 431.218 310.486C431.056 307.459 431.462 303.443 431.462 303.443L436.994 302.102L438.133 303.611Z" fill="#FFCC99"/>
<path d="M417.492 193.665C417.492 193.665 429.264 199.228 431.975 214.092C434.928 230.291 427.706 248.379 429.344 256.001C430.982 263.622 436.994 278.307 436.994 302.101C436.994 302.101 436.368 303.463 434.438 304.191C433.821 304.422 432.119 305.053 431.316 305.247C431.316 305.247 430.562 302.223 429.516 299.919C424.8 289.513 411.223 266.67 410.56 260.932C410.091 256.872 406 230.002 397.082 214.234C394.941 210.45 398.396 195.396 398.396 195.396L417.492 193.665Z" fill="#FFCC99"/>
<path d="M423.257 208.126C419.401 199.073 417.042 196.476 417.492 193.665C417.828 191.573 416.471 154.675 416.471 154.675C416.014 154.525 415.096 154.392 414.595 154.277C413.014 153.912 411.957 152.625 411.159 151.147C410.143 149.265 409.058 145.525 409.068 141.963L405.345 142.171L400.061 143.974C400.061 143.974 401.382 147.383 401.387 149.96V150.024C401.394 151.113 401.06 152.176 400.437 153.048C399.814 153.921 398.936 154.557 397.936 154.859C396.89 155.176 395.972 155.448 395.972 155.448C395.972 155.448 392.923 164.567 392.34 173.926C391.756 183.286 397.887 187.357 392.295 206.069C386.592 225.18 425.387 213.127 423.257 208.126Z" fill="#FFCC99"/>
<path d="M400.246 144.706C400.246 144.706 401.384 147.383 401.389 149.96C406.049 149.231 408.084 145.32 409.091 142.86L400.246 144.706Z" fill="#E8945B"/>
<path d="M421.76 170.997C421.76 170.997 423.614 189.669 425.086 194.439C427.002 200.639 425.086 203.935 425.086 203.935L406.445 208.748L390.068 206.315C390.068 206.315 389.206 202.412 389.605 199.228C390.012 195.976 391.683 193.392 391.718 188.497C391.784 179.4 387.24 178.032 388.774 170.403C390.432 162.148 395.971 155.448 395.971 155.448C395.971 155.448 404.873 164.567 416.464 154.675L421.76 170.997Z" fill="#FFCC99"/>
<path d="M400.347 148.514C400.347 148.514 411.086 146.028 409.506 139.052C407.925 132.076 408.244 127.055 401.317 128.348C394.39 129.641 393.671 132.63 393.652 135.096C393.633 137.562 397.514 148.981 400.347 148.514Z" fill="#FFCC99"/>
<path d="M396.411 129.393C396.411 129.393 401.204 136.845 405.974 136.933C410.744 137.02 412.406 135.273 412.406 135.273C412.406 135.273 408.305 133.267 406.45 128.441C406.45 128.441 397.734 124.947 396.411 129.393Z" fill="#163560"/>
<path d="M397.288 129.877C397.288 129.877 395.31 131.268 394.794 133.148C394.155 135.354 394.16 137.71 394.807 139.913C394.807 139.913 391.333 134.903 393.096 131.137C394.974 127.144 397.288 129.877 397.288 129.877Z" fill="#163560"/>
<path d="M432.684 223.676C432.684 223.676 423.584 221.365 413.847 222.793C410 223.355 406.054 224.5 402.532 226.603C402.532 226.603 392.038 224.389 385.442 225.31C385.442 225.31 383.578 214.575 389.514 201.537C389.514 201.537 401.911 204.09 418.276 201.652C420.757 201.287 423.328 200.833 425.941 200.291C425.938 200.291 434.431 209.676 432.684 223.676Z" fill="#E6A1C2"/>
<path d="M423.677 186.988C421.854 187.491 420.122 187.939 418.481 188.334C396.3 193.698 390.122 190.049 390.122 190.049C390.122 190.049 388.427 180.071 389.443 173.686C390.458 167.301 396.105 155.149 396.105 155.149L398.282 154.742C398.282 154.742 396.694 161.736 396.411 164.105C395.995 167.594 399.467 168.546 404.143 167.665C411.581 166.267 413.419 153.83 413.419 153.83C414.513 153.793 415.603 153.988 416.622 154.405C415.549 161.335 416.746 167.654 418.386 172.508C420.384 178.418 423.037 182.15 423.037 182.15L423.677 186.988Z" fill="#E6A1C2"/>
<path d="M432.684 223.676C432.684 223.676 423.584 221.365 413.847 222.793C421.718 213.917 418.276 201.652 418.276 201.652C420.757 201.287 423.328 200.833 425.941 200.291C425.938 200.291 434.431 209.676 432.684 223.676Z" fill="#C37899"/>
<path d="M401.159 195.916C401.159 196.374 400.913 196.744 400.61 196.744C400.307 196.744 400.063 196.379 400.063 195.916C400.063 195.453 400.307 195.09 400.61 195.09C400.913 195.09 401.159 195.46 401.159 195.916Z" fill="#E8945B"/>
<path d="M416.622 154.401C416.622 154.401 421.544 155.765 423.342 158.96C425.14 162.156 435.574 178.827 436.994 187.164C438.414 195.5 428.584 215.722 428.584 215.722L425.938 213.816C425.938 213.816 427.105 190.607 425.938 188.229C424.575 185.449 423.039 182.155 423.039 182.155C423.039 182.155 417.138 168.032 416.99 167.339C415.373 159.743 416.622 154.401 416.622 154.401Z" fill="#FFCC99"/>
<path d="M426.007 212.337C426.007 212.337 424.285 212.855 423.342 213.448C422.399 214.041 420.225 216.366 420.729 216.789C421.232 217.212 422.612 215.724 423.342 215.724C424.072 215.724 420 219.685 420.338 220.513C420.676 221.341 425.34 220.927 426.879 219.567C428.417 218.206 429.318 213.448 429.318 213.448L426.007 212.337Z" fill="#FFCC99"/>
<path d="M423.676 186.988C421.854 187.491 420.122 187.939 418.481 188.334C415.967 183.323 418.69 173.461 418.387 172.515C420.385 178.426 423.039 182.157 423.039 182.157L423.676 186.988Z" fill="#C37899"/>
<path d="M469.651 319.169H351.724V323.654H469.651V319.169Z" fill="#8879B0"/>
<path d="M359.927 323.654H356.198V326.508H359.927V323.654Z" fill="#7C25BA"/>
<path d="M461.254 323.654H457.525V326.508H461.254V323.654Z" fill="#7C25BA"/>
<path d="M380.787 251.941H347.888C347.536 251.941 347.191 251.832 346.897 251.628C346.604 251.425 346.374 251.135 346.236 250.796L343.24 243.406C343.163 243.217 343.133 243.011 343.15 242.807C343.168 242.602 343.235 242.406 343.343 242.235C343.451 242.064 343.598 241.923 343.771 241.826C343.943 241.729 344.136 241.678 344.332 241.678H377.867L381.543 250.744C381.596 250.875 381.617 251.018 381.605 251.159C381.593 251.301 381.547 251.437 381.472 251.555C381.397 251.673 381.295 251.771 381.176 251.838C381.057 251.905 380.923 251.941 380.787 251.941Z" fill="#2B478B"/>
<path d="M381.077 251.941H349.892C349.416 251.941 348.951 251.794 348.554 251.519C348.158 251.244 347.847 250.853 347.662 250.394L344.55 242.734C344.504 242.62 344.485 242.495 344.496 242.371C344.507 242.248 344.547 242.129 344.613 242.025C344.678 241.921 344.767 241.836 344.872 241.777C344.976 241.718 345.093 241.688 345.212 241.688H377.895C378.357 241.688 378.809 241.83 379.195 242.097C379.58 242.364 379.882 242.743 380.063 243.188L382.625 249.508C382.732 249.775 382.774 250.065 382.747 250.353C382.721 250.641 382.627 250.918 382.473 251.159C382.32 251.399 382.112 251.597 381.869 251.733C381.625 251.87 381.353 251.941 381.077 251.941Z" fill="#8879B0"/>
<path d="M380.131 248.671H349.207L346.836 242.818H377.759L380.131 248.671Z" fill="#EAD2FF"/>
<path d="M364.94 250.152H361.89V319.877H364.94V250.152Z" fill="#8879B0"/>
<path d="M271.058 118.363C271.058 118.363 272.277 115.992 273.744 115.884C275.211 115.777 277.174 117.343 278.622 117.042C280.07 116.742 281.438 116.432 281.293 116.889C281.148 117.347 279.641 119.078 277.652 118.872C275.662 118.666 274.021 118.168 273.359 119.18C272.697 120.192 271.058 118.363 271.058 118.363Z" fill="#FFCC99"/>
<path d="M236.123 81.5917C236.123 81.5917 228.822 80.295 225.999 85.4454C223.177 90.5957 218.306 91.2815 218.022 93.9843C217.738 96.6872 219.729 97.7796 218.022 99.1347C216.315 100.49 213.046 100.789 213.841 103.96C214.635 107.132 217.093 108.215 215.409 110.112C213.724 112.009 213.726 116.348 220.587 117.431C227.447 118.514 234.872 114.75 239.62 114.433C244.367 114.115 251.958 113.772 251.486 110.785C251.014 107.798 247.32 106.82 248.326 104.787C249.331 102.753 249.329 100.253 247.777 97.2854C246.224 94.3181 250.204 91.1666 247.873 88.6242C245.542 86.0819 239.717 79.943 236.123 81.5917Z" fill="#233862"/>
<path d="M294.356 195.823C294.832 197.524 297.164 197.017 299.743 196.1C302.321 195.183 301.762 196.042 305.473 195.261C309.184 194.481 310.198 192.912 310.264 192.319C310.321 191.792 308.454 191.772 306.447 191.723C306.196 191.723 305.941 191.708 305.687 191.699C303.422 191.612 301.649 190.24 299.506 189.192C297.478 188.19 294.192 183.655 294.192 183.655L289.088 184.555C289.088 184.555 292.147 188.595 293.347 190.364C294.044 191.404 294.143 192.857 294.161 193.984C294.147 194.604 294.212 195.222 294.356 195.823Z" fill="#FFCC99"/>
<path d="M299.743 196.1C302.319 195.188 301.762 196.042 305.473 195.261C309.184 194.481 310.198 192.912 310.264 192.319C310.321 191.792 308.454 191.772 306.447 191.723L306.433 191.765C304.916 192.993 303.11 193.768 301.206 194.008C298.67 194.307 295.912 193.793 294.157 193.984C294.143 194.604 294.209 195.222 294.352 195.823C294.832 197.524 297.164 197.017 299.743 196.1Z" fill="#233862"/>
<path d="M298.732 187.74L292.128 190.147C292.128 190.147 278.77 175.903 276.854 167.908C276.788 167.631 275.45 167.333 273.347 166.996C269.706 166.422 263.765 165.752 258.145 164.93C253.11 164.2 248.322 163.336 245.653 162.322C238.273 159.515 240.892 141.952 240.892 141.952L248.242 141.04C248.242 141.04 280.544 151.173 285.399 153.918C290.255 156.662 298.732 187.74 298.732 187.74Z" fill="#E6A1C2"/>
<path d="M273.343 167.002C269.702 166.427 263.761 165.758 258.141 164.935C253.414 161.652 250.263 152.854 254.322 154.06C267.335 157.923 273.162 166.857 273.343 167.002Z" fill="#C37899"/>
<path d="M267.969 221.761C267.866 223.53 270.234 223.882 272.948 223.933C275.662 223.984 274.864 224.595 278.61 225.179C282.356 225.762 283.816 224.646 284.07 224.11C284.295 223.636 282.542 222.961 280.673 222.197C280.438 222.102 280.201 222.002 279.965 221.903C277.859 221.017 276.636 219.105 274.962 217.344C273.378 215.682 271.756 210.247 271.756 210.247L266.662 209.282C266.662 209.282 268.23 214.17 268.788 216.26C269.115 217.489 268.728 218.888 268.38 219.955C268.166 220.535 268.028 221.142 267.969 221.761Z" fill="#FFCC99"/>
<path d="M272.953 223.933C275.674 223.986 274.869 224.595 278.615 225.179C282.361 225.762 283.821 224.646 284.075 224.11C284.3 223.636 282.547 222.961 280.678 222.197L280.65 222.23C278.827 222.847 276.878 222.936 275.011 222.487C272.526 221.868 270.098 220.406 268.39 219.963C268.177 220.54 268.039 221.145 267.979 221.761C267.871 223.523 270.234 223.887 272.953 223.933Z" fill="#233862"/>
<path d="M229.86 141.049C229.86 141.049 224.737 156.398 232.611 164.658C240.486 172.918 251.775 175.338 254.549 179.613C257.322 183.888 256.263 191.913 267.95 215.496L274.119 214.767C274.119 214.767 273.194 178.577 269.415 171.163C264.932 162.387 244.502 142.809 243.942 142.402C243.383 141.996 229.86 141.049 229.86 141.049Z" fill="#E6A1C2"/>
<path d="M241.751 109.02C241.786 109.029 238.839 111.29 236.327 110.989C233.963 110.708 231.322 107.65 231.352 107.637C232.284 107.272 233.061 106.078 232.165 100.145L232.611 100.165L240.134 100.497C240.134 100.497 240.322 102.928 240.657 105.195C240.928 107.097 241.313 108.883 241.751 109.02Z" fill="#FFCC99"/>
<path d="M240.134 100.497C240.134 100.497 240.23 101.81 240.521 104.229C236.419 104.776 233.815 102.184 232.611 100.165L240.134 100.497Z" fill="#ED975D"/>
<path d="M242.157 101.847C242.157 101.847 233.446 103.306 232.475 97.1906C231.505 91.0754 229.719 87.1305 235.237 85.936C240.754 84.7414 242.205 86.9153 242.977 88.8923C243.749 90.8693 244.397 101.309 242.157 101.847Z" fill="#FFCC99"/>
<path d="M241.69 85.8265C241.69 85.8265 237.366 93.1217 233.474 94.8652C229.581 96.6088 227.644 95.7607 227.644 95.7607C228.802 93.7286 229.547 91.4689 229.834 89.1221C229.894 88.5718 230.094 88.0485 230.413 87.6065C230.732 87.1645 231.159 86.8201 231.648 86.6089C234.439 85.4071 239.855 83.5012 241.69 85.8265Z" fill="#233862"/>
<path d="M237.845 86.567C237.845 86.567 240.425 87.9221 241.503 89.206C242.533 90.4444 243.74 93.8166 243.669 95.3376C243.669 95.3376 244.876 88.0424 242.217 85.5639C239.397 82.934 237.845 86.567 237.845 86.567Z" fill="#233862"/>
<path d="M274.159 119.634C274.159 119.634 270.068 133.595 263.774 134.925C263.134 135.056 262.483 135.117 261.831 135.107C257.916 135.076 253.547 132.919 251.282 131.626C250.315 131.078 249.732 130.681 249.732 130.681L240.965 106.982C240.965 106.982 248.155 107.553 251.31 111.02C254.465 114.487 260.544 124.312 262.359 124.175C264.972 123.98 270.896 117.756 270.896 117.756L274.159 119.634Z" fill="#EAD2FF"/>
<path d="M214.912 160.157C214.912 160.157 214.621 164.988 212.907 164.817C211.05 164.634 210.12 164.932 208.646 166.478C207.172 168.025 206.107 168.995 208.081 169.01C209.823 169.02 211.667 167.861 213.708 168.207C216.52 168.687 217.06 168.056 217.224 167.031C217.522 165.152 217.707 161.051 217.707 161.051L214.912 160.157Z" fill="#FFCC99"/>
<path d="M214.41 166.947C214.41 166.947 211.036 168.917 211.59 169.119C212.144 169.321 213.567 168.687 214.543 168.603C215.519 168.519 216.468 168.437 216.6 167.802C216.733 167.168 214.41 166.947 214.41 166.947Z" fill="#FFCC99"/>
<path d="M261.828 135.105C257.913 135.074 253.543 132.917 251.279 131.624C248.993 127.01 246.768 121.653 248.82 121.775C252.413 121.979 253.773 126.858 255.423 129.928C257.049 132.944 261.685 135.04 261.828 135.105Z" fill="#8879B0"/>
<path d="M256.263 143.858C253.024 147.85 249.209 151.093 245.5 153.622C237.714 158.931 230.395 161.1 229.86 160.48C223.876 153.484 224.477 142.924 223.51 132.576C223.507 132.527 223.507 132.477 223.51 132.428C223.484 131.27 223.808 125.417 226.442 118.673C228.961 112.224 231.71 106.917 232.017 107.068C240.634 111.307 240.965 106.982 240.965 106.982C240.965 106.982 245.941 116.339 250.74 125.009C257.528 137.287 258.101 141.589 256.263 143.858Z" fill="#EAD2FF"/>
<path d="M245.495 153.622C237.709 158.931 230.39 161.1 229.855 160.48C223.871 153.484 224.472 142.924 223.505 132.576C223.502 132.526 223.502 132.477 223.505 132.428L228.949 125.643C228.949 125.643 234.914 132.78 233.874 139.14C232.834 145.499 233.022 151.88 236.941 151.609C239.838 151.421 244.275 151.813 245.495 153.622Z" fill="#8879B0"/>
<path d="M232.008 107.07C232.008 107.07 223.273 107.289 220.466 112.62C217.66 117.951 216.445 127.462 215.611 137.287C214.938 145.22 213.52 163.115 213.52 163.115C213.52 163.115 214.154 163.757 215.803 164.105C218.158 164.607 218.416 163.892 218.416 163.892C218.416 163.892 224.106 148.149 225.709 144.573C233.871 126.347 237.843 122.479 237.843 122.479L232.008 107.07Z" fill="#EAD2FF"/>
<path d="M270.018 112.926C270.018 112.926 268.38 108.58 270.392 108.095C272.404 107.61 276.878 110.347 280.307 110.167L279.244 112.554L270.018 112.926Z" fill="white"/>
<path d="M285.492 113.776C285.326 113.307 284.989 112.926 284.555 112.716C284.12 112.507 283.625 112.487 283.176 112.66C283.046 112.711 282.915 112.758 282.784 112.804C281.772 113.09 280.737 113.278 279.692 113.366C279.046 113.422 278.398 113.438 277.751 113.415C277.108 113.367 276.468 113.28 275.835 113.154C274.804 112.952 273.793 112.651 272.815 112.255C272.688 112.197 272.563 112.135 272.439 112.073C272.013 111.847 271.518 111.808 271.064 111.964C270.61 112.12 270.234 112.459 270.018 112.905C269.803 113.352 269.766 113.869 269.915 114.345C270.064 114.82 270.387 115.214 270.814 115.439L270.803 115.461C270.85 115.485 271.075 115.596 271.446 115.751C273.309 116.595 275.302 117.077 277.329 117.174L277.57 117.185L277.81 117.201C279.836 117.327 281.867 117.065 283.803 116.43C284.188 116.315 284.422 116.231 284.471 116.213V116.189C284.909 116.006 285.261 115.652 285.452 115.201C285.642 114.75 285.657 114.238 285.492 113.776Z" fill="#FFB985"/>
<path d="M277.875 115.68C275.497 115.552 273.161 114.972 270.981 113.969C270.624 113.783 270.351 113.457 270.222 113.062C270.092 112.667 270.116 112.235 270.288 111.858C270.46 111.481 270.767 111.19 271.142 111.048C271.517 110.906 271.93 110.923 272.293 111.097C273.424 111.609 274.608 111.984 275.821 112.215C277.695 112.58 280.525 112.8 283.335 111.712C283.522 111.639 283.721 111.606 283.921 111.614C284.121 111.622 284.317 111.671 284.498 111.758C284.68 111.846 284.843 111.97 284.979 112.123C285.115 112.277 285.22 112.456 285.29 112.653C285.359 112.849 285.391 113.057 285.383 113.266C285.375 113.475 285.328 113.681 285.245 113.871C285.161 114.061 285.043 114.232 284.896 114.374C284.75 114.516 284.578 114.626 284.391 114.699C282.305 115.487 280.088 115.821 277.875 115.68Z" fill="#D34B48"/>
<path d="M285.65 110.63C285.484 110.161 285.147 109.78 284.713 109.57C284.279 109.361 283.783 109.341 283.335 109.514C283.204 109.563 283.073 109.612 282.941 109.658C281.929 109.944 280.894 110.132 279.849 110.22C279.204 110.276 278.556 110.292 277.91 110.269C276.216 110.141 274.551 109.75 272.967 109.109C272.84 109.049 272.714 108.989 272.591 108.927C272.166 108.717 271.679 108.688 271.235 108.848C270.79 109.008 270.423 109.343 270.211 109.782C269.999 110.221 269.959 110.73 270.1 111.199C270.241 111.669 270.552 112.062 270.965 112.295L270.955 112.317C271.002 112.341 271.225 112.45 271.598 112.605C273.46 113.45 275.454 113.933 277.481 114.03L277.721 114.041L277.96 114.057C279.986 114.182 282.017 113.92 283.953 113.284C284.34 113.171 284.573 113.087 284.622 113.068V113.045C285.062 112.864 285.416 112.509 285.608 112.058C285.8 111.606 285.815 111.093 285.65 110.63Z" fill="#FFB985"/>
<path d="M285.079 113.103C285.079 113.047 285.079 112.999 285.079 112.952C285.075 112.891 285.075 112.83 285.079 112.769C285.076 112.749 285.076 112.728 285.079 112.707C285.093 112.675 285.101 112.64 285.101 112.604C285.101 112.569 285.093 112.533 285.079 112.501C285.052 112.45 285.008 112.412 284.955 112.395C284.901 112.378 284.844 112.383 284.795 112.41C284.687 112.472 284.661 112.582 284.664 112.775C284.664 112.83 284.664 112.893 284.664 112.968V113.023C284.683 113.561 284.697 114.434 284.175 114.783C284.103 114.836 284.024 114.875 283.939 114.9C283.908 114.912 283.873 114.912 283.842 114.9C283.718 114.867 283.631 114.67 283.467 114.132C283.405 113.922 283.344 113.705 283.262 113.493C283.165 113.231 283.013 112.996 282.817 112.804C282.779 112.76 282.734 112.723 282.685 112.695C282.62 112.639 282.542 112.601 282.459 112.586C282.376 112.571 282.291 112.578 282.211 112.607C282.133 112.651 282.065 112.712 282.011 112.786C281.958 112.86 281.92 112.945 281.901 113.036C281.844 113.215 281.798 113.398 281.762 113.583C281.744 113.672 281.727 113.765 281.702 113.842C281.567 114.465 281.392 114.916 280.952 114.947C280.907 114.956 280.862 114.955 280.818 114.943C280.774 114.932 280.733 114.91 280.699 114.879C280.554 114.741 280.525 114.374 280.525 113.997C280.525 113.913 280.525 113.838 280.525 113.756C280.525 113.597 280.525 113.433 280.525 113.275C280.525 112.981 280.458 112.692 280.33 112.432C280.287 112.354 280.229 112.286 280.161 112.232C280.093 112.177 280.015 112.138 279.932 112.115C279.798 112.067 279.657 112.045 279.516 112.051C279.36 112.051 279.207 112.098 279.075 112.184C278.95 112.266 278.846 112.378 278.77 112.51C278.76 112.518 278.752 112.529 278.745 112.54C278.739 112.552 278.735 112.565 278.734 112.578C278.593 112.84 278.495 113.125 278.443 113.42C278.417 113.557 278.389 113.692 278.363 113.829C278.345 113.911 278.335 113.986 278.319 114.053C278.204 114.631 278.087 114.996 277.845 115.009C277.291 115.035 277.209 114.721 277.14 114.01V113.988C277.124 113.767 277.085 113.548 277.021 113.337C276.993 113.234 276.942 113.141 276.873 113.063C276.803 112.985 276.718 112.925 276.622 112.888C276.485 112.832 276.334 112.828 276.195 112.875C276.055 112.923 275.935 113.019 275.856 113.149C275.718 113.346 275.608 113.562 275.528 113.791C275.483 113.898 275.444 114.006 275.406 114.113C275.171 114.754 274.985 115.197 274.697 115.168C274.65 115.164 274.607 115.142 274.575 115.106C274.434 114.912 274.504 114.318 274.563 113.798C274.572 113.731 274.575 113.668 274.586 113.601C274.615 113.353 274.632 113.104 274.636 112.855C274.64 112.818 274.64 112.781 274.636 112.744C274.651 112.456 274.573 112.172 274.415 111.936L274.403 111.921C274.373 111.888 274.342 111.856 274.309 111.826C274.183 111.727 274.033 111.669 273.877 111.659H273.857C273.832 111.656 273.807 111.66 273.784 111.67H273.718C273.42 111.695 273.223 111.98 273.079 112.37C273.026 112.505 272.979 112.653 272.932 112.809C272.908 112.904 272.883 112.992 272.859 113.101C272.826 113.244 272.793 113.393 272.758 113.543C272.688 113.896 272.587 114.242 272.457 114.577C272.449 114.607 272.434 114.635 272.413 114.657C272.363 114.618 272.321 114.569 272.289 114.513C272.07 114.179 272.045 113.49 272.025 112.871V112.844C272.02 112.821 272.02 112.798 272.025 112.775C272.016 112.484 271.994 112.195 271.957 111.907C271.94 111.557 271.818 111.221 271.608 110.947C271.489 110.813 271.329 110.726 271.155 110.701C271.05 110.683 270.941 110.691 270.839 110.724C270.737 110.758 270.644 110.817 270.568 110.896C270.402 111.096 270.292 111.339 270.249 111.6C270.222 111.738 270.202 111.876 270.19 112.016V112.031C270.174 112.222 270.164 112.426 270.166 112.66C270.166 112.751 270.166 112.833 270.166 112.93C270.162 112.948 270.162 112.967 270.166 112.985C270.18 113.438 270.219 113.889 270.281 114.338C270.284 114.366 270.292 114.394 270.306 114.419C270.319 114.444 270.337 114.465 270.359 114.482C270.381 114.499 270.406 114.512 270.433 114.518C270.46 114.525 270.487 114.525 270.514 114.52C270.568 114.511 270.616 114.481 270.649 114.435C270.681 114.389 270.695 114.332 270.688 114.276C270.662 114.117 270.64 113.937 270.622 113.743C270.596 113.481 270.579 113.196 270.573 112.908C270.56 112.68 270.56 112.451 270.573 112.222C270.573 112.16 270.573 112.098 270.589 112.04C270.629 111.657 270.702 111.345 270.842 111.201C270.87 111.169 270.906 111.146 270.946 111.134C270.986 111.122 271.028 111.121 271.068 111.132C271.322 111.172 271.446 111.447 271.509 111.883C271.538 112.091 271.559 112.333 271.572 112.602C271.572 112.691 271.584 112.784 271.586 112.87V112.892C271.587 113.372 271.638 113.852 271.737 114.321C271.795 114.61 271.953 114.866 272.18 115.04C272.183 115.041 272.186 115.042 272.19 115.042C272.194 115.042 272.197 115.041 272.201 115.04C272.249 115.074 272.305 115.095 272.363 115.101C272.421 115.107 272.48 115.097 272.533 115.073C272.675 114.997 272.782 114.866 272.833 114.708C272.856 114.666 272.873 114.62 272.885 114.573C272.984 114.269 273.067 113.96 273.134 113.647C273.167 113.51 273.194 113.38 273.227 113.245C273.262 113.09 273.302 112.941 273.342 112.799C273.373 112.698 273.41 112.603 273.441 112.516C273.441 112.516 273.441 112.516 273.441 112.503C273.502 112.348 273.626 112.093 273.749 112.1C273.797 112.099 273.844 112.108 273.887 112.129C273.931 112.149 273.969 112.179 274 112.217C274.037 112.265 274.065 112.32 274.084 112.379C274.114 112.498 274.132 112.621 274.138 112.744V112.764C274.138 113.011 274.121 113.258 274.087 113.503C274.077 113.592 274.073 113.674 274.063 113.756C274.004 114.254 273.948 114.732 274.035 115.08C274.055 115.188 274.099 115.29 274.164 115.377C274.212 115.441 274.272 115.494 274.341 115.533C274.409 115.572 274.484 115.597 274.561 115.605H274.606C274.715 115.61 274.822 115.588 274.921 115.542C275.02 115.496 275.108 115.428 275.178 115.341C275.408 115.078 275.559 114.661 275.701 114.27C275.755 114.115 275.807 113.973 275.852 113.86C276.039 113.402 276.18 113.225 276.392 113.313C276.547 113.362 276.594 113.605 276.627 113.964C276.627 113.999 276.627 114.026 276.627 114.061C276.678 114.635 276.76 115.498 277.76 115.456C278.338 115.434 278.502 114.768 278.641 114.082C278.652 114.028 278.661 113.98 278.669 113.926C278.697 113.763 278.732 113.586 278.774 113.422C278.857 113.043 278.981 112.693 279.19 112.567C279.219 112.541 279.254 112.524 279.291 112.518C279.365 112.503 279.441 112.503 279.514 112.518H279.535C279.594 112.524 279.653 112.536 279.709 112.554C279.924 112.622 279.988 112.919 279.999 113.355C280.009 113.499 280.013 113.643 280.009 113.787C280.009 113.876 280.009 113.969 280.009 114.062C280.009 114.544 280.054 114.974 280.31 115.228C280.388 115.298 280.479 115.35 280.577 115.381C280.675 115.413 280.778 115.423 280.88 115.41C281.697 115.345 281.905 114.462 282.044 113.783C282.044 113.756 282.044 113.729 282.061 113.701C282.112 113.477 282.19 113.09 282.265 113.032C282.298 113.04 282.329 113.056 282.356 113.079C282.536 113.219 282.674 113.408 282.755 113.627C282.842 113.838 282.91 114.068 282.978 114.285C283.044 114.555 283.143 114.814 283.274 115.056L283.291 115.078C283.345 115.174 283.423 115.253 283.517 115.306C283.611 115.358 283.716 115.382 283.823 115.376C283.872 115.372 283.92 115.362 283.967 115.348C284.196 115.282 284.403 115.152 284.567 114.973C284.731 114.793 284.846 114.571 284.899 114.329C285.016 113.931 285.076 113.519 285.079 113.103Z" fill="#FFB93E"/>
<path d="M270.796 115.459C270.796 115.459 273.41 115.348 274.051 112.634C274.692 109.921 277.946 112.284 280.425 111.857C282.905 111.431 286.149 109.851 286.783 111.081C287.417 112.31 286.584 115.21 285.534 115.881C284.483 116.552 278.234 119.601 270.796 115.459Z" fill="white"/>
<path d="M275.983 118.177C275.983 118.177 277.695 117.61 278.279 116.639C278.863 115.669 280.843 114.331 281.181 115.264C281.519 116.198 280.76 117.635 280.76 117.635C280.76 117.635 279.124 118.691 277.957 118.547C277.291 118.475 276.631 118.351 275.983 118.177Z" fill="#FFCC99"/>
<path d="M221.898 293.022C220.232 288.971 217.097 285.778 213.183 284.147C209.268 282.515 204.895 282.578 201.025 284.322C199.903 284.828 198.772 285.314 197.632 285.781C188.85 288.792 179.822 290.949 170.663 292.227C165.01 293.03 159.318 293.488 153.615 293.598C147.912 293.488 142.219 293.03 136.566 292.227C127.409 290.947 118.383 288.788 109.604 285.776C108.465 285.31 107.334 284.824 106.21 284.317C102.361 282.569 98.0072 282.487 94.1001 284.088C90.1929 285.69 87.0498 288.844 85.357 292.863C83.6643 296.882 83.5594 301.44 85.0654 305.539C86.5714 309.639 89.5659 312.949 93.3949 314.745L93.3148 314.944C93.7346 315.126 95.7538 315.99 99.0971 317.174C117.238 324.382 135.281 326.86 151.502 326.86C152.213 326.86 152.92 326.855 153.622 326.846C154.326 326.854 155.033 326.859 155.742 326.86C171.962 326.86 190.004 324.382 208.147 317.174C211.491 315.99 213.51 315.126 213.928 314.944L213.848 314.745C217.641 312.951 220.61 309.669 222.116 305.606C223.621 301.544 223.543 297.025 221.898 293.022Z" fill="#FFB985"/>
<path d="M155.704 313.472C121.754 313.472 95.8793 302.447 94.2625 301.743C91.0335 300.278 88.4845 297.542 87.1656 294.127C85.8467 290.711 85.8639 286.89 87.2134 283.487C88.5629 280.085 91.1364 277.374 94.3784 275.941C97.6204 274.508 101.271 274.467 104.541 275.827C104.951 276.009 117.702 281.364 136.075 283.968C152.741 286.328 177.713 286.845 201.992 275.9C203.611 275.161 205.353 274.764 207.118 274.732C208.884 274.7 210.638 275.033 212.28 275.713C213.922 276.392 215.42 277.405 216.687 278.692C217.954 279.979 218.965 281.516 219.664 283.214C220.362 284.912 220.733 286.737 220.755 288.585C220.777 290.434 220.45 292.268 219.793 293.984C219.136 295.7 218.161 297.263 216.926 298.583C215.69 299.903 214.217 300.955 212.592 301.677C192.973 310.517 173.258 313.472 155.704 313.472Z" fill="#D34B48"/>
<path d="M221.898 265.189C220.232 261.138 217.097 257.945 213.183 256.314C209.268 254.682 204.895 254.746 201.025 256.489C199.903 256.994 198.772 257.48 197.632 257.948C188.85 260.959 179.822 263.116 170.663 264.394C165.01 265.197 159.318 265.655 153.615 265.765C147.912 265.656 142.219 265.198 136.566 264.394C127.409 263.114 118.383 260.955 109.604 257.943C108.465 257.478 107.334 256.992 106.21 256.484C102.361 254.736 98.0072 254.654 94.1001 256.255C90.1929 257.857 87.0498 261.011 85.357 265.03C83.6643 269.05 83.5594 273.607 85.0654 277.706C86.5714 281.806 89.5659 285.116 93.3949 286.912L93.3148 287.113C93.7346 287.295 95.7538 288.158 99.0971 289.341C117.238 296.549 135.281 299.027 151.502 299.027C152.213 299.027 152.92 299.023 153.622 299.013C154.326 299.023 155.033 299.027 155.742 299.027C171.962 299.027 190.004 296.549 208.147 289.341C211.491 288.158 213.51 287.293 213.928 287.113L213.848 286.912C217.641 285.118 220.61 281.836 222.116 277.774C223.621 273.711 223.543 269.192 221.898 265.189Z" fill="#FFB985"/>
<path d="M217.928 287.228C217.891 286.775 217.857 286.348 217.824 285.951C217.778 285.422 217.729 284.818 217.703 284.342C217.689 284.116 217.684 283.921 217.684 283.773C217.849 283.404 217.896 282.988 217.818 282.589C217.74 282.189 217.542 281.826 217.253 281.553C216.964 281.28 216.598 281.111 216.21 281.071C215.823 281.032 215.433 281.124 215.099 281.333C214.146 281.931 213.989 282.891 214.071 284.556C214.097 285.063 214.142 285.63 214.196 286.277C214.21 286.423 214.221 286.573 214.235 286.728C214.613 291.382 215.106 299.055 210.802 302.478C210.142 303.001 209.404 303.407 208.618 303.678C208.312 303.803 207.98 303.84 207.656 303.786C206.527 303.558 205.646 301.816 204.01 297.145C203.376 295.342 202.712 293.443 201.881 291.652C200.835 289.385 199.517 287.286 197.673 285.759C197.273 285.422 196.848 285.117 196.403 284.847C194.848 283.905 193.442 283.735 192.222 284.34C190.875 285.01 190.131 286.4 189.609 288.267C189.222 289.671 188.962 291.346 188.68 293.191C188.56 293.976 188.44 294.738 188.311 295.475C187.346 300.995 186.008 305.059 182.133 305.575C180.804 305.757 180.217 305.392 179.879 305.101C178.549 303.941 178.154 300.724 177.934 297.419C177.887 296.704 177.851 295.984 177.812 295.283C177.741 293.903 177.664 292.476 177.529 291.088C177.253 288.316 176.741 285.677 175.516 283.779C174.665 282.417 173.339 281.459 171.821 281.107C168.823 280.377 166.297 280.718 164.318 282.139C163.226 282.941 162.323 283.991 161.676 285.212C160.425 287.474 159.769 290.355 159.279 293.37C159.086 294.565 158.918 295.783 158.756 296.992C158.661 297.692 158.567 298.365 158.472 299.009C157.715 304.132 156.882 307.411 154.687 307.63C149.866 308.114 148.965 305.409 148.054 299.124C148.054 299.082 148.042 299.038 148.037 298.995C147.756 297.06 147.45 295.008 146.751 293.292C146.04 291.543 144.92 290.14 143.007 289.564C139.995 288.652 137.92 289.95 136.387 292.197C135.289 293.8 134.458 295.891 133.753 298.012C133.429 298.982 133.131 299.959 132.843 300.9C131.101 306.634 129.662 310.67 127.066 310.514C126.46 310.474 126.195 310.246 126.01 310.03C124.641 308.389 124.988 303.169 125.291 298.562C125.331 297.971 125.369 297.375 125.406 296.784C125.569 294.608 125.62 292.424 125.559 290.242C125.423 286.985 124.824 284.122 123.176 282.218C122.89 281.887 122.572 281.587 122.228 281.324C121.15 280.5 119.831 280.06 118.292 280.016H118.141C117.882 280.016 117.623 280.037 117.367 280.08C114.81 280.509 113.207 283.077 112.055 286.595C111.404 288.586 110.895 290.879 110.439 293.264C110.197 294.541 109.968 295.849 109.742 297.145C109.24 300.018 108.458 304.481 107.625 306.41C107.526 306.662 107.394 306.899 107.235 307.114C106.769 306.806 106.363 306.406 106.041 305.938C104 303.069 103.463 297.001 102.984 291.564C102.963 291.309 102.939 291.05 102.918 290.795C102.681 288.159 102.428 285.515 101.996 283.102C101.376 279.637 100.383 276.635 98.5413 274.782C97.4279 273.663 95.9789 272.982 94.4402 272.854C92.4489 272.65 90.7033 273.339 89.4001 274.86C88.1806 276.277 87.3548 278.404 86.907 281.278C86.7302 282.452 86.6168 283.635 86.5673 284.822C86.4859 286.727 86.4993 288.634 86.6074 290.538C86.6457 291.298 86.6962 292.09 86.7607 292.909C86.7781 293.111 86.7938 293.313 86.8095 293.516C87.1546 297.472 87.7001 301.406 88.4436 305.301C88.5496 305.789 88.8343 306.213 89.2365 306.483C89.6387 306.753 90.126 306.847 90.5935 306.744C91.061 306.641 91.471 306.35 91.7354 305.933C91.9997 305.517 92.097 305.008 92.0064 304.517C91.7242 303.116 91.4507 301.544 91.2033 299.87C90.5691 295.591 90.1092 290.689 90.158 286.478C90.158 285.944 90.1806 285.42 90.2067 284.915C90.3705 281.534 90.935 278.763 92.1005 277.401C92.6231 276.792 93.2346 276.56 94.0726 276.644C96.3148 276.878 97.4995 279.263 98.2539 283.053C98.6128 284.858 98.8758 286.987 99.111 289.352C99.1929 290.177 99.2713 291.034 99.3497 291.906C99.74 296.315 100.134 300.813 101.292 304.389C102.163 307.089 103.473 309.263 105.538 310.481C106.571 311.092 107.676 311.165 108.65 310.689C109.735 310.154 110.51 309.066 111.143 307.406C111.982 305.217 112.576 302.028 113.313 297.826C113.522 296.633 113.731 295.427 113.958 294.245C114.409 291.845 114.911 289.551 115.54 287.665C115.559 287.612 115.575 287.561 115.594 287.508C116.068 286.128 117.026 283.821 118.16 283.821H118.184C119.531 283.861 120.137 284.384 120.475 284.773C121.303 285.728 121.695 287.379 121.869 289.374C122.043 291.369 121.941 293.751 121.805 296.087C121.761 296.828 121.712 297.565 121.664 298.287C121.371 302.708 121.089 306.95 121.984 309.979C122.237 310.917 122.678 311.787 123.277 312.533C123.727 313.065 124.275 313.497 124.889 313.802C125.502 314.106 126.168 314.278 126.847 314.307C126.993 314.318 127.138 314.322 127.28 314.322C129.357 314.322 130.927 313.32 132.172 311.754C134.099 309.326 135.249 305.553 136.315 302.049C136.737 300.663 137.127 299.447 137.498 298.402C138.946 294.276 140.12 292.659 142.009 293.226C143.375 293.64 143.866 295.714 144.343 298.869C144.385 299.137 144.427 299.416 144.467 299.695C145.194 304.716 146.295 312.303 155.044 311.426C160.168 310.913 161.324 305.006 162.187 298.903C162.251 298.447 162.314 297.992 162.375 297.532C162.574 296.073 162.784 294.552 163.044 293.091C163.659 289.68 164.57 286.584 166.387 285.283C166.647 285.097 166.929 284.946 167.225 284.833C168.015 284.552 168.855 284.467 169.682 284.583C170.127 284.63 170.569 284.709 171.004 284.82C172.9 285.283 173.579 287.88 173.934 291.725C174.042 292.878 174.119 294.141 174.192 295.497C174.236 296.312 174.278 297.12 174.33 297.909C174.612 302.15 175.173 305.945 177.562 308.026C178.88 309.177 180.576 309.624 182.614 309.354C189.757 308.4 191.238 300.6 192.182 294.545C192.222 294.291 192.259 294.041 192.297 293.793C192.609 291.749 193.13 288.351 193.78 287.8C194.071 287.856 194.349 287.974 194.595 288.147C196.196 289.117 197.382 290.82 198.367 292.792C199.248 294.574 199.947 296.573 200.607 298.446C201.497 300.988 202.337 303.388 203.539 305.088C203.59 305.157 203.64 305.228 203.693 305.296C205.715 307.993 208.12 307.875 209.79 307.284C214.4 305.659 216.545 301.971 217.477 297.94C218.325 294.22 218.142 290.195 217.928 287.228Z" fill="#FFCC7B"/>
</g>
<defs>
<filter id="filter0_d_101_1888" x="0.000305176" y="0.998009" width="522" height="341.168" filterUnits="userSpaceOnUse" color-interpolation-filters="sRGB">
<feFlood flood-opacity="0" result="BackgroundImageFix"/>
<feColorMatrix in="SourceAlpha" type="matrix" values="0 0 0 0 0 0 0 0 0 0 0 0 0 0 0 0 0 0 127 0" result="hardAlpha"/>
<feOffset dy="4"/>
<feGaussianBlur stdDeviation="2"/>
<feComposite in2="hardAlpha" operator="out"/>
<feColorMatrix type="matrix" values="0 0 0 0 0 0 0 0 0 0 0 0 0 0 0 0 0 0 0.25 0"/>
<feBlend mode="normal" in2="BackgroundImageFix" result="effect1_dropShadow_101_1888"/>
<feBlend mode="normal" in="SourceGraphic" in2="effect1_dropShadow_101_1888" result="shape"/>
</filter>
</defs>
</svg>
