<svg width="397" height="433" viewBox="0 0 397 433" fill="none" xmlns="http://www.w3.org/2000/svg">
<g clip-path="url(#clip0_1_16)">
<path d="M397 426.876C397 430.265 308.127 433.013 198.5 433.013C88.8729 433.013 0 430.265 0 426.876C0 423.487 88.8729 420.752 198.5 420.752C308.127 420.752 397 423.5 397 426.876Z" fill="url(#paint0_radial_1_16)"/>
<path d="M254.713 7.63883H247.701" stroke="#DF33FF" stroke-width="4" stroke-miterlimit="10" stroke-linecap="round"/>
<path d="M225.907 7.63883H218.895" stroke="#DF33FF" stroke-width="4" stroke-miterlimit="10" stroke-linecap="round"/>
<path d="M226.973 28.9762H208.646" stroke="#DF33FF" stroke-width="4" stroke-miterlimit="10" stroke-linecap="round"/>
<path d="M198.937 28.9762H193.902" stroke="#DF33FF" stroke-width="4" stroke-miterlimit="10" stroke-linecap="round"/>
<path d="M208.389 83.6164H190.062" stroke="#DF33FF" stroke-width="4" stroke-miterlimit="10" stroke-linecap="round"/>
<path d="M176.988 99.2278H158.661" stroke="#DF33FF" stroke-width="4" stroke-miterlimit="10" stroke-linecap="round"/>
<path d="M224.443 83.6164H217.97" stroke="#DF33FF" stroke-width="4" stroke-miterlimit="10" stroke-linecap="round"/>
<path d="M178.76 110.949H160.434" stroke="#DF33FF" stroke-width="4" stroke-miterlimit="10" stroke-linecap="round"/>
<path d="M222.169 149.708H203.843" stroke="#DF33FF" stroke-width="4" stroke-miterlimit="10" stroke-linecap="round"/>
<path d="M195.662 169.582H177.335" stroke="#DF33FF" stroke-width="4" stroke-miterlimit="10" stroke-linecap="round"/>
<path d="M189.035 149.708H147.514" stroke="#DF33FF" stroke-width="4" stroke-miterlimit="10" stroke-linecap="round"/>
<path d="M247.342 174.872H205.833" stroke="#DF33FF" stroke-width="4" stroke-miterlimit="10" stroke-linecap="round"/>
<path d="M261.083 233.992H219.562" stroke="#DF33FF" stroke-width="4" stroke-miterlimit="10" stroke-linecap="round"/>
<path d="M251.824 276.385H210.315" stroke="#DF33FF" stroke-width="4" stroke-miterlimit="10" stroke-linecap="round"/>
<path d="M186.119 307.723H144.611" stroke="#DF33FF" stroke-width="4" stroke-miterlimit="10" stroke-linecap="round"/>
<path d="M107.598 307.723H92.8414" stroke="#DF33FF" stroke-width="4" stroke-miterlimit="10" stroke-linecap="round"/>
<path d="M152.073 340.564H110.565" stroke="#DF33FF" stroke-width="4" stroke-miterlimit="10" stroke-linecap="round"/>
<path d="M235.398 264.137H193.889" stroke="#DF33FF" stroke-width="4" stroke-miterlimit="10" stroke-linecap="round"/>
<path d="M216.891 296.682H175.37" stroke="#DF33FF" stroke-width="4" stroke-miterlimit="10" stroke-linecap="round"/>
<path d="M178.953 264.137H162.553" stroke="#DF33FF" stroke-width="4" stroke-miterlimit="10" stroke-linecap="round"/>
<path d="M178.362 316.684H161.949" stroke="#DF33FF" stroke-width="4" stroke-miterlimit="10" stroke-linecap="round"/>
<path d="M98.0299 399.081H81.6167" stroke="#DF33FF" stroke-width="4" stroke-miterlimit="10" stroke-linecap="round"/>
<path d="M54.7622 399.081H38.3618" stroke="#DF33FF" stroke-width="4" stroke-miterlimit="10" stroke-linecap="round"/>
<path d="M107.598 366.317H91.1975" stroke="#DF33FF" stroke-width="4" stroke-miterlimit="10" stroke-linecap="round"/>
<path d="M51.0634 366.317H34.663" stroke="#DF33FF" stroke-width="4" stroke-miterlimit="10" stroke-linecap="round"/>
<path d="M203.766 233.992H191.501" stroke="#DF33FF" stroke-width="4" stroke-miterlimit="10" stroke-linecap="round"/>
<path d="M268.25 205.324H226.729" stroke="#DF33FF" stroke-width="4" stroke-miterlimit="10" stroke-linecap="round"/>
<path d="M178.671 205.324H161.756" stroke="#DF33FF" stroke-width="4" stroke-miterlimit="10" stroke-linecap="round"/>
<path d="M268.25 244.43H226.729" stroke="#DF33FF" stroke-width="4" stroke-miterlimit="10" stroke-linecap="round"/>
<path d="M194.814 110.949H188.354" stroke="#DF33FF" stroke-width="4" stroke-miterlimit="10" stroke-linecap="round"/>
<path d="M227.795 162.29H221.335" stroke="#DF33FF" stroke-width="4" stroke-miterlimit="10" stroke-linecap="round"/>
<path d="M126.182 162.29H119.709" stroke="#DF33FF" stroke-width="4" stroke-miterlimit="10" stroke-linecap="round"/>
<path d="M268.224 142.416H261.751" stroke="#DF33FF" stroke-width="4" stroke-miterlimit="10" stroke-linecap="round"/>
<path d="M195.662 187.466H189.189" stroke="#DF33FF" stroke-width="4" stroke-miterlimit="10" stroke-linecap="round"/>
<path d="M158.327 330.46H151.867" stroke="#DF33FF" stroke-width="4" stroke-miterlimit="10" stroke-linecap="round"/>
<path d="M119.157 330.46H112.697" stroke="#DF33FF" stroke-width="4" stroke-miterlimit="10" stroke-linecap="round"/>
<path d="M104.015 377.358H97.5547" stroke="#DF33FF" stroke-width="4" stroke-miterlimit="10" stroke-linecap="round"/>
<path d="M340.851 307.723H299.33" stroke="#DF33FF" stroke-width="4" stroke-miterlimit="10" stroke-linecap="round"/>
<path d="M262.329 307.723H247.56" stroke="#DF33FF" stroke-width="4" stroke-miterlimit="10" stroke-linecap="round"/>
<path d="M317.4 340.564H275.891" stroke="#DF33FF" stroke-width="4" stroke-miterlimit="10" stroke-linecap="round"/>
<path d="M352.358 276.95H310.85" stroke="#DF33FF" stroke-width="4" stroke-miterlimit="10" stroke-linecap="round"/>
<path d="M357.148 296.682H314.15" stroke="#DF33FF" stroke-width="4" stroke-miterlimit="10" stroke-linecap="round"/>
<path d="M315.576 267.449H299.163" stroke="#DF33FF" stroke-width="4" stroke-miterlimit="10" stroke-linecap="round"/>
<path d="M333.081 316.684H316.68" stroke="#DF33FF" stroke-width="4" stroke-miterlimit="10" stroke-linecap="round"/>
<path d="M307.96 399.081H291.56" stroke="#DF33FF" stroke-width="4" stroke-miterlimit="10" stroke-linecap="round"/>
<path d="M245.544 399.081H229.13" stroke="#DF33FF" stroke-width="4" stroke-miterlimit="10" stroke-linecap="round"/>
<path d="M262.329 366.317H245.916" stroke="#DF33FF" stroke-width="4" stroke-miterlimit="10" stroke-linecap="round"/>
<path d="M205.782 366.317H189.382" stroke="#DF33FF" stroke-width="4" stroke-miterlimit="10" stroke-linecap="round"/>
<path d="M313.046 330.46H306.586" stroke="#DF33FF" stroke-width="4" stroke-miterlimit="10" stroke-linecap="round"/>
<path d="M273.888 330.46H267.415" stroke="#DF33FF" stroke-width="4" stroke-miterlimit="10" stroke-linecap="round"/>
<path d="M285.947 377.358H279.487" stroke="#DF33FF" stroke-width="4" stroke-miterlimit="10" stroke-linecap="round"/>
<path d="M23.13 377.358H16.67" stroke="#DF33FF" stroke-width="4" stroke-miterlimit="10" stroke-linecap="round"/>
<path d="M182.344 65.1291H175.884" stroke="#DF33FF" stroke-width="4" stroke-miterlimit="10" stroke-linecap="round"/>
<path d="M157.557 130.489H151.084" stroke="#DF33FF" stroke-width="4" stroke-miterlimit="10" stroke-linecap="round"/>
<path d="M221.206 56.2193H193.658" stroke="#DF33FF" stroke-width="4" stroke-miterlimit="10" stroke-linecap="round"/>
<path d="M213.924 132.389H186.363" stroke="#DF33FF" stroke-width="4" stroke-miterlimit="10" stroke-linecap="round"/>
<path d="M276.212 119.474H248.664" stroke="#DF33FF" stroke-width="4" stroke-miterlimit="10" stroke-linecap="round"/>
<path d="M377.171 266.756C373.395 261.621 353.835 238.511 341.39 230.308C331.543 223.889 321.3 218.1 310.721 212.976C307.613 211.692 306.945 210.318 307.613 207.43C308.281 204.541 315.833 186.76 317.888 175.655C319.942 164.549 320.109 144.778 320.109 144.778C320.109 144.778 327.969 144.997 331.578 139.861C335.508 134.289 338.539 123.788 340.44 111.013C342.854 94.7472 344.627 85.4394 346.399 77.7235C347.131 74.5268 356.352 72.0361 351.716 65.5784C348.171 60.6357 339.117 54.9996 336.009 58.1065C334.237 59.8782 332.593 62.6641 334.725 68.7367C336.625 74.116 335.367 84.1427 331.488 93.7202C328.637 100.768 326.158 106.79 325.478 108.831C325.041 110.115 323.962 110.885 322.434 107.714C321.612 106.006 312.16 93.6688 309.437 87.5963C306.714 81.5237 303.362 71.8692 303.722 68.8394C304.081 65.8095 309.437 66.5156 310.143 62.4202C310.947 58.2877 312.081 54.2263 313.534 50.2751C314.253 48.6703 318.003 49.9156 316.578 46.706C315.152 43.4964 311.929 40.8132 312.288 35.986C312.648 31.1587 313.714 19.7326 307.279 11.8755C300.845 4.01841 293.704 -0.629081 282.094 0.0898684C270.484 0.808818 256.177 6.86853 258.669 25.2146C246.52 27.3586 234.91 32.0061 233.124 43.4322C231.339 54.8584 227.987 70.9449 220.282 70.5854C225.65 72.9091 233.587 67.4143 237.273 50.6346C238.454 66.7467 241.716 79.6621 238.685 81.4467C225.534 88.9443 208.402 99.2278 198.243 107.573C193.581 111.424 191.282 113.992 192.798 116.47C194.313 118.948 203.2 138.629 209.75 145.998C216.3 153.367 231.737 167.644 232.739 171.675C233.741 175.706 237.607 191.651 242.307 193.667C244.757 194.876 247.557 195.171 250.206 194.501C250.206 194.501 241.472 206.916 241.305 219.331C241.138 231.746 240.471 241.657 235.77 248.859C231.07 256.061 218.111 276.847 214.592 285.423C211.073 293.999 207.708 295.822 202.674 298.839C197.639 301.856 173.302 309.11 162.052 323.681C150.801 338.253 131.499 358.743 128.147 360.592C124.795 362.44 122.778 361.875 121.43 360.091C120.081 358.306 115.625 357.908 112.44 357.433C110.34 357.073 108.203 356.991 106.082 357.189C104.798 357.305 103.45 358.743 102.73 362.941C102.011 367.139 100.162 383.328 98.8775 388.477C97.5932 393.625 95.7567 402.599 95.8723 408.864C95.9879 415.129 97.041 429.174 104.978 428.969C108.51 428.879 109.82 427.146 108.908 420.804C107.996 414.461 110.423 402.355 117.384 396.603C124.345 390.852 128.57 390.248 127.658 386.923C127.118 385.162 126.909 383.317 127.042 381.48C127.042 381.48 183.024 340.654 196.638 333.092C210.251 325.53 217.816 325.825 221.746 322.5C225.676 319.175 233.857 310.406 242.025 302.536C250.193 294.667 271.974 267.449 275.005 262.917C278.036 258.385 279.243 255.047 282.261 256.87C285.279 258.693 310.079 268.746 326.081 273.188C342.084 277.63 346.746 280.082 344.755 281.636C342.764 283.189 327.854 298.325 324.527 310.74C321.201 323.155 318.748 328.714 313.405 336.07C308.063 343.427 302.528 356.509 297.39 358.293C292.875 359.797 288.717 362.214 285.177 365.393C282.724 367.845 279.166 371.401 281.324 374.059C283.481 376.717 303.773 404.948 312.224 410.725C320.675 416.503 328.92 419.61 333.556 417.607C338.192 415.604 335.778 410.058 331.116 409.172C326.454 408.286 318.889 400.506 318.003 392.058C317.117 383.611 314.446 365.175 319.108 358.512C323.77 351.849 353.899 318.52 361.605 308.301C369.311 298.081 380.715 286.745 381.165 281.186C381.614 275.627 380.959 271.866 377.171 266.756ZM253.416 37.0901C254.919 35.1258 260.916 34.9076 260.916 34.9076C260.801 36.9745 265.193 44.2539 268.198 47.2452C271.204 50.2366 272.578 52.7914 272.462 56.9382C272.347 61.085 270.96 63.8709 268.609 62.9466C266.259 62.0222 262.599 61.3289 260.518 53.8313C258.438 46.3337 258.322 45.2938 255.214 42.5207C252.106 39.7476 251.914 39.0543 253.416 37.0901ZM263.228 181.586C262.304 179.391 256.884 173.742 247.817 169.004C238.75 164.267 229.117 146.383 226.343 141.081C223.569 135.779 217.918 124.686 217.109 122.491C216.3 120.296 215.722 116.958 221.733 113.722C227.743 110.487 242.05 103.285 246.134 102.168C247.419 101.821 248.78 101.59 250.283 105.519C251.785 109.447 258.245 127.1 261.019 135.637C263.793 144.175 269.791 154.446 272.334 163.805C274.877 173.164 268.314 180.559 263.228 181.586Z" fill="url(#paint1_linear_1_16)"/>
<path d="M311.993 367.049C312.237 373.545 312.725 388.952 315.126 395.461C317.156 400.943 321.548 409.005 331.334 409.21H331.167C326.505 408.312 318.941 400.545 318.055 392.097C317.168 383.649 314.497 365.213 319.159 358.55C322.229 354.185 336.163 338.355 347.606 325.093C337.011 335.056 329.202 342.181 321.15 350.244C315.191 356.162 311.762 360.553 311.993 367.049Z" fill="#DF33FF"/>
<path d="M271.345 14.2763H224.468C223.787 14.2763 223.134 14.0058 222.652 13.5242C222.17 13.0427 221.9 12.3896 221.9 11.7086C221.9 11.0276 222.17 10.3745 222.652 9.89298C223.134 9.41145 223.787 9.14093 224.468 9.14093H271.345C272.026 9.14093 272.68 9.41145 273.161 9.89298C273.643 10.3745 273.914 11.0276 273.914 11.7086C273.914 12.3896 273.643 13.0427 273.161 13.5242C272.68 14.0058 272.026 14.2763 271.345 14.2763Z" fill="url(#paint2_linear_1_16)"/>
<path d="M243.45 55.4618H217.097C216.415 55.4618 215.762 55.1913 215.28 54.7097C214.799 54.2282 214.528 53.5751 214.528 52.8941C214.528 52.2131 214.799 51.56 215.28 51.0785C215.762 50.597 216.415 50.3264 217.097 50.3264H243.45C244.131 50.3264 244.785 50.597 245.266 51.0785C245.748 51.56 246.019 52.2131 246.019 52.8941C246.019 53.5751 245.748 54.2282 245.266 54.7097C244.785 55.1913 244.131 55.4618 243.45 55.4618Z" fill="url(#paint3_linear_1_16)"/>
<path d="M284.291 22.8138H248.395C247.714 22.8138 247.06 22.5433 246.578 22.0617C246.097 21.5802 245.826 20.9271 245.826 20.2461C245.826 19.5651 246.097 18.912 246.578 18.4305C247.06 17.949 247.714 17.6784 248.395 17.6784H284.291C284.972 17.6784 285.625 17.949 286.107 18.4305C286.589 18.912 286.859 19.5651 286.859 20.2461C286.859 20.9271 286.589 21.5802 286.107 22.0617C285.625 22.5433 284.972 22.8138 284.291 22.8138Z" fill="url(#paint4_linear_1_16)"/>
<path d="M253.956 35.4853H218.06C217.379 35.4853 216.725 35.2148 216.244 34.7332C215.762 34.2517 215.491 33.5986 215.491 32.9176C215.491 32.2366 215.762 31.5835 216.244 31.102C216.725 30.6205 217.379 30.3499 218.06 30.3499H253.956C254.637 30.3499 255.29 30.6205 255.772 31.102C256.254 31.5835 256.524 32.2366 256.524 32.9176C256.524 33.5986 256.254 34.2517 255.772 34.7332C255.29 35.2148 254.637 35.4853 253.956 35.4853Z" fill="url(#paint5_linear_1_16)"/>
<path d="M240.175 44.0356H204.279C203.598 44.0356 202.945 43.7651 202.463 43.2836C201.981 42.802 201.711 42.149 201.711 41.468C201.711 40.787 201.981 40.1339 202.463 39.6523C202.945 39.1708 203.598 38.9003 204.279 38.9003H240.175C240.856 38.9003 241.51 39.1708 241.991 39.6523C242.473 40.1339 242.744 40.787 242.744 41.468C242.744 42.149 242.473 42.802 241.991 43.2836C241.51 43.7651 240.856 44.0356 240.175 44.0356Z" fill="url(#paint6_linear_1_16)"/>
<path d="M150.069 44.0356H114.173C113.492 44.0356 112.839 43.7651 112.357 43.2836C111.875 42.802 111.605 42.149 111.605 41.468C111.605 40.787 111.875 40.1339 112.357 39.6523C112.839 39.1708 113.492 38.9003 114.173 38.9003H150.069C150.751 38.9003 151.404 39.1708 151.886 39.6523C152.367 40.1339 152.638 40.787 152.638 41.468C152.638 42.149 152.367 42.802 151.886 43.2836C151.404 43.7651 150.751 44.0356 150.069 44.0356Z" fill="url(#paint7_linear_1_16)"/>
<path d="M196.83 44.0356H189.934C189.253 44.0356 188.599 43.7651 188.118 43.2836C187.636 42.802 187.365 42.149 187.365 41.468C187.365 40.787 187.636 40.1339 188.118 39.6523C188.599 39.1708 189.253 38.9003 189.934 38.9003H196.83C197.512 38.9003 198.165 39.1708 198.647 39.6523C199.128 40.1339 199.399 40.787 199.399 41.468C199.399 42.149 199.128 42.802 198.647 43.2836C198.165 43.7651 197.512 44.0356 196.83 44.0356Z" fill="url(#paint8_linear_1_16)"/>
<path d="M238.865 22.8138H233.985C233.304 22.8138 232.65 22.5433 232.169 22.0617C231.687 21.5802 231.416 20.9271 231.416 20.2461C231.416 19.5651 231.687 18.912 232.169 18.4305C232.65 17.949 233.304 17.6784 233.985 17.6784H238.865C239.546 17.6784 240.2 17.949 240.682 18.4305C241.163 18.912 241.434 19.5651 241.434 20.2461C241.434 20.9271 241.163 21.5802 240.682 22.0617C240.2 22.5433 239.546 22.8138 238.865 22.8138Z" fill="url(#paint9_linear_1_16)"/>
<path d="M258.091 68.711H236.477C235.795 68.711 235.142 68.4405 234.66 67.959C234.179 67.4774 233.908 66.8243 233.908 66.1433C233.908 65.4623 234.179 64.8092 234.66 64.3277C235.142 63.8462 235.795 63.5757 236.477 63.5757H258.091C258.772 63.5757 259.426 63.8462 259.907 64.3277C260.389 64.8092 260.66 65.4623 260.66 66.1433C260.66 66.8243 260.389 67.4774 259.907 67.959C259.426 68.4405 258.772 68.711 258.091 68.711Z" fill="url(#paint10_linear_1_16)"/>
<path d="M207.708 109.948H181.406C180.725 109.948 180.072 109.677 179.59 109.196C179.108 108.714 178.838 108.061 178.838 107.38C178.838 106.699 179.108 106.046 179.59 105.565C180.072 105.083 180.725 104.813 181.406 104.813H207.708C208.39 104.813 209.043 105.083 209.525 105.565C210.006 106.046 210.277 106.699 210.277 107.38C210.277 108.061 210.006 108.714 209.525 109.196C209.043 109.677 208.39 109.948 207.708 109.948Z" fill="url(#paint11_linear_1_16)"/>
<path d="M271.037 77.2485H235.077C234.395 77.2485 233.742 76.978 233.26 76.4965C232.779 76.0149 232.508 75.3618 232.508 74.6809C232.508 73.9999 232.779 73.3468 233.26 72.8652C233.742 72.3837 234.395 72.1132 235.077 72.1132H271.037C271.718 72.1132 272.371 72.3837 272.853 72.8652C273.335 73.3468 273.605 73.9999 273.605 74.6809C273.605 75.3618 273.335 76.0149 272.853 76.4965C272.371 76.978 271.718 77.2485 271.037 77.2485Z" fill="url(#paint12_linear_1_16)"/>
<path d="M240.702 89.9329H204.742C204.06 89.9329 203.407 89.6623 202.925 89.1808C202.444 88.6993 202.173 88.0462 202.173 87.3652C202.173 86.6842 202.444 86.0311 202.925 85.5496C203.407 85.068 204.06 84.7975 204.742 84.7975H240.702C241.383 84.7975 242.036 85.068 242.518 85.5496C243 86.0311 243.27 86.6842 243.27 87.3652C243.27 88.0462 243 88.6993 242.518 89.1808C242.036 89.6623 241.383 89.9329 240.702 89.9329Z" fill="url(#paint13_linear_1_16)"/>
<path d="M104.837 89.9329H68.9408C68.2595 89.9329 67.6062 89.6623 67.1245 89.1808C66.6428 88.6993 66.3722 88.0462 66.3722 87.3652C66.3722 86.6842 66.6428 86.0311 67.1245 85.5496C67.6062 85.068 68.2595 84.7975 68.9408 84.7975H104.837C105.518 84.7975 106.171 85.068 106.653 85.5496C107.135 86.0311 107.405 86.6842 107.405 87.3652C107.405 88.0462 107.135 88.6993 106.653 89.1808C106.171 89.6623 105.518 89.9329 104.837 89.9329Z" fill="url(#paint14_linear_1_16)"/>
<path d="M226.921 98.4832H190.961C190.28 98.4832 189.627 98.2127 189.145 97.7311C188.663 97.2496 188.393 96.5965 188.393 95.9155C188.393 95.2346 188.663 94.5815 189.145 94.0999C189.627 93.6184 190.28 93.3479 190.961 93.3479H226.921C227.603 93.3479 228.256 93.6184 228.738 94.0999C229.219 94.5815 229.49 95.2346 229.49 95.9155C229.49 96.5965 229.219 97.2496 228.738 97.7311C228.256 98.2127 227.603 98.4832 226.921 98.4832Z" fill="url(#paint15_linear_1_16)"/>
<path d="M183.577 98.4832H176.667C175.986 98.4832 175.333 98.2127 174.851 97.7311C174.369 97.2496 174.099 96.5965 174.099 95.9155C174.099 95.2346 174.369 94.5815 174.851 94.0999C175.333 93.6184 175.986 93.3479 176.667 93.3479H183.564C184.245 93.3479 184.898 93.6184 185.38 94.0999C185.862 94.5815 186.132 95.2346 186.132 95.9155C186.132 96.5965 185.862 97.2496 185.38 97.7311C184.898 98.2127 184.245 98.4832 183.564 98.4832H183.577Z" fill="url(#paint16_linear_1_16)"/>
<path d="M225.611 77.2485H220.731C220.05 77.2485 219.396 76.978 218.915 76.4965C218.433 76.0149 218.162 75.3618 218.162 74.6809C218.162 73.9999 218.433 73.3468 218.915 72.8652C219.396 72.3837 220.05 72.1132 220.731 72.1132H225.611C226.293 72.1132 226.946 72.3837 227.428 72.8652C227.909 73.3468 228.18 73.9999 228.18 74.6809C228.18 75.3618 227.909 76.0149 227.428 76.4965C226.946 76.978 226.293 77.2485 225.611 77.2485Z" fill="url(#paint17_linear_1_16)"/>
<path d="M284.548 118.935H237.645C236.964 118.935 236.311 118.664 235.829 118.183C235.347 117.701 235.077 117.048 235.077 116.367C235.077 115.686 235.347 115.033 235.829 114.551C236.311 114.07 236.964 113.799 237.645 113.799H284.548C285.229 113.799 285.882 114.07 286.364 114.551C286.845 115.033 287.116 115.686 287.116 116.367C287.116 117.048 286.845 117.701 286.364 118.183C285.882 118.664 285.229 118.935 284.548 118.935Z" fill="url(#paint18_linear_1_16)"/>
<path d="M202.353 118.935H185.015C184.334 118.935 183.68 118.664 183.199 118.183C182.717 117.701 182.446 117.048 182.446 116.367C182.446 115.686 182.717 115.033 183.199 114.551C183.68 114.07 184.334 113.799 185.015 113.799H202.353C203.034 113.799 203.687 114.07 204.169 114.551C204.651 115.033 204.922 115.686 204.922 116.367C204.922 117.048 204.651 117.701 204.169 118.183C203.687 118.664 203.034 118.935 202.353 118.935Z" fill="url(#paint19_linear_1_16)"/>
<path d="M136.726 118.935H119.439C118.758 118.935 118.105 118.664 117.623 118.183C117.141 117.701 116.87 117.048 116.87 116.367C116.87 115.686 117.141 115.033 117.623 114.551C118.105 114.07 118.758 113.799 119.439 113.799H136.726C137.407 113.799 138.06 114.07 138.542 114.551C139.024 115.033 139.294 115.686 139.294 116.367C139.294 117.048 139.024 117.701 138.542 118.183C138.06 118.664 137.407 118.935 136.726 118.935Z" fill="url(#paint20_linear_1_16)"/>
<path d="M287.373 160.172H261.058C260.377 160.172 259.723 159.901 259.242 159.42C258.76 158.938 258.489 158.285 258.489 157.604C258.489 156.923 258.76 156.27 259.242 155.788C259.723 155.307 260.377 155.036 261.058 155.036H287.373C288.054 155.036 288.708 155.307 289.189 155.788C289.671 156.27 289.942 156.923 289.942 157.604C289.942 158.285 289.671 158.938 289.189 159.42C288.708 159.901 288.054 160.172 287.373 160.172Z" fill="url(#paint21_linear_1_16)"/>
<path d="M230.838 160.172H213.834C213.153 160.172 212.5 159.901 212.018 159.42C211.536 158.938 211.266 158.285 211.266 157.604C211.266 156.923 211.536 156.27 212.018 155.788C212.5 155.307 213.153 155.036 213.834 155.036H230.838C231.52 155.036 232.173 155.307 232.655 155.788C233.136 156.27 233.407 156.923 233.407 157.604C233.407 158.285 233.136 158.938 232.655 159.42C232.173 159.901 231.52 160.172 230.838 160.172Z" fill="url(#paint22_linear_1_16)"/>
<path d="M207.413 160.172H159.239C158.558 160.172 157.905 159.901 157.423 159.42C156.941 158.938 156.671 158.285 156.671 157.604C156.671 156.923 156.941 156.27 157.423 155.788C157.905 155.307 158.558 155.036 159.239 155.036H207.413C208.094 155.036 208.748 155.307 209.229 155.788C209.711 156.27 209.982 156.923 209.982 157.604C209.982 158.285 209.711 158.938 209.229 159.42C208.748 159.901 208.094 160.172 207.413 160.172Z" fill="url(#paint23_linear_1_16)"/>
<path d="M285.087 127.524H249.191C248.51 127.524 247.856 127.253 247.375 126.772C246.893 126.29 246.622 125.637 246.622 124.956C246.622 124.275 246.893 123.622 247.375 123.14C247.856 122.659 248.51 122.388 249.191 122.388H285.087C285.768 122.388 286.422 122.659 286.903 123.14C287.385 123.622 287.656 124.275 287.656 124.956C287.656 125.637 287.385 126.29 286.903 126.772C286.422 127.253 285.768 127.524 285.087 127.524Z" fill="url(#paint24_linear_1_16)"/>
<path d="M199.707 127.524H163.824C163.143 127.524 162.49 127.253 162.008 126.772C161.526 126.29 161.256 125.637 161.256 124.956C161.256 124.275 161.526 123.622 162.008 123.14C162.49 122.659 163.143 122.388 163.824 122.388H199.72C200.401 122.388 201.055 122.659 201.536 123.14C202.018 123.622 202.289 124.275 202.289 124.956C202.289 125.637 202.018 126.29 201.536 126.772C201.055 127.253 200.401 127.524 199.72 127.524H199.707Z" fill="url(#paint25_linear_1_16)"/>
<path d="M281.465 140.208H245.505C244.824 140.208 244.171 139.937 243.689 139.456C243.207 138.974 242.937 138.321 242.937 137.64C242.937 136.959 243.207 136.306 243.689 135.825C244.171 135.343 244.824 135.073 245.505 135.073H281.465C282.146 135.073 282.8 135.343 283.282 135.825C283.763 136.306 284.034 136.959 284.034 137.64C284.034 138.321 283.763 138.974 283.282 139.456C282.8 139.937 282.146 140.208 281.465 140.208Z" fill="url(#paint26_linear_1_16)"/>
<path d="M209.07 140.208H196.689C196.008 140.208 195.355 139.937 194.873 139.456C194.391 138.974 194.121 138.321 194.121 137.64C194.121 136.959 194.391 136.306 194.873 135.825C195.355 135.343 196.008 135.073 196.689 135.073H209.07C209.751 135.073 210.404 135.343 210.886 135.825C211.368 136.306 211.638 136.959 211.638 137.64C211.638 138.321 211.368 138.974 210.886 139.456C210.404 139.937 209.751 140.208 209.07 140.208Z" fill="url(#paint27_linear_1_16)"/>
<path d="M212.627 148.758H193.838C193.157 148.758 192.503 148.488 192.022 148.006C191.54 147.525 191.269 146.872 191.269 146.191C191.269 145.51 191.54 144.857 192.022 144.375C192.503 143.893 193.157 143.623 193.838 143.623H212.627C213.308 143.623 213.962 143.893 214.443 144.375C214.925 144.857 215.196 145.51 215.196 146.191C215.196 146.872 214.925 147.525 214.443 148.006C213.962 148.488 213.308 148.758 212.627 148.758Z" fill="url(#paint28_linear_1_16)"/>
<path d="M186.389 148.758H179.505C178.824 148.758 178.171 148.488 177.689 148.006C177.207 147.525 176.937 146.872 176.937 146.191C176.937 145.51 177.207 144.857 177.689 144.375C178.171 143.893 178.824 143.623 179.505 143.623H186.389C187.07 143.623 187.724 143.893 188.205 144.375C188.687 144.857 188.958 145.51 188.958 146.191C188.958 146.872 188.687 147.525 188.205 148.006C187.724 148.488 187.07 148.758 186.389 148.758Z" fill="url(#paint29_linear_1_16)"/>
<path d="M239.662 127.524H234.781C234.1 127.524 233.447 127.253 232.965 126.772C232.483 126.29 232.213 125.637 232.213 124.956C232.213 124.275 232.483 123.622 232.965 123.14C233.447 122.659 234.1 122.388 234.781 122.388H239.662C240.343 122.388 240.996 122.659 241.478 123.14C241.959 123.622 242.23 124.275 242.23 124.956C242.23 125.637 241.959 126.29 241.478 126.772C240.996 127.253 240.343 127.524 239.662 127.524Z" fill="url(#paint30_linear_1_16)"/>
<path d="M287.925 173.421H266.298C265.616 173.421 264.963 173.15 264.481 172.669C264 172.187 263.729 171.534 263.729 170.853C263.729 170.172 264 169.519 264.481 169.038C264.963 168.556 265.616 168.285 266.298 168.285H287.925C288.606 168.285 289.26 168.556 289.741 169.038C290.223 169.519 290.494 170.172 290.494 170.853C290.494 171.534 290.223 172.187 289.741 172.669C289.26 173.15 288.606 173.421 287.925 173.421Z" fill="url(#paint31_linear_1_16)"/>
<path d="M250.026 214.606H194.647C193.966 214.606 193.313 214.336 192.831 213.854C192.349 213.373 192.079 212.72 192.079 212.039C192.079 211.358 192.349 210.705 192.831 210.223C193.313 209.742 193.966 209.471 194.647 209.471H250.09C250.771 209.471 251.425 209.742 251.906 210.223C252.388 210.705 252.659 211.358 252.659 212.039C252.659 212.72 252.388 213.373 251.906 213.854C251.425 214.336 250.771 214.606 250.09 214.606H250.026Z" fill="url(#paint32_linear_1_16)"/>
<path d="M251.503 181.971H215.607C214.926 181.971 214.272 181.701 213.791 181.219C213.309 180.738 213.038 180.084 213.038 179.403C213.038 178.723 213.309 178.069 213.791 177.588C214.272 177.106 214.926 176.836 215.607 176.836H251.503C252.184 176.836 252.837 177.106 253.319 177.588C253.801 178.069 254.071 178.723 254.071 179.403C254.071 180.084 253.801 180.738 253.319 181.219C252.837 181.701 252.184 181.971 251.503 181.971Z" fill="url(#paint33_linear_1_16)"/>
<path d="M119.876 181.971H83.9798C83.2986 181.971 82.6453 181.701 82.1636 181.219C81.6819 180.738 81.4113 180.084 81.4113 179.403C81.4113 178.723 81.6819 178.069 82.1636 177.588C82.6453 177.106 83.2986 176.836 83.9798 176.836H119.876C120.557 176.836 121.21 177.106 121.692 177.588C122.174 178.069 122.444 178.723 122.444 179.403C122.444 180.084 122.174 180.738 121.692 181.219C121.21 181.701 120.557 181.971 119.876 181.971Z" fill="url(#paint34_linear_1_16)"/>
<path d="M268.789 194.681H232.829C232.148 194.681 231.495 194.411 231.013 193.929C230.531 193.448 230.26 192.795 230.26 192.114C230.26 191.433 230.531 190.779 231.013 190.298C231.495 189.816 232.148 189.546 232.829 189.546H268.789C269.47 189.546 270.124 189.816 270.605 190.298C271.087 190.779 271.358 191.433 271.358 192.114C271.358 192.795 271.087 193.448 270.605 193.929C270.124 194.411 269.47 194.681 268.789 194.681Z" fill="url(#paint35_linear_1_16)"/>
<path d="M254.2 203.193H204.202C203.521 203.193 202.868 202.923 202.386 202.441C201.904 201.959 201.634 201.306 201.634 200.625C201.634 199.944 201.904 199.291 202.386 198.81C202.868 198.328 203.521 198.058 204.202 198.058H254.2C254.881 198.058 255.534 198.328 256.016 198.81C256.498 199.291 256.768 199.944 256.768 200.625C256.768 201.306 256.498 201.959 256.016 202.441C255.534 202.923 254.881 203.193 254.2 203.193Z" fill="url(#paint36_linear_1_16)"/>
<path d="M196.753 203.193H189.857C189.175 203.193 188.522 202.923 188.04 202.441C187.559 201.959 187.288 201.306 187.288 200.625C187.288 199.944 187.559 199.291 188.04 198.81C188.522 198.328 189.175 198.058 189.857 198.058H196.753C197.435 198.058 198.088 198.328 198.57 198.81C199.051 199.291 199.322 199.944 199.322 200.625C199.322 201.306 199.051 201.959 198.57 202.441C198.088 202.923 197.435 203.193 196.753 203.193Z" fill="url(#paint37_linear_1_16)"/>
<path d="M206.077 181.971H201.197C200.516 181.971 199.862 181.701 199.381 181.219C198.899 180.738 198.628 180.084 198.628 179.403C198.628 178.723 198.899 178.069 199.381 177.588C199.862 177.106 200.516 176.836 201.197 176.836H206.077C206.759 176.836 207.412 177.106 207.894 177.588C208.375 178.069 208.646 178.723 208.646 179.403C208.646 180.084 208.375 180.738 207.894 181.219C207.412 181.701 206.759 181.971 206.077 181.971Z" fill="url(#paint38_linear_1_16)"/>
<path d="M249.718 244.507H211.998C211.317 244.507 210.663 244.236 210.182 243.755C209.7 243.273 209.429 242.62 209.429 241.939C209.429 241.258 209.7 240.605 210.182 240.124C210.663 239.642 211.317 239.372 211.998 239.372H249.718C250.399 239.372 251.052 239.642 251.534 240.124C252.015 240.605 252.286 241.258 252.286 241.939C252.286 242.62 252.015 243.273 251.534 243.755C251.052 244.236 250.399 244.507 249.718 244.507Z" fill="url(#paint39_linear_1_16)"/>
<path d="M250.578 224.543H214.682C214.001 224.543 213.348 224.273 212.866 223.791C212.384 223.31 212.114 222.657 212.114 221.976C212.114 221.295 212.384 220.641 212.866 220.16C213.348 219.678 214.001 219.408 214.682 219.408H250.578C251.259 219.408 251.913 219.678 252.394 220.16C252.876 220.641 253.147 221.295 253.147 221.976C253.147 222.657 252.876 223.31 252.394 223.791C251.913 224.273 251.259 224.543 250.578 224.543Z" fill="url(#paint40_linear_1_16)"/>
<path d="M181.226 224.543H145.266C144.585 224.543 143.932 224.273 143.45 223.791C142.968 223.31 142.698 222.657 142.698 221.976C142.698 221.295 142.968 220.641 143.45 220.16C143.932 219.678 144.585 219.408 145.266 219.408H181.226C181.907 219.408 182.561 219.678 183.042 220.16C183.524 220.641 183.795 221.295 183.795 221.976C183.795 222.657 183.524 223.31 183.042 223.791C182.561 224.273 181.907 224.543 181.226 224.543Z" fill="url(#paint41_linear_1_16)"/>
<path d="M248.998 233.081H200.889C200.208 233.081 199.554 232.81 199.073 232.329C198.591 231.847 198.32 231.194 198.32 230.513C198.32 229.832 198.591 229.179 199.073 228.697C199.554 228.216 200.208 227.945 200.889 227.945H248.998C249.68 227.945 250.333 228.216 250.815 228.697C251.296 229.179 251.567 229.832 251.567 230.513C251.567 231.194 251.296 231.847 250.815 232.329C250.333 232.81 249.68 233.081 248.998 233.081Z" fill="url(#paint42_linear_1_16)"/>
<path d="M193.453 233.081H186.556C185.875 233.081 185.222 232.81 184.74 232.329C184.258 231.847 183.988 231.194 183.988 230.513C183.988 229.832 184.258 229.179 184.74 228.697C185.222 228.216 185.875 227.945 186.556 227.945H193.453C194.134 227.945 194.787 228.216 195.269 228.697C195.751 229.179 196.021 229.832 196.021 230.513C196.021 231.194 195.751 231.847 195.269 232.329C194.787 232.81 194.134 233.081 193.453 233.081Z" fill="url(#paint43_linear_1_16)"/>
<path d="M241.139 253.597H194.904C194.223 253.597 193.569 253.326 193.088 252.844C192.606 252.363 192.335 251.71 192.335 251.029C192.335 250.348 192.606 249.695 193.088 249.213C193.569 248.732 194.223 248.461 194.904 248.461H241.139C241.82 248.461 242.473 248.732 242.955 249.213C243.436 249.695 243.707 250.348 243.707 251.029C243.707 251.71 243.436 252.363 242.955 252.844C242.473 253.326 241.82 253.597 241.139 253.597Z" fill="url(#paint44_linear_1_16)"/>
<path d="M216.043 294.821H199.039C198.358 294.821 197.705 294.55 197.223 294.068C196.741 293.587 196.471 292.934 196.471 292.253C196.471 291.572 196.741 290.919 197.223 290.437C197.705 289.956 198.358 289.685 199.039 289.685H216.043C216.725 289.685 217.378 289.956 217.86 290.437C218.341 290.919 218.612 291.572 218.612 292.253C218.612 292.934 218.341 293.587 217.86 294.068C217.378 294.55 216.725 294.821 216.043 294.821Z" fill="url(#paint45_linear_1_16)"/>
<path d="M187.327 294.821H144.444C143.763 294.821 143.11 294.55 142.628 294.068C142.146 293.587 141.876 292.934 141.876 292.253C141.876 291.572 142.146 290.919 142.628 290.437C143.11 289.956 143.763 289.685 144.444 289.685H187.327C188.008 289.685 188.661 289.956 189.143 290.437C189.625 290.919 189.895 291.572 189.895 292.253C189.895 292.934 189.625 293.587 189.143 294.068C188.661 294.55 188.008 294.821 187.327 294.821Z" fill="url(#paint46_linear_1_16)"/>
<path d="M209.583 262.134H173.687C173.006 262.134 172.353 261.864 171.871 261.382C171.39 260.9 171.119 260.247 171.119 259.566C171.119 258.885 171.39 258.232 171.871 257.751C172.353 257.269 173.006 256.999 173.687 256.999H209.583C210.265 256.999 210.918 257.269 211.4 257.751C211.881 258.232 212.152 258.885 212.152 259.566C212.152 260.247 211.881 260.9 211.4 261.382C210.918 261.864 210.265 262.134 209.583 262.134Z" fill="url(#paint47_linear_1_16)"/>
<path d="M226.652 274.818H206.565C205.884 274.818 205.231 274.548 204.749 274.066C204.267 273.585 203.997 272.932 203.997 272.251C203.997 271.57 204.267 270.917 204.749 270.435C205.231 269.954 205.884 269.683 206.565 269.683H226.652C227.333 269.683 227.986 269.954 228.468 270.435C228.95 270.917 229.22 271.57 229.22 272.251C229.22 272.932 228.95 273.585 228.468 274.066C227.986 274.548 227.333 274.818 226.652 274.818Z" fill="url(#paint48_linear_1_16)"/>
<path d="M111.553 274.818H91.4543C90.7731 274.818 90.1198 274.548 89.6381 274.066C89.1564 273.585 88.8857 272.932 88.8857 272.251C88.8857 271.57 89.1564 270.917 89.6381 270.435C90.1198 269.954 90.7731 269.683 91.4543 269.683H111.553C112.235 269.683 112.888 269.954 113.37 270.435C113.851 270.917 114.122 271.57 114.122 272.251C114.122 272.932 113.851 273.585 113.37 274.066C112.888 274.548 112.235 274.818 111.553 274.818Z" fill="url(#paint49_linear_1_16)"/>
<path d="M222.555 283.356H203.714C203.033 283.356 202.38 283.085 201.898 282.604C201.416 282.122 201.146 281.469 201.146 280.788C201.146 280.107 201.416 279.454 201.898 278.973C202.38 278.491 203.033 278.221 203.714 278.221H222.555C223.236 278.221 223.889 278.491 224.371 278.973C224.853 279.454 225.123 280.107 225.123 280.788C225.123 281.469 224.853 282.122 224.371 282.604C223.889 283.085 223.236 283.356 222.555 283.356Z" fill="url(#paint50_linear_1_16)"/>
<path d="M194.223 306.953H175.383C174.702 306.953 174.048 306.682 173.567 306.201C173.085 305.719 172.814 305.066 172.814 304.385C172.814 303.704 173.085 303.051 173.567 302.57C174.048 302.088 174.702 301.817 175.383 301.817H194.223C194.905 301.817 195.558 302.088 196.04 302.57C196.521 303.051 196.792 303.704 196.792 304.385C196.792 305.066 196.521 305.719 196.04 306.201C195.558 306.682 194.905 306.953 194.223 306.953Z" fill="url(#paint51_linear_1_16)"/>
<path d="M196.265 283.356H189.382C188.7 283.356 188.047 283.085 187.565 282.604C187.084 282.122 186.813 281.469 186.813 280.788C186.813 280.107 187.084 279.454 187.565 278.973C188.047 278.491 188.7 278.221 189.382 278.221H196.265C196.947 278.221 197.6 278.491 198.082 278.973C198.563 279.454 198.834 280.107 198.834 280.788C198.834 281.469 198.563 282.122 198.082 282.604C197.6 283.085 196.947 283.356 196.265 283.356Z" fill="url(#paint52_linear_1_16)"/>
<path d="M231.481 262.134H224.327C223.646 262.134 222.993 261.864 222.511 261.382C222.029 260.9 221.759 260.247 221.759 259.566C221.759 258.885 222.029 258.232 222.511 257.751C222.993 257.269 223.646 256.999 224.327 256.999H231.481C232.162 256.999 232.815 257.269 233.297 257.751C233.779 258.232 234.049 258.885 234.049 259.566C234.049 260.247 233.779 260.9 233.297 261.382C232.815 261.864 232.162 262.134 231.481 262.134Z" fill="url(#paint53_linear_1_16)"/>
<path d="M161.744 347.458H129.636C128.955 347.458 128.302 347.187 127.82 346.706C127.338 346.224 127.068 345.571 127.068 344.89C127.068 344.209 127.338 343.556 127.82 343.075C128.302 342.593 128.955 342.323 129.636 342.323H161.744C162.425 342.323 163.078 342.593 163.56 343.075C164.042 343.556 164.312 344.209 164.312 344.89C164.312 345.571 164.042 346.224 163.56 346.706C163.078 347.187 162.425 347.458 161.744 347.458Z" fill="url(#paint54_linear_1_16)"/>
<path d="M112.324 365.432H90.3114C89.6301 365.432 88.9768 365.161 88.4951 364.68C88.0134 364.198 87.7428 363.545 87.7428 362.864C87.7428 362.183 88.0134 361.53 88.4951 361.048C88.9768 360.567 89.6301 360.296 90.3114 360.296H112.324C113.005 360.296 113.659 360.567 114.14 361.048C114.622 361.53 114.893 362.183 114.893 362.864C114.893 363.545 114.622 364.198 114.14 364.68C113.659 365.161 113.005 365.432 112.324 365.432Z" fill="url(#paint55_linear_1_16)"/>
<path d="M77.3786 365.432H55.3658C54.6846 365.432 54.0313 365.161 53.5496 364.68C53.0679 364.198 52.7972 363.545 52.7972 362.864C52.7972 362.183 53.0679 361.53 53.5496 361.048C54.0313 360.567 54.6846 360.296 55.3658 360.296H77.3786C78.0598 360.296 78.7131 360.567 79.1948 361.048C79.6765 361.53 79.9472 362.183 79.9472 362.864C79.9472 363.545 79.6765 364.198 79.1948 364.68C78.7131 365.161 78.0598 365.432 77.3786 365.432Z" fill="url(#paint56_linear_1_16)"/>
<path d="M112.607 373.237H80.4994C79.8181 373.237 79.1648 372.967 78.6831 372.485C78.2014 372.004 77.9308 371.351 77.9308 370.67C77.9308 369.989 78.2014 369.336 78.6831 368.854C79.1648 368.373 79.8181 368.102 80.4994 368.102H112.607C113.288 368.102 113.941 368.373 114.423 368.854C114.905 369.336 115.175 369.989 115.175 370.67C115.175 371.351 114.905 372.004 114.423 372.485C113.941 372.967 113.288 373.237 112.607 373.237Z" fill="url(#paint57_linear_1_16)"/>
<path d="M103.039 390.479H70.9314C70.2501 390.479 69.5968 390.209 69.1151 389.727C68.6334 389.246 68.3628 388.593 68.3628 387.912C68.3628 387.231 68.6334 386.578 69.1151 386.096C69.5968 385.614 70.2501 385.344 70.9314 385.344H103.039C103.72 385.344 104.373 385.614 104.855 386.096C105.337 386.578 105.607 387.231 105.607 387.912C105.607 388.593 105.337 389.246 104.855 389.727C104.373 390.209 103.72 390.479 103.039 390.479Z" fill="url(#paint58_linear_1_16)"/>
<path d="M104.644 399.312H88.051C87.3698 399.312 86.7164 399.042 86.2347 398.56C85.753 398.079 85.4824 397.425 85.4824 396.744C85.4824 396.063 85.753 395.41 86.2347 394.929C86.7164 394.447 87.3698 394.177 88.051 394.177H104.747C105.428 394.177 106.081 394.447 106.563 394.929C107.045 395.41 107.315 396.063 107.315 396.744C107.315 397.425 107.045 398.079 106.563 398.56C106.081 399.042 105.428 399.312 104.747 399.312H104.644Z" fill="url(#paint59_linear_1_16)"/>
<path d="M21.6146 399.312H4.9188C4.23757 399.312 3.58425 399.042 3.10255 398.56C2.62085 398.079 2.35022 397.425 2.35022 396.744C2.35022 396.063 2.62085 395.41 3.10255 394.929C3.58425 394.447 4.23757 394.177 4.9188 394.177H21.6146C22.2958 394.177 22.9491 394.447 23.4308 394.929C23.9126 395.41 24.1832 396.063 24.1832 396.744C24.1832 397.425 23.9126 398.079 23.4308 398.56C22.9491 399.042 22.2958 399.312 21.6146 399.312Z" fill="url(#paint60_linear_1_16)"/>
<path d="M99.3656 408.158H74.2449C73.5636 408.158 72.9103 407.887 72.4286 407.406C71.9469 406.924 71.6763 406.271 71.6763 405.59C71.6763 404.909 71.9469 404.256 72.4286 403.774C72.9103 403.293 73.5636 403.022 74.2449 403.022H99.3656C100.047 403.022 100.7 403.293 101.182 403.774C101.664 404.256 101.934 404.909 101.934 405.59C101.934 406.271 101.664 406.924 101.182 407.406C100.7 407.887 100.047 408.158 99.3656 408.158Z" fill="url(#paint61_linear_1_16)"/>
<path d="M101.703 416.22H55.1731C54.4918 416.22 53.8385 415.95 53.3568 415.468C52.8751 414.987 52.6045 414.334 52.6045 413.653C52.6045 412.972 52.8751 412.318 53.3568 411.837C53.8385 411.355 54.4918 411.085 55.1731 411.085H101.703C102.384 411.085 103.038 411.355 103.519 411.837C104.001 412.318 104.272 412.972 104.272 413.653C104.272 414.334 104.001 414.987 103.519 415.468C103.038 415.95 102.384 416.22 101.703 416.22Z" fill="url(#paint62_linear_1_16)"/>
<path d="M101.703 424.27H91.3003C90.619 424.27 89.9657 423.999 89.484 423.518C89.0023 423.036 88.7317 422.383 88.7317 421.702C88.7317 421.021 89.0023 420.368 89.484 419.887C89.9657 419.405 90.619 419.135 91.3003 419.135H101.703C102.384 419.135 103.038 419.405 103.519 419.887C104.001 420.368 104.272 421.021 104.272 421.702C104.272 422.383 104.001 423.036 103.519 423.518C103.038 423.999 102.384 424.27 101.703 424.27Z" fill="url(#paint63_linear_1_16)"/>
<path d="M107.123 382.301H91.1719C90.4906 382.301 89.8373 382.031 89.3556 381.549C88.8739 381.068 88.6033 380.415 88.6033 379.734C88.6033 379.053 88.8739 378.4 89.3556 377.918C89.8373 377.436 90.4906 377.166 91.1719 377.166H107.123C107.804 377.166 108.457 377.436 108.939 377.918C109.421 378.4 109.691 379.053 109.691 379.734C109.691 380.415 109.421 381.068 108.939 381.549C108.457 382.031 107.804 382.301 107.123 382.301Z" fill="url(#paint64_linear_1_16)"/>
<path d="M81.7195 382.301H74.1164C73.4352 382.301 72.7819 382.031 72.3002 381.549C71.8185 381.068 71.5479 380.415 71.5479 379.734C71.5479 379.053 71.8185 378.4 72.3002 377.918C72.7819 377.436 73.4352 377.166 74.1164 377.166H81.7195C82.4007 377.166 83.054 377.436 83.5357 377.918C84.0174 378.4 84.288 379.053 84.288 379.734C84.288 380.415 84.0174 381.068 83.5357 381.549C83.054 382.031 82.4007 382.301 81.7195 382.301Z" fill="url(#paint65_linear_1_16)"/>
<path d="M204.164 316.646H168.268C167.587 316.646 166.933 316.375 166.452 315.894C165.97 315.412 165.699 314.759 165.699 314.078C165.699 313.397 165.97 312.744 166.452 312.262C166.933 311.781 167.587 311.51 168.268 311.51H204.164C204.845 311.51 205.498 311.781 205.98 312.262C206.462 312.744 206.732 313.397 206.732 314.078C206.732 314.759 206.462 315.412 205.98 315.894C205.498 316.375 204.845 316.646 204.164 316.646Z" fill="url(#paint66_linear_1_16)"/>
<path d="M181.265 329.253H145.305C144.623 329.253 143.97 328.983 143.488 328.501C143.007 328.02 142.736 327.366 142.736 326.685C142.736 326.004 143.007 325.351 143.488 324.87C143.97 324.388 144.623 324.118 145.305 324.118H181.265C181.946 324.118 182.599 324.388 183.081 324.87C183.563 325.351 183.833 326.004 183.833 326.685C183.833 327.366 183.563 328.02 183.081 328.501C182.599 328.983 181.946 329.253 181.265 329.253Z" fill="url(#paint67_linear_1_16)"/>
<path d="M166.675 337.803H116.665C115.984 337.803 115.33 337.533 114.849 337.051C114.367 336.57 114.096 335.917 114.096 335.236C114.096 334.555 114.367 333.902 114.849 333.42C115.33 332.939 115.984 332.668 116.665 332.668H166.675C167.357 332.668 168.01 332.939 168.492 333.42C168.973 333.902 169.244 334.555 169.244 335.236C169.244 335.917 168.973 336.57 168.492 337.051C168.01 337.533 167.357 337.803 166.675 337.803Z" fill="url(#paint68_linear_1_16)"/>
<path d="M78.4573 337.803H28.447C27.7658 337.803 27.1124 337.533 26.6307 337.051C26.149 336.57 25.8784 335.917 25.8784 335.236C25.8784 334.555 26.149 333.902 26.6307 333.42C27.1124 332.939 27.7658 332.668 28.447 332.668H78.4573C79.1385 332.668 79.7919 332.939 80.2736 333.42C80.7553 333.902 81.0259 334.555 81.0259 335.236C81.0259 335.917 80.7553 336.57 80.2736 337.051C79.7919 337.533 79.1385 337.803 78.4573 337.803Z" fill="url(#paint69_linear_1_16)"/>
<path d="M109.229 337.803H102.332C101.651 337.803 100.998 337.533 100.516 337.051C100.034 336.57 99.7637 335.917 99.7637 335.236C99.7637 334.555 100.034 333.902 100.516 333.42C100.998 332.939 101.651 332.668 102.332 332.668H109.229C109.91 332.668 110.563 332.939 111.045 333.42C111.527 333.902 111.797 334.555 111.797 335.236C111.797 335.917 111.527 336.57 111.045 337.051C110.563 337.533 109.91 337.803 109.229 337.803Z" fill="url(#paint70_linear_1_16)"/>
<path d="M163.079 355.161H113.069C112.388 355.161 111.734 354.89 111.253 354.409C110.771 353.927 110.5 353.274 110.5 352.593C110.5 351.912 110.771 351.259 111.253 350.778C111.734 350.296 112.388 350.026 113.069 350.026H163.079C163.76 350.026 164.414 350.296 164.896 350.778C165.377 351.259 165.648 351.912 165.648 352.593C165.648 353.274 165.377 353.927 164.896 354.409C164.414 354.89 163.76 355.161 163.079 355.161Z" fill="url(#paint71_linear_1_16)"/>
<path d="M105.633 355.161H98.7363C98.0551 355.161 97.4017 354.89 96.92 354.409C96.4383 353.927 96.1677 353.274 96.1677 352.593C96.1677 351.912 96.4383 351.259 96.92 350.778C97.4017 350.296 98.0551 350.026 98.7363 350.026H105.633C106.314 350.026 106.968 350.296 107.449 350.778C107.931 351.259 108.202 351.912 108.202 352.593C108.202 353.274 107.931 353.927 107.449 354.409C106.968 354.89 106.314 355.161 105.633 355.161Z" fill="url(#paint72_linear_1_16)"/>
<path d="M158.751 316.646H153.858C153.177 316.646 152.523 316.375 152.042 315.894C151.56 315.412 151.289 314.759 151.289 314.078C151.289 313.397 151.56 312.744 152.042 312.262C152.523 311.781 153.177 311.51 153.858 311.51H158.751C159.432 311.51 160.086 311.781 160.567 312.262C161.049 312.744 161.32 313.397 161.32 314.078C161.32 314.759 161.049 315.412 160.567 315.894C160.086 316.375 159.432 316.646 158.751 316.646Z" fill="url(#paint73_linear_1_16)"/>
<path d="M345.038 294.821H328.046C327.365 294.821 326.712 294.55 326.23 294.068C325.749 293.587 325.478 292.934 325.478 292.253C325.478 291.572 325.749 290.919 326.23 290.437C326.712 289.956 327.365 289.685 328.046 289.685H345.038C345.719 289.685 346.372 289.956 346.854 290.437C347.336 290.919 347.606 291.572 347.606 292.253C347.606 292.934 347.336 293.587 346.854 294.068C346.372 294.55 345.719 294.821 345.038 294.821Z" fill="url(#paint74_linear_1_16)"/>
<path d="M316.321 294.821H273.451C272.77 294.821 272.117 294.55 271.635 294.068C271.153 293.587 270.883 292.934 270.883 292.253C270.883 291.572 271.153 290.919 271.635 290.437C272.117 289.956 272.77 289.685 273.451 289.685H316.321C317.002 289.685 317.655 289.956 318.137 290.437C318.619 290.919 318.889 291.572 318.889 292.253C318.889 292.934 318.619 293.587 318.137 294.068C317.655 294.55 317.002 294.821 316.321 294.821Z" fill="url(#paint75_linear_1_16)"/>
<path d="M305.764 266.705H282.133C281.452 266.705 280.798 266.434 280.317 265.952C279.835 265.471 279.564 264.818 279.564 264.137C279.564 263.456 279.835 262.803 280.317 262.321C280.798 261.84 281.452 261.569 282.133 261.569H305.764C306.445 261.569 307.099 261.84 307.58 262.321C308.062 262.803 308.333 263.456 308.333 264.137C308.333 264.818 308.062 265.471 307.58 265.952C307.099 266.434 306.445 266.705 305.764 266.705Z" fill="url(#paint76_linear_1_16)"/>
<path d="M355.659 274.818H302.862C302.18 274.818 301.527 274.548 301.045 274.066C300.564 273.585 300.293 272.932 300.293 272.251C300.293 271.57 300.564 270.917 301.045 270.435C301.527 269.954 302.18 269.683 302.862 269.683H355.659C356.34 269.683 356.993 269.954 357.475 270.435C357.957 270.917 358.227 271.57 358.227 272.251C358.227 272.932 357.957 273.585 357.475 274.066C356.993 274.548 356.34 274.818 355.659 274.818Z" fill="url(#paint77_linear_1_16)"/>
<path d="M351.549 283.356H332.708C332.027 283.356 331.374 283.085 330.892 282.604C330.41 282.122 330.14 281.469 330.14 280.788C330.14 280.107 330.41 279.454 330.892 278.973C331.374 278.491 332.027 278.221 332.708 278.221H351.549C352.23 278.221 352.883 278.491 353.365 278.973C353.847 279.454 354.117 280.107 354.117 280.788C354.117 281.469 353.847 282.122 353.365 282.604C352.883 283.085 352.23 283.356 351.549 283.356Z" fill="url(#paint78_linear_1_16)"/>
<path d="M323.218 306.953H304.39C303.709 306.953 303.055 306.682 302.574 306.201C302.092 305.719 301.821 305.066 301.821 304.385C301.821 303.704 302.092 303.051 302.574 302.57C303.055 302.088 303.709 301.817 304.39 301.817H323.218C323.899 301.817 324.552 302.088 325.034 302.57C325.516 303.051 325.786 303.704 325.786 304.385C325.786 305.066 325.516 305.719 325.034 306.201C324.552 306.682 323.899 306.953 323.218 306.953Z" fill="url(#paint79_linear_1_16)"/>
<path d="M325.272 283.356H318.376C317.694 283.356 317.041 283.085 316.559 282.604C316.078 282.122 315.807 281.469 315.807 280.788C315.807 280.107 316.078 279.454 316.559 278.973C317.041 278.491 317.694 278.221 318.376 278.221H325.272C325.954 278.221 326.607 278.491 327.089 278.973C327.57 279.454 327.841 280.107 327.841 280.788C327.841 281.469 327.57 282.122 327.089 282.604C326.607 283.085 325.954 283.356 325.272 283.356Z" fill="url(#paint80_linear_1_16)"/>
<path d="M311.852 347.458H291.662C290.981 347.458 290.328 347.187 289.846 346.706C289.364 346.224 289.094 345.571 289.094 344.89C289.094 344.209 289.364 343.556 289.846 343.075C290.328 342.593 290.981 342.323 291.662 342.323H311.852C312.533 342.323 313.186 342.593 313.668 343.075C314.149 343.556 314.42 344.209 314.42 344.89C314.42 345.571 314.149 346.224 313.668 346.706C313.186 347.187 312.533 347.458 311.852 347.458Z" fill="url(#paint81_linear_1_16)"/>
<path d="M290.725 365.432H269.303C268.622 365.432 267.968 365.161 267.487 364.68C267.005 364.198 266.734 363.545 266.734 362.864C266.734 362.183 267.005 361.53 267.487 361.048C267.968 360.567 268.622 360.296 269.303 360.296H290.725C291.406 360.296 292.059 360.567 292.541 361.048C293.023 361.53 293.294 362.183 293.294 362.864C293.294 363.545 293.023 364.198 292.541 364.68C292.059 365.161 291.406 365.432 290.725 365.432Z" fill="url(#paint82_linear_1_16)"/>
<path d="M290.969 373.237H252.8C252.119 373.237 251.465 372.967 250.984 372.485C250.502 372.004 250.231 371.351 250.231 370.67C250.231 369.989 250.502 369.336 250.984 368.854C251.465 368.373 252.119 368.102 252.8 368.102H290.969C291.65 368.102 292.303 368.373 292.785 368.854C293.267 369.336 293.537 369.989 293.537 370.67C293.537 371.351 293.267 372.004 292.785 372.485C292.303 372.967 291.65 373.237 290.969 373.237Z" fill="url(#paint83_linear_1_16)"/>
<path d="M239.135 373.237H230.44C229.759 373.237 229.106 372.967 228.624 372.485C228.142 372.004 227.872 371.351 227.872 370.67C227.872 369.989 228.142 369.336 228.624 368.854C229.106 368.373 229.759 368.102 230.44 368.102H239.135C239.816 368.102 240.469 368.373 240.951 368.854C241.433 369.336 241.704 369.989 241.704 370.67C241.704 371.351 241.433 372.004 240.951 372.485C240.469 372.967 239.816 373.237 239.135 373.237Z" fill="url(#paint84_linear_1_16)"/>
<path d="M298.829 390.479H257.796C257.115 390.479 256.461 390.209 255.979 389.727C255.498 389.246 255.227 388.593 255.227 387.912C255.227 387.231 255.498 386.578 255.979 386.096C256.461 385.614 257.115 385.344 257.796 385.344H298.829C299.51 385.344 300.163 385.614 300.645 386.096C301.127 386.578 301.397 387.231 301.397 387.912C301.397 388.593 301.127 389.246 300.645 389.727C300.163 390.209 299.51 390.479 298.829 390.479Z" fill="url(#paint85_linear_1_16)"/>
<path d="M289.492 382.301H273.644C272.963 382.301 272.309 382.031 271.828 381.549C271.346 381.068 271.075 380.415 271.075 379.734C271.075 379.053 271.346 378.4 271.828 377.918C272.309 377.436 272.963 377.166 273.644 377.166H289.492C290.173 377.166 290.827 377.436 291.308 377.918C291.79 378.4 292.061 379.053 292.061 379.734C292.061 380.415 291.79 381.068 291.308 381.549C290.827 382.031 290.173 382.301 289.492 382.301Z" fill="url(#paint86_linear_1_16)"/>
<path d="M311.415 399.055H273.207C272.526 399.055 271.873 398.785 271.391 398.303C270.909 397.822 270.639 397.169 270.639 396.488C270.639 395.807 270.909 395.154 271.391 394.672C271.873 394.191 272.526 393.92 273.207 393.92H311.415C312.096 393.92 312.749 394.191 313.231 394.672C313.713 395.154 313.983 395.807 313.983 396.488C313.983 397.169 313.713 397.822 313.231 398.303C312.749 398.785 312.096 399.055 311.415 399.055Z" fill="url(#paint87_linear_1_16)"/>
<path d="M259.53 399.055H250.848C250.167 399.055 249.513 398.785 249.031 398.303C248.55 397.822 248.279 397.169 248.279 396.488C248.279 395.807 248.55 395.154 249.031 394.672C249.513 394.191 250.167 393.92 250.848 393.92H259.53C260.211 393.92 260.864 394.191 261.346 394.672C261.828 395.154 262.098 395.807 262.098 396.488C262.098 397.169 261.828 397.822 261.346 398.303C260.864 398.785 260.211 399.055 259.53 399.055Z" fill="url(#paint88_linear_1_16)"/>
<path d="M324.219 416.297H278.203C277.522 416.297 276.869 416.027 276.387 415.545C275.905 415.064 275.635 414.411 275.635 413.73C275.635 413.049 275.905 412.396 276.387 411.914C276.869 411.432 277.522 411.162 278.203 411.162H324.219C324.901 411.162 325.554 411.432 326.035 411.914C326.517 412.396 326.788 413.049 326.788 413.73C326.788 414.411 326.517 415.064 326.035 415.545C325.554 416.027 324.901 416.297 324.219 416.297Z" fill="url(#paint89_linear_1_16)"/>
<path d="M309.899 408.119H294.051C293.37 408.119 292.717 407.849 292.235 407.367C291.753 406.886 291.483 406.233 291.483 405.552C291.483 404.871 291.753 404.218 292.235 403.736C292.717 403.254 293.37 402.984 294.051 402.984H309.899C310.581 402.984 311.234 403.254 311.716 403.736C312.197 404.218 312.468 404.871 312.468 405.552C312.468 406.233 312.197 406.886 311.716 407.367C311.234 407.849 310.581 408.119 309.899 408.119Z" fill="url(#paint90_linear_1_16)"/>
<path d="M333.171 316.646H297.275C296.594 316.646 295.94 316.375 295.459 315.894C294.977 315.412 294.706 314.759 294.706 314.078C294.706 313.397 294.977 312.744 295.459 312.262C295.94 311.781 296.594 311.51 297.275 311.51H333.171C333.852 311.51 334.505 311.781 334.987 312.262C335.469 312.744 335.739 313.397 335.739 314.078C335.739 314.759 335.469 315.412 334.987 315.894C334.505 316.375 333.852 316.646 333.171 316.646Z" fill="url(#paint91_linear_1_16)"/>
<path d="M325.093 329.253H274.363C273.682 329.253 273.028 328.983 272.547 328.501C272.065 328.02 271.794 327.366 271.794 326.685C271.794 326.004 272.065 325.351 272.547 324.87C273.028 324.388 273.682 324.118 274.363 324.118H325.093C325.774 324.118 326.427 324.388 326.909 324.87C327.39 325.351 327.661 326.004 327.661 326.685C327.661 327.366 327.39 328.02 326.909 328.501C326.427 328.983 325.774 329.253 325.093 329.253Z" fill="url(#paint92_linear_1_16)"/>
<path d="M323.577 337.803H296.44C295.759 337.803 295.105 337.533 294.624 337.051C294.142 336.57 293.871 335.917 293.871 335.236C293.871 334.555 294.142 333.902 294.624 333.42C295.105 332.939 295.759 332.668 296.44 332.668H323.577C324.258 332.668 324.912 332.939 325.393 333.42C325.875 333.902 326.146 334.555 326.146 335.236C326.146 335.917 325.875 336.57 325.393 337.051C324.912 337.533 324.258 337.803 323.577 337.803Z" fill="url(#paint93_linear_1_16)"/>
<path d="M288.991 337.803H282.094C281.413 337.803 280.76 337.533 280.278 337.051C279.796 336.57 279.526 335.917 279.526 335.236C279.526 334.555 279.796 333.902 280.278 333.42C280.76 332.939 281.413 332.668 282.094 332.668H288.991C289.672 332.668 290.326 332.939 290.807 333.42C291.289 333.902 291.56 334.555 291.56 335.236C291.56 335.917 291.289 336.57 290.807 337.051C290.326 337.533 289.672 337.803 288.991 337.803Z" fill="url(#paint94_linear_1_16)"/>
<path d="M310.118 355.161H282.762C282.081 355.161 281.428 354.89 280.946 354.409C280.464 353.927 280.194 353.274 280.194 352.593C280.194 351.912 280.464 351.259 280.946 350.778C281.428 350.296 282.081 350.026 282.762 350.026H310.118C310.799 350.026 311.452 350.296 311.934 350.778C312.416 351.259 312.686 351.912 312.686 352.593C312.686 353.274 312.416 353.927 311.934 354.409C311.452 354.89 310.799 355.161 310.118 355.161Z" fill="url(#paint95_linear_1_16)"/>
<path d="M275.313 355.161H268.43C267.748 355.161 267.095 354.89 266.613 354.409C266.132 353.927 265.861 353.274 265.861 352.593C265.861 351.912 266.132 351.259 266.613 350.778C267.095 350.296 267.748 350.026 268.43 350.026H275.313C275.995 350.026 276.648 350.296 277.13 350.778C277.611 351.259 277.882 351.912 277.882 352.593C277.882 353.274 277.611 353.927 277.13 354.409C276.648 354.89 275.995 355.161 275.313 355.161Z" fill="url(#paint96_linear_1_16)"/>
<path d="M287.745 316.646H282.865C282.184 316.646 281.531 316.375 281.049 315.894C280.567 315.412 280.297 314.759 280.297 314.078C280.297 313.397 280.567 312.744 281.049 312.262C281.531 311.781 282.184 311.51 282.865 311.51H287.745C288.427 311.51 289.08 311.781 289.562 312.262C290.043 312.744 290.314 313.397 290.314 314.078C290.314 314.759 290.043 315.412 289.562 315.894C289.08 316.375 288.427 316.646 287.745 316.646Z" fill="url(#paint97_linear_1_16)"/>
</g>
<defs>
<radialGradient id="paint0_radial_1_16" cx="0" cy="0" r="1" gradientUnits="userSpaceOnUse" gradientTransform="translate(198.5 428.373) scale(189.972 5.69717)">
<stop stop-color="#200031"/>
<stop offset="1" stop-color="#200031" stop-opacity="0"/>
</radialGradient>
<linearGradient id="paint1_linear_1_16" x1="215.067" y1="214.491" x2="344.652" y2="214.491" gradientUnits="userSpaceOnUse">
<stop stop-color="#AB00FF"/>
<stop offset="1" stop-color="#E000FF"/>
</linearGradient>
<linearGradient id="paint2_linear_1_16" x1="215.067" y1="11.7086" x2="344.652" y2="11.7086" gradientUnits="userSpaceOnUse">
<stop stop-color="#AB00FF"/>
<stop offset="1" stop-color="#E000FF"/>
</linearGradient>
<linearGradient id="paint3_linear_1_16" x1="215.067" y1="52.8941" x2="344.652" y2="52.8941" gradientUnits="userSpaceOnUse">
<stop stop-color="#AB00FF"/>
<stop offset="1" stop-color="#E000FF"/>
</linearGradient>
<linearGradient id="paint4_linear_1_16" x1="215.067" y1="20.2461" x2="344.652" y2="20.2461" gradientUnits="userSpaceOnUse">
<stop stop-color="#AB00FF"/>
<stop offset="1" stop-color="#E000FF"/>
</linearGradient>
<linearGradient id="paint5_linear_1_16" x1="215.067" y1="32.9304" x2="344.652" y2="32.9304" gradientUnits="userSpaceOnUse">
<stop stop-color="#AB00FF"/>
<stop offset="1" stop-color="#E000FF"/>
</linearGradient>
<linearGradient id="paint6_linear_1_16" x1="215.067" y1="41.468" x2="344.652" y2="41.468" gradientUnits="userSpaceOnUse">
<stop stop-color="#AB00FF"/>
<stop offset="1" stop-color="#E000FF"/>
</linearGradient>
<linearGradient id="paint7_linear_1_16" x1="215.067" y1="41.468" x2="344.652" y2="41.468" gradientUnits="userSpaceOnUse">
<stop stop-color="#AB00FF"/>
<stop offset="1" stop-color="#E000FF"/>
</linearGradient>
<linearGradient id="paint8_linear_1_16" x1="215.067" y1="41.468" x2="344.652" y2="41.468" gradientUnits="userSpaceOnUse">
<stop stop-color="#AB00FF"/>
<stop offset="1" stop-color="#E000FF"/>
</linearGradient>
<linearGradient id="paint9_linear_1_16" x1="215.067" y1="20.2461" x2="344.652" y2="20.2461" gradientUnits="userSpaceOnUse">
<stop stop-color="#AB00FF"/>
<stop offset="1" stop-color="#E000FF"/>
</linearGradient>
<linearGradient id="paint10_linear_1_16" x1="215.067" y1="66.1433" x2="344.652" y2="66.1433" gradientUnits="userSpaceOnUse">
<stop stop-color="#AB00FF"/>
<stop offset="1" stop-color="#E000FF"/>
</linearGradient>
<linearGradient id="paint11_linear_1_16" x1="215.067" y1="107.329" x2="344.652" y2="107.329" gradientUnits="userSpaceOnUse">
<stop stop-color="#AB00FF"/>
<stop offset="1" stop-color="#E000FF"/>
</linearGradient>
<linearGradient id="paint12_linear_1_16" x1="215.067" y1="74.6809" x2="344.652" y2="74.6809" gradientUnits="userSpaceOnUse">
<stop stop-color="#AB00FF"/>
<stop offset="1" stop-color="#E000FF"/>
</linearGradient>
<linearGradient id="paint13_linear_1_16" x1="215.067" y1="87.3652" x2="344.652" y2="87.3652" gradientUnits="userSpaceOnUse">
<stop stop-color="#AB00FF"/>
<stop offset="1" stop-color="#E000FF"/>
</linearGradient>
<linearGradient id="paint14_linear_1_16" x1="215.067" y1="87.3652" x2="344.652" y2="87.3652" gradientUnits="userSpaceOnUse">
<stop stop-color="#AB00FF"/>
<stop offset="1" stop-color="#E000FF"/>
</linearGradient>
<linearGradient id="paint15_linear_1_16" x1="215.067" y1="95.9155" x2="344.652" y2="95.9155" gradientUnits="userSpaceOnUse">
<stop stop-color="#AB00FF"/>
<stop offset="1" stop-color="#E000FF"/>
</linearGradient>
<linearGradient id="paint16_linear_1_16" x1="215.067" y1="95.9155" x2="344.652" y2="95.9155" gradientUnits="userSpaceOnUse">
<stop stop-color="#AB00FF"/>
<stop offset="1" stop-color="#E000FF"/>
</linearGradient>
<linearGradient id="paint17_linear_1_16" x1="215.067" y1="74.6809" x2="344.652" y2="74.6809" gradientUnits="userSpaceOnUse">
<stop stop-color="#AB00FF"/>
<stop offset="1" stop-color="#E000FF"/>
</linearGradient>
<linearGradient id="paint18_linear_1_16" x1="215.067" y1="116.418" x2="344.652" y2="116.418" gradientUnits="userSpaceOnUse">
<stop stop-color="#AB00FF"/>
<stop offset="1" stop-color="#E000FF"/>
</linearGradient>
<linearGradient id="paint19_linear_1_16" x1="215.067" y1="116.418" x2="344.652" y2="116.418" gradientUnits="userSpaceOnUse">
<stop stop-color="#AB00FF"/>
<stop offset="1" stop-color="#E000FF"/>
</linearGradient>
<linearGradient id="paint20_linear_1_16" x1="215.067" y1="116.418" x2="344.652" y2="116.418" gradientUnits="userSpaceOnUse">
<stop stop-color="#AB00FF"/>
<stop offset="1" stop-color="#E000FF"/>
</linearGradient>
<linearGradient id="paint21_linear_1_16" x1="215.067" y1="157.604" x2="344.652" y2="157.604" gradientUnits="userSpaceOnUse">
<stop stop-color="#AB00FF"/>
<stop offset="1" stop-color="#E000FF"/>
</linearGradient>
<linearGradient id="paint22_linear_1_16" x1="215.067" y1="157.604" x2="344.652" y2="157.604" gradientUnits="userSpaceOnUse">
<stop stop-color="#AB00FF"/>
<stop offset="1" stop-color="#E000FF"/>
</linearGradient>
<linearGradient id="paint23_linear_1_16" x1="215.067" y1="157.604" x2="344.652" y2="157.604" gradientUnits="userSpaceOnUse">
<stop stop-color="#AB00FF"/>
<stop offset="1" stop-color="#E000FF"/>
</linearGradient>
<linearGradient id="paint24_linear_1_16" x1="215.067" y1="124.956" x2="344.652" y2="124.956" gradientUnits="userSpaceOnUse">
<stop stop-color="#AB00FF"/>
<stop offset="1" stop-color="#E000FF"/>
</linearGradient>
<linearGradient id="paint25_linear_1_16" x1="215.067" y1="124.956" x2="344.652" y2="124.956" gradientUnits="userSpaceOnUse">
<stop stop-color="#AB00FF"/>
<stop offset="1" stop-color="#E000FF"/>
</linearGradient>
<linearGradient id="paint26_linear_1_16" x1="215.067" y1="137.64" x2="344.652" y2="137.64" gradientUnits="userSpaceOnUse">
<stop stop-color="#AB00FF"/>
<stop offset="1" stop-color="#E000FF"/>
</linearGradient>
<linearGradient id="paint27_linear_1_16" x1="215.067" y1="137.64" x2="344.652" y2="137.64" gradientUnits="userSpaceOnUse">
<stop stop-color="#AB00FF"/>
<stop offset="1" stop-color="#E000FF"/>
</linearGradient>
<linearGradient id="paint28_linear_1_16" x1="215.067" y1="146.191" x2="344.652" y2="146.191" gradientUnits="userSpaceOnUse">
<stop stop-color="#AB00FF"/>
<stop offset="1" stop-color="#E000FF"/>
</linearGradient>
<linearGradient id="paint29_linear_1_16" x1="215.067" y1="146.191" x2="344.652" y2="146.191" gradientUnits="userSpaceOnUse">
<stop stop-color="#AB00FF"/>
<stop offset="1" stop-color="#E000FF"/>
</linearGradient>
<linearGradient id="paint30_linear_1_16" x1="215.067" y1="124.956" x2="344.652" y2="124.956" gradientUnits="userSpaceOnUse">
<stop stop-color="#AB00FF"/>
<stop offset="1" stop-color="#E000FF"/>
</linearGradient>
<linearGradient id="paint31_linear_1_16" x1="215.067" y1="170.853" x2="344.652" y2="170.853" gradientUnits="userSpaceOnUse">
<stop stop-color="#AB00FF"/>
<stop offset="1" stop-color="#E000FF"/>
</linearGradient>
<linearGradient id="paint32_linear_1_16" x1="215.067" y1="212.039" x2="344.652" y2="212.039" gradientUnits="userSpaceOnUse">
<stop stop-color="#AB00FF"/>
<stop offset="1" stop-color="#E000FF"/>
</linearGradient>
<linearGradient id="paint33_linear_1_16" x1="215.067" y1="179.403" x2="344.652" y2="179.403" gradientUnits="userSpaceOnUse">
<stop stop-color="#AB00FF"/>
<stop offset="1" stop-color="#E000FF"/>
</linearGradient>
<linearGradient id="paint34_linear_1_16" x1="215.067" y1="179.403" x2="344.652" y2="179.403" gradientUnits="userSpaceOnUse">
<stop stop-color="#AB00FF"/>
<stop offset="1" stop-color="#E000FF"/>
</linearGradient>
<linearGradient id="paint35_linear_1_16" x1="215.067" y1="192.075" x2="344.652" y2="192.075" gradientUnits="userSpaceOnUse">
<stop stop-color="#AB00FF"/>
<stop offset="1" stop-color="#E000FF"/>
</linearGradient>
<linearGradient id="paint36_linear_1_16" x1="215.067" y1="200.625" x2="344.652" y2="200.625" gradientUnits="userSpaceOnUse">
<stop stop-color="#AB00FF"/>
<stop offset="1" stop-color="#E000FF"/>
</linearGradient>
<linearGradient id="paint37_linear_1_16" x1="215.067" y1="200.625" x2="344.652" y2="200.625" gradientUnits="userSpaceOnUse">
<stop stop-color="#AB00FF"/>
<stop offset="1" stop-color="#E000FF"/>
</linearGradient>
<linearGradient id="paint38_linear_1_16" x1="215.067" y1="179.403" x2="344.652" y2="179.403" gradientUnits="userSpaceOnUse">
<stop stop-color="#AB00FF"/>
<stop offset="1" stop-color="#E000FF"/>
</linearGradient>
<linearGradient id="paint39_linear_1_16" x1="215.067" y1="241.939" x2="344.652" y2="241.939" gradientUnits="userSpaceOnUse">
<stop stop-color="#AB00FF"/>
<stop offset="1" stop-color="#E000FF"/>
</linearGradient>
<linearGradient id="paint40_linear_1_16" x1="215.067" y1="221.976" x2="344.652" y2="221.976" gradientUnits="userSpaceOnUse">
<stop stop-color="#AB00FF"/>
<stop offset="1" stop-color="#E000FF"/>
</linearGradient>
<linearGradient id="paint41_linear_1_16" x1="215.067" y1="221.976" x2="344.652" y2="221.976" gradientUnits="userSpaceOnUse">
<stop stop-color="#AB00FF"/>
<stop offset="1" stop-color="#E000FF"/>
</linearGradient>
<linearGradient id="paint42_linear_1_16" x1="215.067" y1="230.513" x2="344.652" y2="230.513" gradientUnits="userSpaceOnUse">
<stop stop-color="#AB00FF"/>
<stop offset="1" stop-color="#E000FF"/>
</linearGradient>
<linearGradient id="paint43_linear_1_16" x1="215.067" y1="230.513" x2="344.653" y2="230.513" gradientUnits="userSpaceOnUse">
<stop stop-color="#AB00FF"/>
<stop offset="1" stop-color="#E000FF"/>
</linearGradient>
<linearGradient id="paint44_linear_1_16" x1="215.067" y1="251.029" x2="344.652" y2="251.029" gradientUnits="userSpaceOnUse">
<stop stop-color="#AB00FF"/>
<stop offset="1" stop-color="#E000FF"/>
</linearGradient>
<linearGradient id="paint45_linear_1_16" x1="215.067" y1="292.214" x2="344.652" y2="292.214" gradientUnits="userSpaceOnUse">
<stop stop-color="#AB00FF"/>
<stop offset="1" stop-color="#E000FF"/>
</linearGradient>
<linearGradient id="paint46_linear_1_16" x1="215.067" y1="292.214" x2="344.652" y2="292.214" gradientUnits="userSpaceOnUse">
<stop stop-color="#AB00FF"/>
<stop offset="1" stop-color="#E000FF"/>
</linearGradient>
<linearGradient id="paint47_linear_1_16" x1="215.067" y1="259.566" x2="344.652" y2="259.566" gradientUnits="userSpaceOnUse">
<stop stop-color="#AB00FF"/>
<stop offset="1" stop-color="#E000FF"/>
</linearGradient>
<linearGradient id="paint48_linear_1_16" x1="215.067" y1="272.251" x2="344.652" y2="272.251" gradientUnits="userSpaceOnUse">
<stop stop-color="#AB00FF"/>
<stop offset="1" stop-color="#E000FF"/>
</linearGradient>
<linearGradient id="paint49_linear_1_16" x1="215.042" y1="272.251" x2="344.627" y2="272.251" gradientUnits="userSpaceOnUse">
<stop stop-color="#AB00FF"/>
<stop offset="1" stop-color="#E000FF"/>
</linearGradient>
<linearGradient id="paint50_linear_1_16" x1="215.067" y1="280.788" x2="344.652" y2="280.788" gradientUnits="userSpaceOnUse">
<stop stop-color="#AB00FF"/>
<stop offset="1" stop-color="#E000FF"/>
</linearGradient>
<linearGradient id="paint51_linear_1_16" x1="215.067" y1="304.385" x2="344.652" y2="304.385" gradientUnits="userSpaceOnUse">
<stop stop-color="#AB00FF"/>
<stop offset="1" stop-color="#E000FF"/>
</linearGradient>
<linearGradient id="paint52_linear_1_16" x1="215.067" y1="280.788" x2="344.652" y2="280.788" gradientUnits="userSpaceOnUse">
<stop stop-color="#AB00FF"/>
<stop offset="1" stop-color="#E000FF"/>
</linearGradient>
<linearGradient id="paint53_linear_1_16" x1="215.067" y1="259.566" x2="344.652" y2="259.566" gradientUnits="userSpaceOnUse">
<stop stop-color="#AB00FF"/>
<stop offset="1" stop-color="#E000FF"/>
</linearGradient>
<linearGradient id="paint54_linear_1_16" x1="215.067" y1="344.916" x2="344.652" y2="344.916" gradientUnits="userSpaceOnUse">
<stop stop-color="#AB00FF"/>
<stop offset="1" stop-color="#E000FF"/>
</linearGradient>
<linearGradient id="paint55_linear_1_16" x1="215.067" y1="362.915" x2="344.652" y2="362.915" gradientUnits="userSpaceOnUse">
<stop stop-color="#AB00FF"/>
<stop offset="1" stop-color="#E000FF"/>
</linearGradient>
<linearGradient id="paint56_linear_1_16" x1="215.067" y1="362.915" x2="344.652" y2="362.915" gradientUnits="userSpaceOnUse">
<stop stop-color="#AB00FF"/>
<stop offset="1" stop-color="#E000FF"/>
</linearGradient>
<linearGradient id="paint57_linear_1_16" x1="215.067" y1="370.67" x2="344.652" y2="370.67" gradientUnits="userSpaceOnUse">
<stop stop-color="#AB00FF"/>
<stop offset="1" stop-color="#E000FF"/>
</linearGradient>
<linearGradient id="paint58_linear_1_16" x1="215.067" y1="387.912" x2="344.652" y2="387.912" gradientUnits="userSpaceOnUse">
<stop stop-color="#AB00FF"/>
<stop offset="1" stop-color="#E000FF"/>
</linearGradient>
<linearGradient id="paint59_linear_1_16" x1="215.067" y1="396.744" x2="344.652" y2="396.744" gradientUnits="userSpaceOnUse">
<stop stop-color="#AB00FF"/>
<stop offset="1" stop-color="#E000FF"/>
</linearGradient>
<linearGradient id="paint60_linear_1_16" x1="215.067" y1="396.744" x2="344.652" y2="396.744" gradientUnits="userSpaceOnUse">
<stop stop-color="#AB00FF"/>
<stop offset="1" stop-color="#E000FF"/>
</linearGradient>
<linearGradient id="paint61_linear_1_16" x1="215.067" y1="405.59" x2="344.652" y2="405.59" gradientUnits="userSpaceOnUse">
<stop stop-color="#AB00FF"/>
<stop offset="1" stop-color="#E000FF"/>
</linearGradient>
<linearGradient id="paint62_linear_1_16" x1="215.067" y1="413.653" x2="344.652" y2="413.653" gradientUnits="userSpaceOnUse">
<stop stop-color="#AB00FF"/>
<stop offset="1" stop-color="#E000FF"/>
</linearGradient>
<linearGradient id="paint63_linear_1_16" x1="215.067" y1="421.702" x2="344.652" y2="421.702" gradientUnits="userSpaceOnUse">
<stop stop-color="#AB00FF"/>
<stop offset="1" stop-color="#E000FF"/>
</linearGradient>
<linearGradient id="paint64_linear_1_16" x1="215.067" y1="379.734" x2="344.653" y2="379.734" gradientUnits="userSpaceOnUse">
<stop stop-color="#AB00FF"/>
<stop offset="1" stop-color="#E000FF"/>
</linearGradient>
<linearGradient id="paint65_linear_1_16" x1="215.068" y1="379.734" x2="344.653" y2="379.734" gradientUnits="userSpaceOnUse">
<stop stop-color="#AB00FF"/>
<stop offset="1" stop-color="#E000FF"/>
</linearGradient>
<linearGradient id="paint66_linear_1_16" x1="215.067" y1="314.014" x2="344.652" y2="314.014" gradientUnits="userSpaceOnUse">
<stop stop-color="#AB00FF"/>
<stop offset="1" stop-color="#E000FF"/>
</linearGradient>
<linearGradient id="paint67_linear_1_16" x1="215.067" y1="326.685" x2="344.652" y2="326.685" gradientUnits="userSpaceOnUse">
<stop stop-color="#AB00FF"/>
<stop offset="1" stop-color="#E000FF"/>
</linearGradient>
<linearGradient id="paint68_linear_1_16" x1="215.067" y1="335.236" x2="344.652" y2="335.236" gradientUnits="userSpaceOnUse">
<stop stop-color="#AB00FF"/>
<stop offset="1" stop-color="#E000FF"/>
</linearGradient>
<linearGradient id="paint69_linear_1_16" x1="215.067" y1="335.236" x2="344.652" y2="335.236" gradientUnits="userSpaceOnUse">
<stop stop-color="#AB00FF"/>
<stop offset="1" stop-color="#E000FF"/>
</linearGradient>
<linearGradient id="paint70_linear_1_16" x1="215.067" y1="335.236" x2="344.653" y2="335.236" gradientUnits="userSpaceOnUse">
<stop stop-color="#AB00FF"/>
<stop offset="1" stop-color="#E000FF"/>
</linearGradient>
<linearGradient id="paint71_linear_1_16" x1="215.067" y1="352.606" x2="344.652" y2="352.606" gradientUnits="userSpaceOnUse">
<stop stop-color="#AB00FF"/>
<stop offset="1" stop-color="#E000FF"/>
</linearGradient>
<linearGradient id="paint72_linear_1_16" x1="215.067" y1="352.606" x2="344.652" y2="352.606" gradientUnits="userSpaceOnUse">
<stop stop-color="#AB00FF"/>
<stop offset="1" stop-color="#E000FF"/>
</linearGradient>
<linearGradient id="paint73_linear_1_16" x1="215.067" y1="314.014" x2="344.652" y2="314.014" gradientUnits="userSpaceOnUse">
<stop stop-color="#AB00FF"/>
<stop offset="1" stop-color="#E000FF"/>
</linearGradient>
<linearGradient id="paint74_linear_1_16" x1="215.067" y1="292.214" x2="344.652" y2="292.214" gradientUnits="userSpaceOnUse">
<stop stop-color="#AB00FF"/>
<stop offset="1" stop-color="#E000FF"/>
</linearGradient>
<linearGradient id="paint75_linear_1_16" x1="215.067" y1="292.214" x2="344.652" y2="292.214" gradientUnits="userSpaceOnUse">
<stop stop-color="#AB00FF"/>
<stop offset="1" stop-color="#E000FF"/>
</linearGradient>
<linearGradient id="paint76_linear_1_16" x1="215.067" y1="264.137" x2="344.652" y2="264.137" gradientUnits="userSpaceOnUse">
<stop stop-color="#AB00FF"/>
<stop offset="1" stop-color="#E000FF"/>
</linearGradient>
<linearGradient id="paint77_linear_1_16" x1="215.067" y1="272.251" x2="344.652" y2="272.251" gradientUnits="userSpaceOnUse">
<stop stop-color="#AB00FF"/>
<stop offset="1" stop-color="#E000FF"/>
</linearGradient>
<linearGradient id="paint78_linear_1_16" x1="215.067" y1="280.788" x2="344.652" y2="280.788" gradientUnits="userSpaceOnUse">
<stop stop-color="#AB00FF"/>
<stop offset="1" stop-color="#E000FF"/>
</linearGradient>
<linearGradient id="paint79_linear_1_16" x1="215.068" y1="304.385" x2="344.652" y2="304.385" gradientUnits="userSpaceOnUse">
<stop stop-color="#AB00FF"/>
<stop offset="1" stop-color="#E000FF"/>
</linearGradient>
<linearGradient id="paint80_linear_1_16" x1="215.067" y1="280.788" x2="344.652" y2="280.788" gradientUnits="userSpaceOnUse">
<stop stop-color="#AB00FF"/>
<stop offset="1" stop-color="#E000FF"/>
</linearGradient>
<linearGradient id="paint81_linear_1_16" x1="215.067" y1="344.916" x2="344.652" y2="344.916" gradientUnits="userSpaceOnUse">
<stop stop-color="#AB00FF"/>
<stop offset="1" stop-color="#E000FF"/>
</linearGradient>
<linearGradient id="paint82_linear_1_16" x1="215.067" y1="362.915" x2="344.652" y2="362.915" gradientUnits="userSpaceOnUse">
<stop stop-color="#AB00FF"/>
<stop offset="1" stop-color="#E000FF"/>
</linearGradient>
<linearGradient id="paint83_linear_1_16" x1="215.067" y1="370.67" x2="344.652" y2="370.67" gradientUnits="userSpaceOnUse">
<stop stop-color="#AB00FF"/>
<stop offset="1" stop-color="#E000FF"/>
</linearGradient>
<linearGradient id="paint84_linear_1_16" x1="215.067" y1="370.67" x2="344.652" y2="370.67" gradientUnits="userSpaceOnUse">
<stop stop-color="#AB00FF"/>
<stop offset="1" stop-color="#E000FF"/>
</linearGradient>
<linearGradient id="paint85_linear_1_16" x1="215.067" y1="387.912" x2="344.652" y2="387.912" gradientUnits="userSpaceOnUse">
<stop stop-color="#AB00FF"/>
<stop offset="1" stop-color="#E000FF"/>
</linearGradient>
<linearGradient id="paint86_linear_1_16" x1="215.067" y1="379.734" x2="344.652" y2="379.734" gradientUnits="userSpaceOnUse">
<stop stop-color="#AB00FF"/>
<stop offset="1" stop-color="#E000FF"/>
</linearGradient>
<linearGradient id="paint87_linear_1_16" x1="215.067" y1="396.488" x2="344.652" y2="396.488" gradientUnits="userSpaceOnUse">
<stop stop-color="#AB00FF"/>
<stop offset="1" stop-color="#E000FF"/>
</linearGradient>
<linearGradient id="paint88_linear_1_16" x1="215.067" y1="396.488" x2="344.652" y2="396.488" gradientUnits="userSpaceOnUse">
<stop stop-color="#AB00FF"/>
<stop offset="1" stop-color="#E000FF"/>
</linearGradient>
<linearGradient id="paint89_linear_1_16" x1="215.067" y1="413.73" x2="344.652" y2="413.73" gradientUnits="userSpaceOnUse">
<stop stop-color="#AB00FF"/>
<stop offset="1" stop-color="#E000FF"/>
</linearGradient>
<linearGradient id="paint90_linear_1_16" x1="215.067" y1="405.552" x2="344.652" y2="405.552" gradientUnits="userSpaceOnUse">
<stop stop-color="#AB00FF"/>
<stop offset="1" stop-color="#E000FF"/>
</linearGradient>
<linearGradient id="paint91_linear_1_16" x1="215.067" y1="314.014" x2="344.652" y2="314.014" gradientUnits="userSpaceOnUse">
<stop stop-color="#AB00FF"/>
<stop offset="1" stop-color="#E000FF"/>
</linearGradient>
<linearGradient id="paint92_linear_1_16" x1="215.067" y1="326.685" x2="344.652" y2="326.685" gradientUnits="userSpaceOnUse">
<stop stop-color="#AB00FF"/>
<stop offset="1" stop-color="#E000FF"/>
</linearGradient>
<linearGradient id="paint93_linear_1_16" x1="215.067" y1="335.236" x2="344.652" y2="335.236" gradientUnits="userSpaceOnUse">
<stop stop-color="#AB00FF"/>
<stop offset="1" stop-color="#E000FF"/>
</linearGradient>
<linearGradient id="paint94_linear_1_16" x1="215.067" y1="335.236" x2="344.652" y2="335.236" gradientUnits="userSpaceOnUse">
<stop stop-color="#AB00FF"/>
<stop offset="1" stop-color="#E000FF"/>
</linearGradient>
<linearGradient id="paint95_linear_1_16" x1="215.067" y1="352.606" x2="344.652" y2="352.606" gradientUnits="userSpaceOnUse">
<stop stop-color="#AB00FF"/>
<stop offset="1" stop-color="#E000FF"/>
</linearGradient>
<linearGradient id="paint96_linear_1_16" x1="215.067" y1="352.606" x2="344.652" y2="352.606" gradientUnits="userSpaceOnUse">
<stop stop-color="#AB00FF"/>
<stop offset="1" stop-color="#E000FF"/>
</linearGradient>
<linearGradient id="paint97_linear_1_16" x1="215.067" y1="314.014" x2="344.652" y2="314.014" gradientUnits="userSpaceOnUse">
<stop stop-color="#AB00FF"/>
<stop offset="1" stop-color="#E000FF"/>
</linearGradient>
<clipPath id="clip0_1_16">
<rect width="397" height="433" fill="white"/>
</clipPath>
</defs>
</svg>
